M48
; DRILL file KiCad 10.0.5 date 2026-09-20T18:59:42
; FORMAT={-:-/ absolute / metric / decimal}
; #@! TF.CreationDate,2026-09-20T18:59:42-04:00
; #@! TF.GenerationSoftware,Kicad,Pcbnew,10.0.5
; #@! TF.FileFunction,Plated,1,2,PTH
FMAT,2
METRIC
; #@! TA.AperFunction,Plated,PTH,ViaDrill
T1C0.200
; #@! TA.AperFunction,Plated,PTH,ComponentDrill
T2C0.200
; #@! TA.AperFunction,Plated,PTH,ComponentDrill
T3C0.600
; #@! TA.AperFunction,Plated,PTH,ComponentDrill
T4C0.750
; #@! TA.AperFunction,Plated,PTH,ComponentDrill
T5C1.000
%
G90
G05
T1
X65.996Y-88.602
X66.33Y-89.611
X67.416Y-87.298
X67.692Y-90.547
X67.854Y-89.099
X67.889Y-88.5
X68.12Y-77.875
X68.194Y-81.92
X68.503Y-87.462
X68.741Y-89.675
X68.814Y-77.125
X68.814Y-97.725
X69.098Y-79.304
X69.289Y-73.981
X69.519Y-71.83
X69.764Y-77.125
X69.764Y-105.494
X69.814Y-90.85
X70.064Y-75.4
X70.114Y-91.975
X70.114Y-99.375
X70.128Y-80.736
X70.289Y-90.376
X70.301Y-82.71
X70.319Y-95.05
X70.469Y-104.7
X70.664Y-88.025
X70.669Y-98.075
X71.004Y-101.165
X71.139Y-93.3
X71.157Y-78.952
X71.391Y-72.002
X71.414Y-103.225
X71.669Y-82.693
X71.689Y-104.225
X72.144Y-82.319
X72.201Y-81.64
X72.589Y-71.4
X72.594Y-76.675
X72.639Y-83.94
X72.639Y-103.2
X72.694Y-97.25
X72.702Y-81.309
X72.789Y-78.477
X72.882Y-88.904
X73.014Y-90.85
X73.014Y-92.0
X73.264Y-80.35
X73.791Y-79.823
X73.889Y-90.175
X74.119Y-97.075
X74.314Y-98.375
X74.364Y-90.925
X74.439Y-82.9
X74.514Y-75.475
X74.514Y-78.075
X74.803Y-85.361
X74.914Y-73.0
X75.001Y-73.594
X75.069Y-92.375
X75.087Y-76.04
X75.289Y-75.475
X75.435Y-80.191
X75.474Y-84.689
X75.479Y-85.356
X75.594Y-100.028
X75.594Y-100.7
X75.614Y-77.6
X76.102Y-77.251
X76.15Y-98.924
X76.164Y-109.65
X76.544Y-78.862
X76.545Y-84.216
X76.749Y-98.95
X77.039Y-73.503
X77.052Y-76.525
X77.219Y-100.3
X77.726Y-89.825
X77.726Y-93.275
X77.739Y-73.6
X77.764Y-76.05
X77.834Y-78.33
X77.875Y-86.408
X77.994Y-101.6
X78.026Y-80.35
X78.039Y-74.6
X78.361Y-80.847
X78.364Y-87.25
X78.552Y-78.482
X78.569Y-107.1
X78.629Y-89.03
X78.903Y-94.575
X79.088Y-75.905
X79.094Y-88.55
X79.119Y-93.08
X79.139Y-81.55
X79.239Y-97.712
X79.248Y-80.96
X79.264Y-101.975
X79.314Y-89.972
X79.337Y-82.523
X79.366Y-84.8
X79.464Y-77.7
X79.494Y-100.625
X79.578Y-79.639
X79.744Y-98.175
X79.819Y-94.575
X80.244Y-93.625
X80.289Y-110.025
X80.289Y-111.425
X80.316Y-83.925
X80.316Y-84.75
X80.453Y-86.631
X80.589Y-72.3
X80.614Y-85.5
X80.764Y-112.75
X80.832Y-70.26
X80.96Y-86.952
X80.975Y-90.289
X81.089Y-72.797
X81.114Y-76.15
X81.244Y-101.124
X81.464Y-95.34
X81.714Y-96.45
X81.72Y-76.599
X81.789Y-68.35
X81.793Y-94.226
X81.87Y-82.172
X81.914Y-92.3
X82.26Y-86.695
X82.414Y-101.325
X82.467Y-74.622
T2
X79.564Y-73.825
X79.564Y-74.575
X79.564Y-75.325
X80.264Y-73.825
X80.264Y-74.575
X80.264Y-75.325
T4
X70.364Y-109.15
X72.364Y-109.15
T5
X64.97Y-64.15
X64.97Y-67.15
X64.97Y-70.15
X64.97Y-73.15
X64.97Y-76.15
X64.97Y-79.15
X64.97Y-81.95
X64.97Y-84.75
X64.97Y-87.5
X64.97Y-90.3
X64.97Y-93.3
X64.97Y-96.3
X64.97Y-99.3
X64.97Y-102.3
X64.97Y-105.3
X64.97Y-108.3
X64.97Y-111.15
X64.97Y-114.15
X77.664Y-114.675
X80.289Y-114.675
X83.464Y-70.225
X83.47Y-64.15
X83.47Y-67.15
X83.47Y-73.15
X83.47Y-76.15
X83.47Y-79.15
X83.47Y-81.95
X83.47Y-84.75
X83.47Y-87.5
X83.47Y-90.3
X83.47Y-93.3
X83.47Y-96.3
X83.47Y-99.3
X83.47Y-102.3
X83.47Y-105.3
X83.47Y-108.3
X83.47Y-111.15
X83.47Y-114.15
T3
G00X69.994Y-66.075
M15
G01X69.994Y-65.275
M16
G05
G00X69.994Y-70.425
M15
G01X69.994Y-69.325
M16
G05
G00X78.634Y-66.075
M15
G01X78.634Y-65.275
M16
G05
G00X78.634Y-70.425
M15
G01X78.634Y-69.325
M16
G05
M30
