%TF.GenerationSoftware,KiCad,Pcbnew,10.0.5*%
%TF.CreationDate,2026-09-20T18:59:27-04:00*%
%TF.ProjectId,devboard,64657662-6f61-4726-942e-6b696361645f,3*%
%TF.SameCoordinates,Original*%
%TF.FileFunction,Legend,Top*%
%TF.FilePolarity,Positive*%
%FSLAX46Y46*%
G04 Gerber Fmt 4.6, Leading zero omitted, Abs format (unit mm)*
G04 Created by KiCad (PCBNEW 10.0.5) date 2026-09-20 18:59:27*
%MOMM*%
%LPD*%
G01*
G04 APERTURE LIST*
%ADD10C,0.050000*%
%ADD11C,0.025000*%
%ADD12C,0.150000*%
%ADD13C,0.125000*%
%ADD14C,0.100000*%
%ADD15C,0.120000*%
G04 APERTURE END LIST*
D10*
X77396546Y-113180138D02*
X77396546Y-113382519D01*
X77396546Y-113382519D02*
X77384641Y-113406328D01*
X77384641Y-113406328D02*
X77372737Y-113418233D01*
X77372737Y-113418233D02*
X77348927Y-113430138D01*
X77348927Y-113430138D02*
X77313213Y-113430138D01*
X77313213Y-113430138D02*
X77289403Y-113418233D01*
X77396546Y-113334900D02*
X77372737Y-113346804D01*
X77372737Y-113346804D02*
X77325118Y-113346804D01*
X77325118Y-113346804D02*
X77301308Y-113334900D01*
X77301308Y-113334900D02*
X77289403Y-113322995D01*
X77289403Y-113322995D02*
X77277499Y-113299185D01*
X77277499Y-113299185D02*
X77277499Y-113227757D01*
X77277499Y-113227757D02*
X77289403Y-113203947D01*
X77289403Y-113203947D02*
X77301308Y-113192042D01*
X77301308Y-113192042D02*
X77325118Y-113180138D01*
X77325118Y-113180138D02*
X77372737Y-113180138D01*
X77372737Y-113180138D02*
X77396546Y-113192042D01*
X77515593Y-113180138D02*
X77515593Y-113346804D01*
X77515593Y-113203947D02*
X77527498Y-113192042D01*
X77527498Y-113192042D02*
X77551308Y-113180138D01*
X77551308Y-113180138D02*
X77587022Y-113180138D01*
X77587022Y-113180138D02*
X77610831Y-113192042D01*
X77610831Y-113192042D02*
X77622736Y-113215852D01*
X77622736Y-113215852D02*
X77622736Y-113346804D01*
X77848926Y-113346804D02*
X77848926Y-113096804D01*
X77848926Y-113334900D02*
X77825117Y-113346804D01*
X77825117Y-113346804D02*
X77777498Y-113346804D01*
X77777498Y-113346804D02*
X77753688Y-113334900D01*
X77753688Y-113334900D02*
X77741783Y-113322995D01*
X77741783Y-113322995D02*
X77729879Y-113299185D01*
X77729879Y-113299185D02*
X77729879Y-113227757D01*
X77729879Y-113227757D02*
X77741783Y-113203947D01*
X77741783Y-113203947D02*
X77753688Y-113192042D01*
X77753688Y-113192042D02*
X77777498Y-113180138D01*
X77777498Y-113180138D02*
X77825117Y-113180138D01*
X77825117Y-113180138D02*
X77848926Y-113192042D01*
X79666070Y-113266804D02*
X79820832Y-113266804D01*
X79820832Y-113266804D02*
X79737498Y-113362042D01*
X79737498Y-113362042D02*
X79773213Y-113362042D01*
X79773213Y-113362042D02*
X79797022Y-113373947D01*
X79797022Y-113373947D02*
X79808927Y-113385852D01*
X79808927Y-113385852D02*
X79820832Y-113409661D01*
X79820832Y-113409661D02*
X79820832Y-113469185D01*
X79820832Y-113469185D02*
X79808927Y-113492995D01*
X79808927Y-113492995D02*
X79797022Y-113504900D01*
X79797022Y-113504900D02*
X79773213Y-113516804D01*
X79773213Y-113516804D02*
X79701784Y-113516804D01*
X79701784Y-113516804D02*
X79677975Y-113504900D01*
X79677975Y-113504900D02*
X79666070Y-113492995D01*
X79904165Y-113350138D02*
X79963689Y-113516804D01*
X79963689Y-113516804D02*
X80023212Y-113350138D01*
X80094641Y-113266804D02*
X80249403Y-113266804D01*
X80249403Y-113266804D02*
X80166069Y-113362042D01*
X80166069Y-113362042D02*
X80201784Y-113362042D01*
X80201784Y-113362042D02*
X80225593Y-113373947D01*
X80225593Y-113373947D02*
X80237498Y-113385852D01*
X80237498Y-113385852D02*
X80249403Y-113409661D01*
X80249403Y-113409661D02*
X80249403Y-113469185D01*
X80249403Y-113469185D02*
X80237498Y-113492995D01*
X80237498Y-113492995D02*
X80225593Y-113504900D01*
X80225593Y-113504900D02*
X80201784Y-113516804D01*
X80201784Y-113516804D02*
X80130355Y-113516804D01*
X80130355Y-113516804D02*
X80106546Y-113504900D01*
X80106546Y-113504900D02*
X80094641Y-113492995D01*
X80642259Y-113504900D02*
X80618450Y-113516804D01*
X80618450Y-113516804D02*
X80570831Y-113516804D01*
X80570831Y-113516804D02*
X80547021Y-113504900D01*
X80547021Y-113504900D02*
X80535117Y-113481090D01*
X80535117Y-113481090D02*
X80535117Y-113385852D01*
X80535117Y-113385852D02*
X80547021Y-113362042D01*
X80547021Y-113362042D02*
X80570831Y-113350138D01*
X80570831Y-113350138D02*
X80618450Y-113350138D01*
X80618450Y-113350138D02*
X80642259Y-113362042D01*
X80642259Y-113362042D02*
X80654164Y-113385852D01*
X80654164Y-113385852D02*
X80654164Y-113409661D01*
X80654164Y-113409661D02*
X80535117Y-113433471D01*
X80761307Y-113350138D02*
X80761307Y-113516804D01*
X80761307Y-113373947D02*
X80773212Y-113362042D01*
X80773212Y-113362042D02*
X80797022Y-113350138D01*
X80797022Y-113350138D02*
X80832736Y-113350138D01*
X80832736Y-113350138D02*
X80856545Y-113362042D01*
X80856545Y-113362042D02*
X80868450Y-113385852D01*
X80868450Y-113385852D02*
X80868450Y-113516804D01*
X81859303Y-87915475D02*
X82061684Y-87915475D01*
X82061684Y-87915475D02*
X82085493Y-87927380D01*
X82085493Y-87927380D02*
X82097398Y-87939284D01*
X82097398Y-87939284D02*
X82109303Y-87963094D01*
X82109303Y-87963094D02*
X82109303Y-87998808D01*
X82109303Y-87998808D02*
X82097398Y-88022618D01*
X82014065Y-87915475D02*
X82025969Y-87939284D01*
X82025969Y-87939284D02*
X82025969Y-87986903D01*
X82025969Y-87986903D02*
X82014065Y-88010713D01*
X82014065Y-88010713D02*
X82002160Y-88022618D01*
X82002160Y-88022618D02*
X81978350Y-88034522D01*
X81978350Y-88034522D02*
X81906922Y-88034522D01*
X81906922Y-88034522D02*
X81883112Y-88022618D01*
X81883112Y-88022618D02*
X81871207Y-88010713D01*
X81871207Y-88010713D02*
X81859303Y-87986903D01*
X81859303Y-87986903D02*
X81859303Y-87939284D01*
X81859303Y-87939284D02*
X81871207Y-87915475D01*
X81859303Y-87796428D02*
X82109303Y-87796428D01*
X81871207Y-87796428D02*
X81859303Y-87772618D01*
X81859303Y-87772618D02*
X81859303Y-87724999D01*
X81859303Y-87724999D02*
X81871207Y-87701190D01*
X81871207Y-87701190D02*
X81883112Y-87689285D01*
X81883112Y-87689285D02*
X81906922Y-87677380D01*
X81906922Y-87677380D02*
X81978350Y-87677380D01*
X81978350Y-87677380D02*
X82002160Y-87689285D01*
X82002160Y-87689285D02*
X82014065Y-87701190D01*
X82014065Y-87701190D02*
X82025969Y-87724999D01*
X82025969Y-87724999D02*
X82025969Y-87772618D01*
X82025969Y-87772618D02*
X82014065Y-87796428D01*
X82025969Y-87570238D02*
X81859303Y-87570238D01*
X81775969Y-87570238D02*
X81787874Y-87582142D01*
X81787874Y-87582142D02*
X81799779Y-87570238D01*
X81799779Y-87570238D02*
X81787874Y-87558333D01*
X81787874Y-87558333D02*
X81775969Y-87570238D01*
X81775969Y-87570238D02*
X81799779Y-87570238D01*
X82025969Y-87415475D02*
X82014065Y-87439285D01*
X82014065Y-87439285D02*
X82002160Y-87451190D01*
X82002160Y-87451190D02*
X81978350Y-87463094D01*
X81978350Y-87463094D02*
X81906922Y-87463094D01*
X81906922Y-87463094D02*
X81883112Y-87451190D01*
X81883112Y-87451190D02*
X81871207Y-87439285D01*
X81871207Y-87439285D02*
X81859303Y-87415475D01*
X81859303Y-87415475D02*
X81859303Y-87379761D01*
X81859303Y-87379761D02*
X81871207Y-87355952D01*
X81871207Y-87355952D02*
X81883112Y-87344047D01*
X81883112Y-87344047D02*
X81906922Y-87332142D01*
X81906922Y-87332142D02*
X81978350Y-87332142D01*
X81978350Y-87332142D02*
X82002160Y-87344047D01*
X82002160Y-87344047D02*
X82014065Y-87355952D01*
X82014065Y-87355952D02*
X82025969Y-87379761D01*
X82025969Y-87379761D02*
X82025969Y-87415475D01*
X82025969Y-86903571D02*
X82025969Y-87046428D01*
X82025969Y-86975000D02*
X81775969Y-86975000D01*
X81775969Y-86975000D02*
X81811684Y-86998809D01*
X81811684Y-86998809D02*
X81835493Y-87022619D01*
X81835493Y-87022619D02*
X81847398Y-87046428D01*
X82025969Y-86784524D02*
X82025969Y-86736905D01*
X82025969Y-86736905D02*
X82014065Y-86713095D01*
X82014065Y-86713095D02*
X82002160Y-86701191D01*
X82002160Y-86701191D02*
X81966445Y-86677381D01*
X81966445Y-86677381D02*
X81918826Y-86665476D01*
X81918826Y-86665476D02*
X81823588Y-86665476D01*
X81823588Y-86665476D02*
X81799779Y-86677381D01*
X81799779Y-86677381D02*
X81787874Y-86689286D01*
X81787874Y-86689286D02*
X81775969Y-86713095D01*
X81775969Y-86713095D02*
X81775969Y-86760714D01*
X81775969Y-86760714D02*
X81787874Y-86784524D01*
X81787874Y-86784524D02*
X81799779Y-86796429D01*
X81799779Y-86796429D02*
X81823588Y-86808333D01*
X81823588Y-86808333D02*
X81883112Y-86808333D01*
X81883112Y-86808333D02*
X81906922Y-86796429D01*
X81906922Y-86796429D02*
X81918826Y-86784524D01*
X81918826Y-86784524D02*
X81930731Y-86760714D01*
X81930731Y-86760714D02*
X81930731Y-86713095D01*
X81930731Y-86713095D02*
X81918826Y-86689286D01*
X81918826Y-86689286D02*
X81906922Y-86677381D01*
X81906922Y-86677381D02*
X81883112Y-86665476D01*
X81909303Y-108815475D02*
X82111684Y-108815475D01*
X82111684Y-108815475D02*
X82135493Y-108827380D01*
X82135493Y-108827380D02*
X82147398Y-108839284D01*
X82147398Y-108839284D02*
X82159303Y-108863094D01*
X82159303Y-108863094D02*
X82159303Y-108898808D01*
X82159303Y-108898808D02*
X82147398Y-108922618D01*
X82064065Y-108815475D02*
X82075969Y-108839284D01*
X82075969Y-108839284D02*
X82075969Y-108886903D01*
X82075969Y-108886903D02*
X82064065Y-108910713D01*
X82064065Y-108910713D02*
X82052160Y-108922618D01*
X82052160Y-108922618D02*
X82028350Y-108934522D01*
X82028350Y-108934522D02*
X81956922Y-108934522D01*
X81956922Y-108934522D02*
X81933112Y-108922618D01*
X81933112Y-108922618D02*
X81921207Y-108910713D01*
X81921207Y-108910713D02*
X81909303Y-108886903D01*
X81909303Y-108886903D02*
X81909303Y-108839284D01*
X81909303Y-108839284D02*
X81921207Y-108815475D01*
X81909303Y-108696428D02*
X82159303Y-108696428D01*
X81921207Y-108696428D02*
X81909303Y-108672618D01*
X81909303Y-108672618D02*
X81909303Y-108624999D01*
X81909303Y-108624999D02*
X81921207Y-108601190D01*
X81921207Y-108601190D02*
X81933112Y-108589285D01*
X81933112Y-108589285D02*
X81956922Y-108577380D01*
X81956922Y-108577380D02*
X82028350Y-108577380D01*
X82028350Y-108577380D02*
X82052160Y-108589285D01*
X82052160Y-108589285D02*
X82064065Y-108601190D01*
X82064065Y-108601190D02*
X82075969Y-108624999D01*
X82075969Y-108624999D02*
X82075969Y-108672618D01*
X82075969Y-108672618D02*
X82064065Y-108696428D01*
X82075969Y-108470238D02*
X81909303Y-108470238D01*
X81825969Y-108470238D02*
X81837874Y-108482142D01*
X81837874Y-108482142D02*
X81849779Y-108470238D01*
X81849779Y-108470238D02*
X81837874Y-108458333D01*
X81837874Y-108458333D02*
X81825969Y-108470238D01*
X81825969Y-108470238D02*
X81849779Y-108470238D01*
X82075969Y-108315475D02*
X82064065Y-108339285D01*
X82064065Y-108339285D02*
X82052160Y-108351190D01*
X82052160Y-108351190D02*
X82028350Y-108363094D01*
X82028350Y-108363094D02*
X81956922Y-108363094D01*
X81956922Y-108363094D02*
X81933112Y-108351190D01*
X81933112Y-108351190D02*
X81921207Y-108339285D01*
X81921207Y-108339285D02*
X81909303Y-108315475D01*
X81909303Y-108315475D02*
X81909303Y-108279761D01*
X81909303Y-108279761D02*
X81921207Y-108255952D01*
X81921207Y-108255952D02*
X81933112Y-108244047D01*
X81933112Y-108244047D02*
X81956922Y-108232142D01*
X81956922Y-108232142D02*
X82028350Y-108232142D01*
X82028350Y-108232142D02*
X82052160Y-108244047D01*
X82052160Y-108244047D02*
X82064065Y-108255952D01*
X82064065Y-108255952D02*
X82075969Y-108279761D01*
X82075969Y-108279761D02*
X82075969Y-108315475D01*
X81849779Y-107946428D02*
X81837874Y-107934524D01*
X81837874Y-107934524D02*
X81825969Y-107910714D01*
X81825969Y-107910714D02*
X81825969Y-107851190D01*
X81825969Y-107851190D02*
X81837874Y-107827381D01*
X81837874Y-107827381D02*
X81849779Y-107815476D01*
X81849779Y-107815476D02*
X81873588Y-107803571D01*
X81873588Y-107803571D02*
X81897398Y-107803571D01*
X81897398Y-107803571D02*
X81933112Y-107815476D01*
X81933112Y-107815476D02*
X82075969Y-107958333D01*
X82075969Y-107958333D02*
X82075969Y-107803571D01*
X81825969Y-107720238D02*
X81825969Y-107553572D01*
X81825969Y-107553572D02*
X82075969Y-107660714D01*
X81949303Y-64536903D02*
X82115969Y-64477379D01*
X82115969Y-64477379D02*
X81949303Y-64417856D01*
X82115969Y-64322618D02*
X81865969Y-64322618D01*
X81961207Y-64322618D02*
X81949303Y-64298808D01*
X81949303Y-64298808D02*
X81949303Y-64251189D01*
X81949303Y-64251189D02*
X81961207Y-64227380D01*
X81961207Y-64227380D02*
X81973112Y-64215475D01*
X81973112Y-64215475D02*
X81996922Y-64203570D01*
X81996922Y-64203570D02*
X82068350Y-64203570D01*
X82068350Y-64203570D02*
X82092160Y-64215475D01*
X82092160Y-64215475D02*
X82104065Y-64227380D01*
X82104065Y-64227380D02*
X82115969Y-64251189D01*
X82115969Y-64251189D02*
X82115969Y-64298808D01*
X82115969Y-64298808D02*
X82104065Y-64322618D01*
X81949303Y-63989285D02*
X82115969Y-63989285D01*
X81949303Y-64096428D02*
X82080255Y-64096428D01*
X82080255Y-64096428D02*
X82104065Y-64084523D01*
X82104065Y-64084523D02*
X82115969Y-64060713D01*
X82115969Y-64060713D02*
X82115969Y-64024999D01*
X82115969Y-64024999D02*
X82104065Y-64001190D01*
X82104065Y-64001190D02*
X82092160Y-63989285D01*
X82104065Y-63882142D02*
X82115969Y-63858333D01*
X82115969Y-63858333D02*
X82115969Y-63810714D01*
X82115969Y-63810714D02*
X82104065Y-63786904D01*
X82104065Y-63786904D02*
X82080255Y-63775000D01*
X82080255Y-63775000D02*
X82068350Y-63775000D01*
X82068350Y-63775000D02*
X82044541Y-63786904D01*
X82044541Y-63786904D02*
X82032636Y-63810714D01*
X82032636Y-63810714D02*
X82032636Y-63846428D01*
X82032636Y-63846428D02*
X82020731Y-63870238D01*
X82020731Y-63870238D02*
X81996922Y-63882142D01*
X81996922Y-63882142D02*
X81985017Y-63882142D01*
X81985017Y-63882142D02*
X81961207Y-63870238D01*
X81961207Y-63870238D02*
X81949303Y-63846428D01*
X81949303Y-63846428D02*
X81949303Y-63810714D01*
X81949303Y-63810714D02*
X81961207Y-63786904D01*
X81999303Y-105875475D02*
X82201684Y-105875475D01*
X82201684Y-105875475D02*
X82225493Y-105887380D01*
X82225493Y-105887380D02*
X82237398Y-105899284D01*
X82237398Y-105899284D02*
X82249303Y-105923094D01*
X82249303Y-105923094D02*
X82249303Y-105958808D01*
X82249303Y-105958808D02*
X82237398Y-105982618D01*
X82154065Y-105875475D02*
X82165969Y-105899284D01*
X82165969Y-105899284D02*
X82165969Y-105946903D01*
X82165969Y-105946903D02*
X82154065Y-105970713D01*
X82154065Y-105970713D02*
X82142160Y-105982618D01*
X82142160Y-105982618D02*
X82118350Y-105994522D01*
X82118350Y-105994522D02*
X82046922Y-105994522D01*
X82046922Y-105994522D02*
X82023112Y-105982618D01*
X82023112Y-105982618D02*
X82011207Y-105970713D01*
X82011207Y-105970713D02*
X81999303Y-105946903D01*
X81999303Y-105946903D02*
X81999303Y-105899284D01*
X81999303Y-105899284D02*
X82011207Y-105875475D01*
X81999303Y-105756428D02*
X82249303Y-105756428D01*
X82011207Y-105756428D02*
X81999303Y-105732618D01*
X81999303Y-105732618D02*
X81999303Y-105684999D01*
X81999303Y-105684999D02*
X82011207Y-105661190D01*
X82011207Y-105661190D02*
X82023112Y-105649285D01*
X82023112Y-105649285D02*
X82046922Y-105637380D01*
X82046922Y-105637380D02*
X82118350Y-105637380D01*
X82118350Y-105637380D02*
X82142160Y-105649285D01*
X82142160Y-105649285D02*
X82154065Y-105661190D01*
X82154065Y-105661190D02*
X82165969Y-105684999D01*
X82165969Y-105684999D02*
X82165969Y-105732618D01*
X82165969Y-105732618D02*
X82154065Y-105756428D01*
X82165969Y-105530238D02*
X81999303Y-105530238D01*
X81915969Y-105530238D02*
X81927874Y-105542142D01*
X81927874Y-105542142D02*
X81939779Y-105530238D01*
X81939779Y-105530238D02*
X81927874Y-105518333D01*
X81927874Y-105518333D02*
X81915969Y-105530238D01*
X81915969Y-105530238D02*
X81939779Y-105530238D01*
X82165969Y-105375475D02*
X82154065Y-105399285D01*
X82154065Y-105399285D02*
X82142160Y-105411190D01*
X82142160Y-105411190D02*
X82118350Y-105423094D01*
X82118350Y-105423094D02*
X82046922Y-105423094D01*
X82046922Y-105423094D02*
X82023112Y-105411190D01*
X82023112Y-105411190D02*
X82011207Y-105399285D01*
X82011207Y-105399285D02*
X81999303Y-105375475D01*
X81999303Y-105375475D02*
X81999303Y-105339761D01*
X81999303Y-105339761D02*
X82011207Y-105315952D01*
X82011207Y-105315952D02*
X82023112Y-105304047D01*
X82023112Y-105304047D02*
X82046922Y-105292142D01*
X82046922Y-105292142D02*
X82118350Y-105292142D01*
X82118350Y-105292142D02*
X82142160Y-105304047D01*
X82142160Y-105304047D02*
X82154065Y-105315952D01*
X82154065Y-105315952D02*
X82165969Y-105339761D01*
X82165969Y-105339761D02*
X82165969Y-105375475D01*
X81939779Y-105006428D02*
X81927874Y-104994524D01*
X81927874Y-104994524D02*
X81915969Y-104970714D01*
X81915969Y-104970714D02*
X81915969Y-104911190D01*
X81915969Y-104911190D02*
X81927874Y-104887381D01*
X81927874Y-104887381D02*
X81939779Y-104875476D01*
X81939779Y-104875476D02*
X81963588Y-104863571D01*
X81963588Y-104863571D02*
X81987398Y-104863571D01*
X81987398Y-104863571D02*
X82023112Y-104875476D01*
X82023112Y-104875476D02*
X82165969Y-105018333D01*
X82165969Y-105018333D02*
X82165969Y-104863571D01*
X82023112Y-104720714D02*
X82011207Y-104744524D01*
X82011207Y-104744524D02*
X81999303Y-104756429D01*
X81999303Y-104756429D02*
X81975493Y-104768333D01*
X81975493Y-104768333D02*
X81963588Y-104768333D01*
X81963588Y-104768333D02*
X81939779Y-104756429D01*
X81939779Y-104756429D02*
X81927874Y-104744524D01*
X81927874Y-104744524D02*
X81915969Y-104720714D01*
X81915969Y-104720714D02*
X81915969Y-104673095D01*
X81915969Y-104673095D02*
X81927874Y-104649286D01*
X81927874Y-104649286D02*
X81939779Y-104637381D01*
X81939779Y-104637381D02*
X81963588Y-104625476D01*
X81963588Y-104625476D02*
X81975493Y-104625476D01*
X81975493Y-104625476D02*
X81999303Y-104637381D01*
X81999303Y-104637381D02*
X82011207Y-104649286D01*
X82011207Y-104649286D02*
X82023112Y-104673095D01*
X82023112Y-104673095D02*
X82023112Y-104720714D01*
X82023112Y-104720714D02*
X82035017Y-104744524D01*
X82035017Y-104744524D02*
X82046922Y-104756429D01*
X82046922Y-104756429D02*
X82070731Y-104768333D01*
X82070731Y-104768333D02*
X82118350Y-104768333D01*
X82118350Y-104768333D02*
X82142160Y-104756429D01*
X82142160Y-104756429D02*
X82154065Y-104744524D01*
X82154065Y-104744524D02*
X82165969Y-104720714D01*
X82165969Y-104720714D02*
X82165969Y-104673095D01*
X82165969Y-104673095D02*
X82154065Y-104649286D01*
X82154065Y-104649286D02*
X82142160Y-104637381D01*
X82142160Y-104637381D02*
X82118350Y-104625476D01*
X82118350Y-104625476D02*
X82070731Y-104625476D01*
X82070731Y-104625476D02*
X82046922Y-104637381D01*
X82046922Y-104637381D02*
X82035017Y-104649286D01*
X82035017Y-104649286D02*
X82023112Y-104673095D01*
X81999303Y-114332618D02*
X82201684Y-114332618D01*
X82201684Y-114332618D02*
X82225493Y-114344523D01*
X82225493Y-114344523D02*
X82237398Y-114356427D01*
X82237398Y-114356427D02*
X82249303Y-114380237D01*
X82249303Y-114380237D02*
X82249303Y-114415951D01*
X82249303Y-114415951D02*
X82237398Y-114439761D01*
X82154065Y-114332618D02*
X82165969Y-114356427D01*
X82165969Y-114356427D02*
X82165969Y-114404046D01*
X82165969Y-114404046D02*
X82154065Y-114427856D01*
X82154065Y-114427856D02*
X82142160Y-114439761D01*
X82142160Y-114439761D02*
X82118350Y-114451665D01*
X82118350Y-114451665D02*
X82046922Y-114451665D01*
X82046922Y-114451665D02*
X82023112Y-114439761D01*
X82023112Y-114439761D02*
X82011207Y-114427856D01*
X82011207Y-114427856D02*
X81999303Y-114404046D01*
X81999303Y-114404046D02*
X81999303Y-114356427D01*
X81999303Y-114356427D02*
X82011207Y-114332618D01*
X81999303Y-114213571D02*
X82165969Y-114213571D01*
X82023112Y-114213571D02*
X82011207Y-114201666D01*
X82011207Y-114201666D02*
X81999303Y-114177856D01*
X81999303Y-114177856D02*
X81999303Y-114142142D01*
X81999303Y-114142142D02*
X82011207Y-114118333D01*
X82011207Y-114118333D02*
X82035017Y-114106428D01*
X82035017Y-114106428D02*
X82165969Y-114106428D01*
X82165969Y-113880238D02*
X81915969Y-113880238D01*
X82154065Y-113880238D02*
X82165969Y-113904047D01*
X82165969Y-113904047D02*
X82165969Y-113951666D01*
X82165969Y-113951666D02*
X82154065Y-113975476D01*
X82154065Y-113975476D02*
X82142160Y-113987381D01*
X82142160Y-113987381D02*
X82118350Y-113999285D01*
X82118350Y-113999285D02*
X82046922Y-113999285D01*
X82046922Y-113999285D02*
X82023112Y-113987381D01*
X82023112Y-113987381D02*
X82011207Y-113975476D01*
X82011207Y-113975476D02*
X81999303Y-113951666D01*
X81999303Y-113951666D02*
X81999303Y-113904047D01*
X81999303Y-113904047D02*
X82011207Y-113880238D01*
X82019303Y-85245475D02*
X82221684Y-85245475D01*
X82221684Y-85245475D02*
X82245493Y-85257380D01*
X82245493Y-85257380D02*
X82257398Y-85269284D01*
X82257398Y-85269284D02*
X82269303Y-85293094D01*
X82269303Y-85293094D02*
X82269303Y-85328808D01*
X82269303Y-85328808D02*
X82257398Y-85352618D01*
X82174065Y-85245475D02*
X82185969Y-85269284D01*
X82185969Y-85269284D02*
X82185969Y-85316903D01*
X82185969Y-85316903D02*
X82174065Y-85340713D01*
X82174065Y-85340713D02*
X82162160Y-85352618D01*
X82162160Y-85352618D02*
X82138350Y-85364522D01*
X82138350Y-85364522D02*
X82066922Y-85364522D01*
X82066922Y-85364522D02*
X82043112Y-85352618D01*
X82043112Y-85352618D02*
X82031207Y-85340713D01*
X82031207Y-85340713D02*
X82019303Y-85316903D01*
X82019303Y-85316903D02*
X82019303Y-85269284D01*
X82019303Y-85269284D02*
X82031207Y-85245475D01*
X82019303Y-85126428D02*
X82269303Y-85126428D01*
X82031207Y-85126428D02*
X82019303Y-85102618D01*
X82019303Y-85102618D02*
X82019303Y-85054999D01*
X82019303Y-85054999D02*
X82031207Y-85031190D01*
X82031207Y-85031190D02*
X82043112Y-85019285D01*
X82043112Y-85019285D02*
X82066922Y-85007380D01*
X82066922Y-85007380D02*
X82138350Y-85007380D01*
X82138350Y-85007380D02*
X82162160Y-85019285D01*
X82162160Y-85019285D02*
X82174065Y-85031190D01*
X82174065Y-85031190D02*
X82185969Y-85054999D01*
X82185969Y-85054999D02*
X82185969Y-85102618D01*
X82185969Y-85102618D02*
X82174065Y-85126428D01*
X82185969Y-84900238D02*
X82019303Y-84900238D01*
X81935969Y-84900238D02*
X81947874Y-84912142D01*
X81947874Y-84912142D02*
X81959779Y-84900238D01*
X81959779Y-84900238D02*
X81947874Y-84888333D01*
X81947874Y-84888333D02*
X81935969Y-84900238D01*
X81935969Y-84900238D02*
X81959779Y-84900238D01*
X82185969Y-84745475D02*
X82174065Y-84769285D01*
X82174065Y-84769285D02*
X82162160Y-84781190D01*
X82162160Y-84781190D02*
X82138350Y-84793094D01*
X82138350Y-84793094D02*
X82066922Y-84793094D01*
X82066922Y-84793094D02*
X82043112Y-84781190D01*
X82043112Y-84781190D02*
X82031207Y-84769285D01*
X82031207Y-84769285D02*
X82019303Y-84745475D01*
X82019303Y-84745475D02*
X82019303Y-84709761D01*
X82019303Y-84709761D02*
X82031207Y-84685952D01*
X82031207Y-84685952D02*
X82043112Y-84674047D01*
X82043112Y-84674047D02*
X82066922Y-84662142D01*
X82066922Y-84662142D02*
X82138350Y-84662142D01*
X82138350Y-84662142D02*
X82162160Y-84674047D01*
X82162160Y-84674047D02*
X82174065Y-84685952D01*
X82174065Y-84685952D02*
X82185969Y-84709761D01*
X82185969Y-84709761D02*
X82185969Y-84745475D01*
X82185969Y-84233571D02*
X82185969Y-84376428D01*
X82185969Y-84305000D02*
X81935969Y-84305000D01*
X81935969Y-84305000D02*
X81971684Y-84328809D01*
X81971684Y-84328809D02*
X81995493Y-84352619D01*
X81995493Y-84352619D02*
X82007398Y-84376428D01*
X82043112Y-84090714D02*
X82031207Y-84114524D01*
X82031207Y-84114524D02*
X82019303Y-84126429D01*
X82019303Y-84126429D02*
X81995493Y-84138333D01*
X81995493Y-84138333D02*
X81983588Y-84138333D01*
X81983588Y-84138333D02*
X81959779Y-84126429D01*
X81959779Y-84126429D02*
X81947874Y-84114524D01*
X81947874Y-84114524D02*
X81935969Y-84090714D01*
X81935969Y-84090714D02*
X81935969Y-84043095D01*
X81935969Y-84043095D02*
X81947874Y-84019286D01*
X81947874Y-84019286D02*
X81959779Y-84007381D01*
X81959779Y-84007381D02*
X81983588Y-83995476D01*
X81983588Y-83995476D02*
X81995493Y-83995476D01*
X81995493Y-83995476D02*
X82019303Y-84007381D01*
X82019303Y-84007381D02*
X82031207Y-84019286D01*
X82031207Y-84019286D02*
X82043112Y-84043095D01*
X82043112Y-84043095D02*
X82043112Y-84090714D01*
X82043112Y-84090714D02*
X82055017Y-84114524D01*
X82055017Y-84114524D02*
X82066922Y-84126429D01*
X82066922Y-84126429D02*
X82090731Y-84138333D01*
X82090731Y-84138333D02*
X82138350Y-84138333D01*
X82138350Y-84138333D02*
X82162160Y-84126429D01*
X82162160Y-84126429D02*
X82174065Y-84114524D01*
X82174065Y-84114524D02*
X82185969Y-84090714D01*
X82185969Y-84090714D02*
X82185969Y-84043095D01*
X82185969Y-84043095D02*
X82174065Y-84019286D01*
X82174065Y-84019286D02*
X82162160Y-84007381D01*
X82162160Y-84007381D02*
X82138350Y-83995476D01*
X82138350Y-83995476D02*
X82090731Y-83995476D01*
X82090731Y-83995476D02*
X82066922Y-84007381D01*
X82066922Y-84007381D02*
X82055017Y-84019286D01*
X82055017Y-84019286D02*
X82043112Y-84043095D01*
X82029303Y-82565475D02*
X82231684Y-82565475D01*
X82231684Y-82565475D02*
X82255493Y-82577380D01*
X82255493Y-82577380D02*
X82267398Y-82589284D01*
X82267398Y-82589284D02*
X82279303Y-82613094D01*
X82279303Y-82613094D02*
X82279303Y-82648808D01*
X82279303Y-82648808D02*
X82267398Y-82672618D01*
X82184065Y-82565475D02*
X82195969Y-82589284D01*
X82195969Y-82589284D02*
X82195969Y-82636903D01*
X82195969Y-82636903D02*
X82184065Y-82660713D01*
X82184065Y-82660713D02*
X82172160Y-82672618D01*
X82172160Y-82672618D02*
X82148350Y-82684522D01*
X82148350Y-82684522D02*
X82076922Y-82684522D01*
X82076922Y-82684522D02*
X82053112Y-82672618D01*
X82053112Y-82672618D02*
X82041207Y-82660713D01*
X82041207Y-82660713D02*
X82029303Y-82636903D01*
X82029303Y-82636903D02*
X82029303Y-82589284D01*
X82029303Y-82589284D02*
X82041207Y-82565475D01*
X82029303Y-82446428D02*
X82279303Y-82446428D01*
X82041207Y-82446428D02*
X82029303Y-82422618D01*
X82029303Y-82422618D02*
X82029303Y-82374999D01*
X82029303Y-82374999D02*
X82041207Y-82351190D01*
X82041207Y-82351190D02*
X82053112Y-82339285D01*
X82053112Y-82339285D02*
X82076922Y-82327380D01*
X82076922Y-82327380D02*
X82148350Y-82327380D01*
X82148350Y-82327380D02*
X82172160Y-82339285D01*
X82172160Y-82339285D02*
X82184065Y-82351190D01*
X82184065Y-82351190D02*
X82195969Y-82374999D01*
X82195969Y-82374999D02*
X82195969Y-82422618D01*
X82195969Y-82422618D02*
X82184065Y-82446428D01*
X82195969Y-82220238D02*
X82029303Y-82220238D01*
X81945969Y-82220238D02*
X81957874Y-82232142D01*
X81957874Y-82232142D02*
X81969779Y-82220238D01*
X81969779Y-82220238D02*
X81957874Y-82208333D01*
X81957874Y-82208333D02*
X81945969Y-82220238D01*
X81945969Y-82220238D02*
X81969779Y-82220238D01*
X82195969Y-82065475D02*
X82184065Y-82089285D01*
X82184065Y-82089285D02*
X82172160Y-82101190D01*
X82172160Y-82101190D02*
X82148350Y-82113094D01*
X82148350Y-82113094D02*
X82076922Y-82113094D01*
X82076922Y-82113094D02*
X82053112Y-82101190D01*
X82053112Y-82101190D02*
X82041207Y-82089285D01*
X82041207Y-82089285D02*
X82029303Y-82065475D01*
X82029303Y-82065475D02*
X82029303Y-82029761D01*
X82029303Y-82029761D02*
X82041207Y-82005952D01*
X82041207Y-82005952D02*
X82053112Y-81994047D01*
X82053112Y-81994047D02*
X82076922Y-81982142D01*
X82076922Y-81982142D02*
X82148350Y-81982142D01*
X82148350Y-81982142D02*
X82172160Y-81994047D01*
X82172160Y-81994047D02*
X82184065Y-82005952D01*
X82184065Y-82005952D02*
X82195969Y-82029761D01*
X82195969Y-82029761D02*
X82195969Y-82065475D01*
X82195969Y-81553571D02*
X82195969Y-81696428D01*
X82195969Y-81625000D02*
X81945969Y-81625000D01*
X81945969Y-81625000D02*
X81981684Y-81648809D01*
X81981684Y-81648809D02*
X82005493Y-81672619D01*
X82005493Y-81672619D02*
X82017398Y-81696428D01*
X81945969Y-81470238D02*
X81945969Y-81303572D01*
X81945969Y-81303572D02*
X82195969Y-81410714D01*
X82029303Y-99472618D02*
X82231684Y-99472618D01*
X82231684Y-99472618D02*
X82255493Y-99484523D01*
X82255493Y-99484523D02*
X82267398Y-99496427D01*
X82267398Y-99496427D02*
X82279303Y-99520237D01*
X82279303Y-99520237D02*
X82279303Y-99555951D01*
X82279303Y-99555951D02*
X82267398Y-99579761D01*
X82184065Y-99472618D02*
X82195969Y-99496427D01*
X82195969Y-99496427D02*
X82195969Y-99544046D01*
X82195969Y-99544046D02*
X82184065Y-99567856D01*
X82184065Y-99567856D02*
X82172160Y-99579761D01*
X82172160Y-99579761D02*
X82148350Y-99591665D01*
X82148350Y-99591665D02*
X82076922Y-99591665D01*
X82076922Y-99591665D02*
X82053112Y-99579761D01*
X82053112Y-99579761D02*
X82041207Y-99567856D01*
X82041207Y-99567856D02*
X82029303Y-99544046D01*
X82029303Y-99544046D02*
X82029303Y-99496427D01*
X82029303Y-99496427D02*
X82041207Y-99472618D01*
X82029303Y-99353571D02*
X82195969Y-99353571D01*
X82053112Y-99353571D02*
X82041207Y-99341666D01*
X82041207Y-99341666D02*
X82029303Y-99317856D01*
X82029303Y-99317856D02*
X82029303Y-99282142D01*
X82029303Y-99282142D02*
X82041207Y-99258333D01*
X82041207Y-99258333D02*
X82065017Y-99246428D01*
X82065017Y-99246428D02*
X82195969Y-99246428D01*
X82195969Y-99020238D02*
X81945969Y-99020238D01*
X82184065Y-99020238D02*
X82195969Y-99044047D01*
X82195969Y-99044047D02*
X82195969Y-99091666D01*
X82195969Y-99091666D02*
X82184065Y-99115476D01*
X82184065Y-99115476D02*
X82172160Y-99127381D01*
X82172160Y-99127381D02*
X82148350Y-99139285D01*
X82148350Y-99139285D02*
X82076922Y-99139285D01*
X82076922Y-99139285D02*
X82053112Y-99127381D01*
X82053112Y-99127381D02*
X82041207Y-99115476D01*
X82041207Y-99115476D02*
X82029303Y-99091666D01*
X82029303Y-99091666D02*
X82029303Y-99044047D01*
X82029303Y-99044047D02*
X82041207Y-99020238D01*
X82039303Y-79685475D02*
X82241684Y-79685475D01*
X82241684Y-79685475D02*
X82265493Y-79697380D01*
X82265493Y-79697380D02*
X82277398Y-79709284D01*
X82277398Y-79709284D02*
X82289303Y-79733094D01*
X82289303Y-79733094D02*
X82289303Y-79768808D01*
X82289303Y-79768808D02*
X82277398Y-79792618D01*
X82194065Y-79685475D02*
X82205969Y-79709284D01*
X82205969Y-79709284D02*
X82205969Y-79756903D01*
X82205969Y-79756903D02*
X82194065Y-79780713D01*
X82194065Y-79780713D02*
X82182160Y-79792618D01*
X82182160Y-79792618D02*
X82158350Y-79804522D01*
X82158350Y-79804522D02*
X82086922Y-79804522D01*
X82086922Y-79804522D02*
X82063112Y-79792618D01*
X82063112Y-79792618D02*
X82051207Y-79780713D01*
X82051207Y-79780713D02*
X82039303Y-79756903D01*
X82039303Y-79756903D02*
X82039303Y-79709284D01*
X82039303Y-79709284D02*
X82051207Y-79685475D01*
X82039303Y-79566428D02*
X82289303Y-79566428D01*
X82051207Y-79566428D02*
X82039303Y-79542618D01*
X82039303Y-79542618D02*
X82039303Y-79494999D01*
X82039303Y-79494999D02*
X82051207Y-79471190D01*
X82051207Y-79471190D02*
X82063112Y-79459285D01*
X82063112Y-79459285D02*
X82086922Y-79447380D01*
X82086922Y-79447380D02*
X82158350Y-79447380D01*
X82158350Y-79447380D02*
X82182160Y-79459285D01*
X82182160Y-79459285D02*
X82194065Y-79471190D01*
X82194065Y-79471190D02*
X82205969Y-79494999D01*
X82205969Y-79494999D02*
X82205969Y-79542618D01*
X82205969Y-79542618D02*
X82194065Y-79566428D01*
X82205969Y-79340238D02*
X82039303Y-79340238D01*
X81955969Y-79340238D02*
X81967874Y-79352142D01*
X81967874Y-79352142D02*
X81979779Y-79340238D01*
X81979779Y-79340238D02*
X81967874Y-79328333D01*
X81967874Y-79328333D02*
X81955969Y-79340238D01*
X81955969Y-79340238D02*
X81979779Y-79340238D01*
X82205969Y-79185475D02*
X82194065Y-79209285D01*
X82194065Y-79209285D02*
X82182160Y-79221190D01*
X82182160Y-79221190D02*
X82158350Y-79233094D01*
X82158350Y-79233094D02*
X82086922Y-79233094D01*
X82086922Y-79233094D02*
X82063112Y-79221190D01*
X82063112Y-79221190D02*
X82051207Y-79209285D01*
X82051207Y-79209285D02*
X82039303Y-79185475D01*
X82039303Y-79185475D02*
X82039303Y-79149761D01*
X82039303Y-79149761D02*
X82051207Y-79125952D01*
X82051207Y-79125952D02*
X82063112Y-79114047D01*
X82063112Y-79114047D02*
X82086922Y-79102142D01*
X82086922Y-79102142D02*
X82158350Y-79102142D01*
X82158350Y-79102142D02*
X82182160Y-79114047D01*
X82182160Y-79114047D02*
X82194065Y-79125952D01*
X82194065Y-79125952D02*
X82205969Y-79149761D01*
X82205969Y-79149761D02*
X82205969Y-79185475D01*
X82205969Y-78673571D02*
X82205969Y-78816428D01*
X82205969Y-78745000D02*
X81955969Y-78745000D01*
X81955969Y-78745000D02*
X81991684Y-78768809D01*
X81991684Y-78768809D02*
X82015493Y-78792619D01*
X82015493Y-78792619D02*
X82027398Y-78816428D01*
X81955969Y-78459286D02*
X81955969Y-78506905D01*
X81955969Y-78506905D02*
X81967874Y-78530714D01*
X81967874Y-78530714D02*
X81979779Y-78542619D01*
X81979779Y-78542619D02*
X82015493Y-78566429D01*
X82015493Y-78566429D02*
X82063112Y-78578333D01*
X82063112Y-78578333D02*
X82158350Y-78578333D01*
X82158350Y-78578333D02*
X82182160Y-78566429D01*
X82182160Y-78566429D02*
X82194065Y-78554524D01*
X82194065Y-78554524D02*
X82205969Y-78530714D01*
X82205969Y-78530714D02*
X82205969Y-78483095D01*
X82205969Y-78483095D02*
X82194065Y-78459286D01*
X82194065Y-78459286D02*
X82182160Y-78447381D01*
X82182160Y-78447381D02*
X82158350Y-78435476D01*
X82158350Y-78435476D02*
X82098826Y-78435476D01*
X82098826Y-78435476D02*
X82075017Y-78447381D01*
X82075017Y-78447381D02*
X82063112Y-78459286D01*
X82063112Y-78459286D02*
X82051207Y-78483095D01*
X82051207Y-78483095D02*
X82051207Y-78530714D01*
X82051207Y-78530714D02*
X82063112Y-78554524D01*
X82063112Y-78554524D02*
X82075017Y-78566429D01*
X82075017Y-78566429D02*
X82098826Y-78578333D01*
X82039303Y-111675475D02*
X82241684Y-111675475D01*
X82241684Y-111675475D02*
X82265493Y-111687380D01*
X82265493Y-111687380D02*
X82277398Y-111699284D01*
X82277398Y-111699284D02*
X82289303Y-111723094D01*
X82289303Y-111723094D02*
X82289303Y-111758808D01*
X82289303Y-111758808D02*
X82277398Y-111782618D01*
X82194065Y-111675475D02*
X82205969Y-111699284D01*
X82205969Y-111699284D02*
X82205969Y-111746903D01*
X82205969Y-111746903D02*
X82194065Y-111770713D01*
X82194065Y-111770713D02*
X82182160Y-111782618D01*
X82182160Y-111782618D02*
X82158350Y-111794522D01*
X82158350Y-111794522D02*
X82086922Y-111794522D01*
X82086922Y-111794522D02*
X82063112Y-111782618D01*
X82063112Y-111782618D02*
X82051207Y-111770713D01*
X82051207Y-111770713D02*
X82039303Y-111746903D01*
X82039303Y-111746903D02*
X82039303Y-111699284D01*
X82039303Y-111699284D02*
X82051207Y-111675475D01*
X82039303Y-111556428D02*
X82289303Y-111556428D01*
X82051207Y-111556428D02*
X82039303Y-111532618D01*
X82039303Y-111532618D02*
X82039303Y-111484999D01*
X82039303Y-111484999D02*
X82051207Y-111461190D01*
X82051207Y-111461190D02*
X82063112Y-111449285D01*
X82063112Y-111449285D02*
X82086922Y-111437380D01*
X82086922Y-111437380D02*
X82158350Y-111437380D01*
X82158350Y-111437380D02*
X82182160Y-111449285D01*
X82182160Y-111449285D02*
X82194065Y-111461190D01*
X82194065Y-111461190D02*
X82205969Y-111484999D01*
X82205969Y-111484999D02*
X82205969Y-111532618D01*
X82205969Y-111532618D02*
X82194065Y-111556428D01*
X82205969Y-111330238D02*
X82039303Y-111330238D01*
X81955969Y-111330238D02*
X81967874Y-111342142D01*
X81967874Y-111342142D02*
X81979779Y-111330238D01*
X81979779Y-111330238D02*
X81967874Y-111318333D01*
X81967874Y-111318333D02*
X81955969Y-111330238D01*
X81955969Y-111330238D02*
X81979779Y-111330238D01*
X82205969Y-111175475D02*
X82194065Y-111199285D01*
X82194065Y-111199285D02*
X82182160Y-111211190D01*
X82182160Y-111211190D02*
X82158350Y-111223094D01*
X82158350Y-111223094D02*
X82086922Y-111223094D01*
X82086922Y-111223094D02*
X82063112Y-111211190D01*
X82063112Y-111211190D02*
X82051207Y-111199285D01*
X82051207Y-111199285D02*
X82039303Y-111175475D01*
X82039303Y-111175475D02*
X82039303Y-111139761D01*
X82039303Y-111139761D02*
X82051207Y-111115952D01*
X82051207Y-111115952D02*
X82063112Y-111104047D01*
X82063112Y-111104047D02*
X82086922Y-111092142D01*
X82086922Y-111092142D02*
X82158350Y-111092142D01*
X82158350Y-111092142D02*
X82182160Y-111104047D01*
X82182160Y-111104047D02*
X82194065Y-111115952D01*
X82194065Y-111115952D02*
X82205969Y-111139761D01*
X82205969Y-111139761D02*
X82205969Y-111175475D01*
X81979779Y-110806428D02*
X81967874Y-110794524D01*
X81967874Y-110794524D02*
X81955969Y-110770714D01*
X81955969Y-110770714D02*
X81955969Y-110711190D01*
X81955969Y-110711190D02*
X81967874Y-110687381D01*
X81967874Y-110687381D02*
X81979779Y-110675476D01*
X81979779Y-110675476D02*
X82003588Y-110663571D01*
X82003588Y-110663571D02*
X82027398Y-110663571D01*
X82027398Y-110663571D02*
X82063112Y-110675476D01*
X82063112Y-110675476D02*
X82205969Y-110818333D01*
X82205969Y-110818333D02*
X82205969Y-110663571D01*
X81955969Y-110449286D02*
X81955969Y-110496905D01*
X81955969Y-110496905D02*
X81967874Y-110520714D01*
X81967874Y-110520714D02*
X81979779Y-110532619D01*
X81979779Y-110532619D02*
X82015493Y-110556429D01*
X82015493Y-110556429D02*
X82063112Y-110568333D01*
X82063112Y-110568333D02*
X82158350Y-110568333D01*
X82158350Y-110568333D02*
X82182160Y-110556429D01*
X82182160Y-110556429D02*
X82194065Y-110544524D01*
X82194065Y-110544524D02*
X82205969Y-110520714D01*
X82205969Y-110520714D02*
X82205969Y-110473095D01*
X82205969Y-110473095D02*
X82194065Y-110449286D01*
X82194065Y-110449286D02*
X82182160Y-110437381D01*
X82182160Y-110437381D02*
X82158350Y-110425476D01*
X82158350Y-110425476D02*
X82098826Y-110425476D01*
X82098826Y-110425476D02*
X82075017Y-110437381D01*
X82075017Y-110437381D02*
X82063112Y-110449286D01*
X82063112Y-110449286D02*
X82051207Y-110473095D01*
X82051207Y-110473095D02*
X82051207Y-110520714D01*
X82051207Y-110520714D02*
X82063112Y-110544524D01*
X82063112Y-110544524D02*
X82075017Y-110556429D01*
X82075017Y-110556429D02*
X82098826Y-110568333D01*
X81980969Y-70863094D02*
X81980969Y-70708332D01*
X81980969Y-70708332D02*
X82076207Y-70791666D01*
X82076207Y-70791666D02*
X82076207Y-70755951D01*
X82076207Y-70755951D02*
X82088112Y-70732142D01*
X82088112Y-70732142D02*
X82100017Y-70720237D01*
X82100017Y-70720237D02*
X82123826Y-70708332D01*
X82123826Y-70708332D02*
X82183350Y-70708332D01*
X82183350Y-70708332D02*
X82207160Y-70720237D01*
X82207160Y-70720237D02*
X82219065Y-70732142D01*
X82219065Y-70732142D02*
X82230969Y-70755951D01*
X82230969Y-70755951D02*
X82230969Y-70827380D01*
X82230969Y-70827380D02*
X82219065Y-70851189D01*
X82219065Y-70851189D02*
X82207160Y-70863094D01*
X82064303Y-70624999D02*
X82230969Y-70565475D01*
X82230969Y-70565475D02*
X82064303Y-70505952D01*
X81980969Y-70434523D02*
X81980969Y-70279761D01*
X81980969Y-70279761D02*
X82076207Y-70363095D01*
X82076207Y-70363095D02*
X82076207Y-70327380D01*
X82076207Y-70327380D02*
X82088112Y-70303571D01*
X82088112Y-70303571D02*
X82100017Y-70291666D01*
X82100017Y-70291666D02*
X82123826Y-70279761D01*
X82123826Y-70279761D02*
X82183350Y-70279761D01*
X82183350Y-70279761D02*
X82207160Y-70291666D01*
X82207160Y-70291666D02*
X82219065Y-70303571D01*
X82219065Y-70303571D02*
X82230969Y-70327380D01*
X82230969Y-70327380D02*
X82230969Y-70398809D01*
X82230969Y-70398809D02*
X82219065Y-70422618D01*
X82219065Y-70422618D02*
X82207160Y-70434523D01*
X82219065Y-69886905D02*
X82230969Y-69910714D01*
X82230969Y-69910714D02*
X82230969Y-69958333D01*
X82230969Y-69958333D02*
X82219065Y-69982143D01*
X82219065Y-69982143D02*
X82195255Y-69994047D01*
X82195255Y-69994047D02*
X82100017Y-69994047D01*
X82100017Y-69994047D02*
X82076207Y-69982143D01*
X82076207Y-69982143D02*
X82064303Y-69958333D01*
X82064303Y-69958333D02*
X82064303Y-69910714D01*
X82064303Y-69910714D02*
X82076207Y-69886905D01*
X82076207Y-69886905D02*
X82100017Y-69875000D01*
X82100017Y-69875000D02*
X82123826Y-69875000D01*
X82123826Y-69875000D02*
X82147636Y-69994047D01*
X82064303Y-69767857D02*
X82230969Y-69767857D01*
X82088112Y-69767857D02*
X82076207Y-69755952D01*
X82076207Y-69755952D02*
X82064303Y-69732142D01*
X82064303Y-69732142D02*
X82064303Y-69696428D01*
X82064303Y-69696428D02*
X82076207Y-69672619D01*
X82076207Y-69672619D02*
X82100017Y-69660714D01*
X82100017Y-69660714D02*
X82230969Y-69660714D01*
X82235969Y-73463094D02*
X82105017Y-73463094D01*
X82105017Y-73463094D02*
X82081207Y-73474999D01*
X82081207Y-73474999D02*
X82069303Y-73498808D01*
X82069303Y-73498808D02*
X82069303Y-73546427D01*
X82069303Y-73546427D02*
X82081207Y-73570237D01*
X82224065Y-73463094D02*
X82235969Y-73486903D01*
X82235969Y-73486903D02*
X82235969Y-73546427D01*
X82235969Y-73546427D02*
X82224065Y-73570237D01*
X82224065Y-73570237D02*
X82200255Y-73582141D01*
X82200255Y-73582141D02*
X82176445Y-73582141D01*
X82176445Y-73582141D02*
X82152636Y-73570237D01*
X82152636Y-73570237D02*
X82140731Y-73546427D01*
X82140731Y-73546427D02*
X82140731Y-73486903D01*
X82140731Y-73486903D02*
X82128826Y-73463094D01*
X82235969Y-73236904D02*
X81985969Y-73236904D01*
X82224065Y-73236904D02*
X82235969Y-73260713D01*
X82235969Y-73260713D02*
X82235969Y-73308332D01*
X82235969Y-73308332D02*
X82224065Y-73332142D01*
X82224065Y-73332142D02*
X82212160Y-73344047D01*
X82212160Y-73344047D02*
X82188350Y-73355951D01*
X82188350Y-73355951D02*
X82116922Y-73355951D01*
X82116922Y-73355951D02*
X82093112Y-73344047D01*
X82093112Y-73344047D02*
X82081207Y-73332142D01*
X82081207Y-73332142D02*
X82069303Y-73308332D01*
X82069303Y-73308332D02*
X82069303Y-73260713D01*
X82069303Y-73260713D02*
X82081207Y-73236904D01*
X82224065Y-73010714D02*
X82235969Y-73034523D01*
X82235969Y-73034523D02*
X82235969Y-73082142D01*
X82235969Y-73082142D02*
X82224065Y-73105952D01*
X82224065Y-73105952D02*
X82212160Y-73117857D01*
X82212160Y-73117857D02*
X82188350Y-73129761D01*
X82188350Y-73129761D02*
X82116922Y-73129761D01*
X82116922Y-73129761D02*
X82093112Y-73117857D01*
X82093112Y-73117857D02*
X82081207Y-73105952D01*
X82081207Y-73105952D02*
X82069303Y-73082142D01*
X82069303Y-73082142D02*
X82069303Y-73034523D01*
X82069303Y-73034523D02*
X82081207Y-73010714D01*
X82069303Y-72736904D02*
X82235969Y-72677380D01*
X82235969Y-72677380D02*
X82069303Y-72617857D01*
X82235969Y-72522619D02*
X82069303Y-72522619D01*
X82116922Y-72522619D02*
X82093112Y-72510714D01*
X82093112Y-72510714D02*
X82081207Y-72498809D01*
X82081207Y-72498809D02*
X82069303Y-72475000D01*
X82069303Y-72475000D02*
X82069303Y-72451190D01*
X82224065Y-72272619D02*
X82235969Y-72296428D01*
X82235969Y-72296428D02*
X82235969Y-72344047D01*
X82235969Y-72344047D02*
X82224065Y-72367857D01*
X82224065Y-72367857D02*
X82200255Y-72379761D01*
X82200255Y-72379761D02*
X82105017Y-72379761D01*
X82105017Y-72379761D02*
X82081207Y-72367857D01*
X82081207Y-72367857D02*
X82069303Y-72344047D01*
X82069303Y-72344047D02*
X82069303Y-72296428D01*
X82069303Y-72296428D02*
X82081207Y-72272619D01*
X82081207Y-72272619D02*
X82105017Y-72260714D01*
X82105017Y-72260714D02*
X82128826Y-72260714D01*
X82128826Y-72260714D02*
X82152636Y-72379761D01*
X82069303Y-72189285D02*
X82069303Y-72094047D01*
X82235969Y-72153571D02*
X82021684Y-72153571D01*
X82021684Y-72153571D02*
X81997874Y-72141666D01*
X81997874Y-72141666D02*
X81985969Y-72117856D01*
X81985969Y-72117856D02*
X81985969Y-72094047D01*
X82079303Y-76212618D02*
X82281684Y-76212618D01*
X82281684Y-76212618D02*
X82305493Y-76224523D01*
X82305493Y-76224523D02*
X82317398Y-76236427D01*
X82317398Y-76236427D02*
X82329303Y-76260237D01*
X82329303Y-76260237D02*
X82329303Y-76295951D01*
X82329303Y-76295951D02*
X82317398Y-76319761D01*
X82234065Y-76212618D02*
X82245969Y-76236427D01*
X82245969Y-76236427D02*
X82245969Y-76284046D01*
X82245969Y-76284046D02*
X82234065Y-76307856D01*
X82234065Y-76307856D02*
X82222160Y-76319761D01*
X82222160Y-76319761D02*
X82198350Y-76331665D01*
X82198350Y-76331665D02*
X82126922Y-76331665D01*
X82126922Y-76331665D02*
X82103112Y-76319761D01*
X82103112Y-76319761D02*
X82091207Y-76307856D01*
X82091207Y-76307856D02*
X82079303Y-76284046D01*
X82079303Y-76284046D02*
X82079303Y-76236427D01*
X82079303Y-76236427D02*
X82091207Y-76212618D01*
X82079303Y-76093571D02*
X82245969Y-76093571D01*
X82103112Y-76093571D02*
X82091207Y-76081666D01*
X82091207Y-76081666D02*
X82079303Y-76057856D01*
X82079303Y-76057856D02*
X82079303Y-76022142D01*
X82079303Y-76022142D02*
X82091207Y-75998333D01*
X82091207Y-75998333D02*
X82115017Y-75986428D01*
X82115017Y-75986428D02*
X82245969Y-75986428D01*
X82245969Y-75760238D02*
X81995969Y-75760238D01*
X82234065Y-75760238D02*
X82245969Y-75784047D01*
X82245969Y-75784047D02*
X82245969Y-75831666D01*
X82245969Y-75831666D02*
X82234065Y-75855476D01*
X82234065Y-75855476D02*
X82222160Y-75867381D01*
X82222160Y-75867381D02*
X82198350Y-75879285D01*
X82198350Y-75879285D02*
X82126922Y-75879285D01*
X82126922Y-75879285D02*
X82103112Y-75867381D01*
X82103112Y-75867381D02*
X82091207Y-75855476D01*
X82091207Y-75855476D02*
X82079303Y-75831666D01*
X82079303Y-75831666D02*
X82079303Y-75784047D01*
X82079303Y-75784047D02*
X82091207Y-75760238D01*
X82079303Y-93685475D02*
X82281684Y-93685475D01*
X82281684Y-93685475D02*
X82305493Y-93697380D01*
X82305493Y-93697380D02*
X82317398Y-93709284D01*
X82317398Y-93709284D02*
X82329303Y-93733094D01*
X82329303Y-93733094D02*
X82329303Y-93768808D01*
X82329303Y-93768808D02*
X82317398Y-93792618D01*
X82234065Y-93685475D02*
X82245969Y-93709284D01*
X82245969Y-93709284D02*
X82245969Y-93756903D01*
X82245969Y-93756903D02*
X82234065Y-93780713D01*
X82234065Y-93780713D02*
X82222160Y-93792618D01*
X82222160Y-93792618D02*
X82198350Y-93804522D01*
X82198350Y-93804522D02*
X82126922Y-93804522D01*
X82126922Y-93804522D02*
X82103112Y-93792618D01*
X82103112Y-93792618D02*
X82091207Y-93780713D01*
X82091207Y-93780713D02*
X82079303Y-93756903D01*
X82079303Y-93756903D02*
X82079303Y-93709284D01*
X82079303Y-93709284D02*
X82091207Y-93685475D01*
X82079303Y-93566428D02*
X82329303Y-93566428D01*
X82091207Y-93566428D02*
X82079303Y-93542618D01*
X82079303Y-93542618D02*
X82079303Y-93494999D01*
X82079303Y-93494999D02*
X82091207Y-93471190D01*
X82091207Y-93471190D02*
X82103112Y-93459285D01*
X82103112Y-93459285D02*
X82126922Y-93447380D01*
X82126922Y-93447380D02*
X82198350Y-93447380D01*
X82198350Y-93447380D02*
X82222160Y-93459285D01*
X82222160Y-93459285D02*
X82234065Y-93471190D01*
X82234065Y-93471190D02*
X82245969Y-93494999D01*
X82245969Y-93494999D02*
X82245969Y-93542618D01*
X82245969Y-93542618D02*
X82234065Y-93566428D01*
X82245969Y-93340238D02*
X82079303Y-93340238D01*
X81995969Y-93340238D02*
X82007874Y-93352142D01*
X82007874Y-93352142D02*
X82019779Y-93340238D01*
X82019779Y-93340238D02*
X82007874Y-93328333D01*
X82007874Y-93328333D02*
X81995969Y-93340238D01*
X81995969Y-93340238D02*
X82019779Y-93340238D01*
X82245969Y-93185475D02*
X82234065Y-93209285D01*
X82234065Y-93209285D02*
X82222160Y-93221190D01*
X82222160Y-93221190D02*
X82198350Y-93233094D01*
X82198350Y-93233094D02*
X82126922Y-93233094D01*
X82126922Y-93233094D02*
X82103112Y-93221190D01*
X82103112Y-93221190D02*
X82091207Y-93209285D01*
X82091207Y-93209285D02*
X82079303Y-93185475D01*
X82079303Y-93185475D02*
X82079303Y-93149761D01*
X82079303Y-93149761D02*
X82091207Y-93125952D01*
X82091207Y-93125952D02*
X82103112Y-93114047D01*
X82103112Y-93114047D02*
X82126922Y-93102142D01*
X82126922Y-93102142D02*
X82198350Y-93102142D01*
X82198350Y-93102142D02*
X82222160Y-93114047D01*
X82222160Y-93114047D02*
X82234065Y-93125952D01*
X82234065Y-93125952D02*
X82245969Y-93149761D01*
X82245969Y-93149761D02*
X82245969Y-93185475D01*
X82019779Y-92816428D02*
X82007874Y-92804524D01*
X82007874Y-92804524D02*
X81995969Y-92780714D01*
X81995969Y-92780714D02*
X81995969Y-92721190D01*
X81995969Y-92721190D02*
X82007874Y-92697381D01*
X82007874Y-92697381D02*
X82019779Y-92685476D01*
X82019779Y-92685476D02*
X82043588Y-92673571D01*
X82043588Y-92673571D02*
X82067398Y-92673571D01*
X82067398Y-92673571D02*
X82103112Y-92685476D01*
X82103112Y-92685476D02*
X82245969Y-92828333D01*
X82245969Y-92828333D02*
X82245969Y-92673571D01*
X82245969Y-92435476D02*
X82245969Y-92578333D01*
X82245969Y-92506905D02*
X81995969Y-92506905D01*
X81995969Y-92506905D02*
X82031684Y-92530714D01*
X82031684Y-92530714D02*
X82055493Y-92554524D01*
X82055493Y-92554524D02*
X82067398Y-92578333D01*
X82139303Y-67557142D02*
X82305969Y-67497618D01*
X82305969Y-67497618D02*
X82139303Y-67438095D01*
X82294065Y-67354761D02*
X82305969Y-67330952D01*
X82305969Y-67330952D02*
X82305969Y-67283333D01*
X82305969Y-67283333D02*
X82294065Y-67259523D01*
X82294065Y-67259523D02*
X82270255Y-67247619D01*
X82270255Y-67247619D02*
X82258350Y-67247619D01*
X82258350Y-67247619D02*
X82234541Y-67259523D01*
X82234541Y-67259523D02*
X82222636Y-67283333D01*
X82222636Y-67283333D02*
X82222636Y-67319047D01*
X82222636Y-67319047D02*
X82210731Y-67342857D01*
X82210731Y-67342857D02*
X82186922Y-67354761D01*
X82186922Y-67354761D02*
X82175017Y-67354761D01*
X82175017Y-67354761D02*
X82151207Y-67342857D01*
X82151207Y-67342857D02*
X82139303Y-67319047D01*
X82139303Y-67319047D02*
X82139303Y-67283333D01*
X82139303Y-67283333D02*
X82151207Y-67259523D01*
X82139303Y-67164285D02*
X82305969Y-67104761D01*
X82139303Y-67045238D02*
X82305969Y-67104761D01*
X82305969Y-67104761D02*
X82365493Y-67128571D01*
X82365493Y-67128571D02*
X82377398Y-67140476D01*
X82377398Y-67140476D02*
X82389303Y-67164285D01*
X82294065Y-66961904D02*
X82305969Y-66938095D01*
X82305969Y-66938095D02*
X82305969Y-66890476D01*
X82305969Y-66890476D02*
X82294065Y-66866666D01*
X82294065Y-66866666D02*
X82270255Y-66854762D01*
X82270255Y-66854762D02*
X82258350Y-66854762D01*
X82258350Y-66854762D02*
X82234541Y-66866666D01*
X82234541Y-66866666D02*
X82222636Y-66890476D01*
X82222636Y-66890476D02*
X82222636Y-66926190D01*
X82222636Y-66926190D02*
X82210731Y-66950000D01*
X82210731Y-66950000D02*
X82186922Y-66961904D01*
X82186922Y-66961904D02*
X82175017Y-66961904D01*
X82175017Y-66961904D02*
X82151207Y-66950000D01*
X82151207Y-66950000D02*
X82139303Y-66926190D01*
X82139303Y-66926190D02*
X82139303Y-66890476D01*
X82139303Y-66890476D02*
X82151207Y-66866666D01*
X82179303Y-90695475D02*
X82381684Y-90695475D01*
X82381684Y-90695475D02*
X82405493Y-90707380D01*
X82405493Y-90707380D02*
X82417398Y-90719284D01*
X82417398Y-90719284D02*
X82429303Y-90743094D01*
X82429303Y-90743094D02*
X82429303Y-90778808D01*
X82429303Y-90778808D02*
X82417398Y-90802618D01*
X82334065Y-90695475D02*
X82345969Y-90719284D01*
X82345969Y-90719284D02*
X82345969Y-90766903D01*
X82345969Y-90766903D02*
X82334065Y-90790713D01*
X82334065Y-90790713D02*
X82322160Y-90802618D01*
X82322160Y-90802618D02*
X82298350Y-90814522D01*
X82298350Y-90814522D02*
X82226922Y-90814522D01*
X82226922Y-90814522D02*
X82203112Y-90802618D01*
X82203112Y-90802618D02*
X82191207Y-90790713D01*
X82191207Y-90790713D02*
X82179303Y-90766903D01*
X82179303Y-90766903D02*
X82179303Y-90719284D01*
X82179303Y-90719284D02*
X82191207Y-90695475D01*
X82179303Y-90576428D02*
X82429303Y-90576428D01*
X82191207Y-90576428D02*
X82179303Y-90552618D01*
X82179303Y-90552618D02*
X82179303Y-90504999D01*
X82179303Y-90504999D02*
X82191207Y-90481190D01*
X82191207Y-90481190D02*
X82203112Y-90469285D01*
X82203112Y-90469285D02*
X82226922Y-90457380D01*
X82226922Y-90457380D02*
X82298350Y-90457380D01*
X82298350Y-90457380D02*
X82322160Y-90469285D01*
X82322160Y-90469285D02*
X82334065Y-90481190D01*
X82334065Y-90481190D02*
X82345969Y-90504999D01*
X82345969Y-90504999D02*
X82345969Y-90552618D01*
X82345969Y-90552618D02*
X82334065Y-90576428D01*
X82345969Y-90350238D02*
X82179303Y-90350238D01*
X82095969Y-90350238D02*
X82107874Y-90362142D01*
X82107874Y-90362142D02*
X82119779Y-90350238D01*
X82119779Y-90350238D02*
X82107874Y-90338333D01*
X82107874Y-90338333D02*
X82095969Y-90350238D01*
X82095969Y-90350238D02*
X82119779Y-90350238D01*
X82345969Y-90195475D02*
X82334065Y-90219285D01*
X82334065Y-90219285D02*
X82322160Y-90231190D01*
X82322160Y-90231190D02*
X82298350Y-90243094D01*
X82298350Y-90243094D02*
X82226922Y-90243094D01*
X82226922Y-90243094D02*
X82203112Y-90231190D01*
X82203112Y-90231190D02*
X82191207Y-90219285D01*
X82191207Y-90219285D02*
X82179303Y-90195475D01*
X82179303Y-90195475D02*
X82179303Y-90159761D01*
X82179303Y-90159761D02*
X82191207Y-90135952D01*
X82191207Y-90135952D02*
X82203112Y-90124047D01*
X82203112Y-90124047D02*
X82226922Y-90112142D01*
X82226922Y-90112142D02*
X82298350Y-90112142D01*
X82298350Y-90112142D02*
X82322160Y-90124047D01*
X82322160Y-90124047D02*
X82334065Y-90135952D01*
X82334065Y-90135952D02*
X82345969Y-90159761D01*
X82345969Y-90159761D02*
X82345969Y-90195475D01*
X82119779Y-89826428D02*
X82107874Y-89814524D01*
X82107874Y-89814524D02*
X82095969Y-89790714D01*
X82095969Y-89790714D02*
X82095969Y-89731190D01*
X82095969Y-89731190D02*
X82107874Y-89707381D01*
X82107874Y-89707381D02*
X82119779Y-89695476D01*
X82119779Y-89695476D02*
X82143588Y-89683571D01*
X82143588Y-89683571D02*
X82167398Y-89683571D01*
X82167398Y-89683571D02*
X82203112Y-89695476D01*
X82203112Y-89695476D02*
X82345969Y-89838333D01*
X82345969Y-89838333D02*
X82345969Y-89683571D01*
X82095969Y-89528810D02*
X82095969Y-89505000D01*
X82095969Y-89505000D02*
X82107874Y-89481191D01*
X82107874Y-89481191D02*
X82119779Y-89469286D01*
X82119779Y-89469286D02*
X82143588Y-89457381D01*
X82143588Y-89457381D02*
X82191207Y-89445476D01*
X82191207Y-89445476D02*
X82250731Y-89445476D01*
X82250731Y-89445476D02*
X82298350Y-89457381D01*
X82298350Y-89457381D02*
X82322160Y-89469286D01*
X82322160Y-89469286D02*
X82334065Y-89481191D01*
X82334065Y-89481191D02*
X82345969Y-89505000D01*
X82345969Y-89505000D02*
X82345969Y-89528810D01*
X82345969Y-89528810D02*
X82334065Y-89552619D01*
X82334065Y-89552619D02*
X82322160Y-89564524D01*
X82322160Y-89564524D02*
X82298350Y-89576429D01*
X82298350Y-89576429D02*
X82250731Y-89588333D01*
X82250731Y-89588333D02*
X82191207Y-89588333D01*
X82191207Y-89588333D02*
X82143588Y-89576429D01*
X82143588Y-89576429D02*
X82119779Y-89564524D01*
X82119779Y-89564524D02*
X82107874Y-89552619D01*
X82107874Y-89552619D02*
X82095969Y-89528810D01*
X82189303Y-96825475D02*
X82391684Y-96825475D01*
X82391684Y-96825475D02*
X82415493Y-96837380D01*
X82415493Y-96837380D02*
X82427398Y-96849284D01*
X82427398Y-96849284D02*
X82439303Y-96873094D01*
X82439303Y-96873094D02*
X82439303Y-96908808D01*
X82439303Y-96908808D02*
X82427398Y-96932618D01*
X82344065Y-96825475D02*
X82355969Y-96849284D01*
X82355969Y-96849284D02*
X82355969Y-96896903D01*
X82355969Y-96896903D02*
X82344065Y-96920713D01*
X82344065Y-96920713D02*
X82332160Y-96932618D01*
X82332160Y-96932618D02*
X82308350Y-96944522D01*
X82308350Y-96944522D02*
X82236922Y-96944522D01*
X82236922Y-96944522D02*
X82213112Y-96932618D01*
X82213112Y-96932618D02*
X82201207Y-96920713D01*
X82201207Y-96920713D02*
X82189303Y-96896903D01*
X82189303Y-96896903D02*
X82189303Y-96849284D01*
X82189303Y-96849284D02*
X82201207Y-96825475D01*
X82189303Y-96706428D02*
X82439303Y-96706428D01*
X82201207Y-96706428D02*
X82189303Y-96682618D01*
X82189303Y-96682618D02*
X82189303Y-96634999D01*
X82189303Y-96634999D02*
X82201207Y-96611190D01*
X82201207Y-96611190D02*
X82213112Y-96599285D01*
X82213112Y-96599285D02*
X82236922Y-96587380D01*
X82236922Y-96587380D02*
X82308350Y-96587380D01*
X82308350Y-96587380D02*
X82332160Y-96599285D01*
X82332160Y-96599285D02*
X82344065Y-96611190D01*
X82344065Y-96611190D02*
X82355969Y-96634999D01*
X82355969Y-96634999D02*
X82355969Y-96682618D01*
X82355969Y-96682618D02*
X82344065Y-96706428D01*
X82355969Y-96480238D02*
X82189303Y-96480238D01*
X82105969Y-96480238D02*
X82117874Y-96492142D01*
X82117874Y-96492142D02*
X82129779Y-96480238D01*
X82129779Y-96480238D02*
X82117874Y-96468333D01*
X82117874Y-96468333D02*
X82105969Y-96480238D01*
X82105969Y-96480238D02*
X82129779Y-96480238D01*
X82355969Y-96325475D02*
X82344065Y-96349285D01*
X82344065Y-96349285D02*
X82332160Y-96361190D01*
X82332160Y-96361190D02*
X82308350Y-96373094D01*
X82308350Y-96373094D02*
X82236922Y-96373094D01*
X82236922Y-96373094D02*
X82213112Y-96361190D01*
X82213112Y-96361190D02*
X82201207Y-96349285D01*
X82201207Y-96349285D02*
X82189303Y-96325475D01*
X82189303Y-96325475D02*
X82189303Y-96289761D01*
X82189303Y-96289761D02*
X82201207Y-96265952D01*
X82201207Y-96265952D02*
X82213112Y-96254047D01*
X82213112Y-96254047D02*
X82236922Y-96242142D01*
X82236922Y-96242142D02*
X82308350Y-96242142D01*
X82308350Y-96242142D02*
X82332160Y-96254047D01*
X82332160Y-96254047D02*
X82344065Y-96265952D01*
X82344065Y-96265952D02*
X82355969Y-96289761D01*
X82355969Y-96289761D02*
X82355969Y-96325475D01*
X82129779Y-95956428D02*
X82117874Y-95944524D01*
X82117874Y-95944524D02*
X82105969Y-95920714D01*
X82105969Y-95920714D02*
X82105969Y-95861190D01*
X82105969Y-95861190D02*
X82117874Y-95837381D01*
X82117874Y-95837381D02*
X82129779Y-95825476D01*
X82129779Y-95825476D02*
X82153588Y-95813571D01*
X82153588Y-95813571D02*
X82177398Y-95813571D01*
X82177398Y-95813571D02*
X82213112Y-95825476D01*
X82213112Y-95825476D02*
X82355969Y-95968333D01*
X82355969Y-95968333D02*
X82355969Y-95813571D01*
X82129779Y-95718333D02*
X82117874Y-95706429D01*
X82117874Y-95706429D02*
X82105969Y-95682619D01*
X82105969Y-95682619D02*
X82105969Y-95623095D01*
X82105969Y-95623095D02*
X82117874Y-95599286D01*
X82117874Y-95599286D02*
X82129779Y-95587381D01*
X82129779Y-95587381D02*
X82153588Y-95575476D01*
X82153588Y-95575476D02*
X82177398Y-95575476D01*
X82177398Y-95575476D02*
X82213112Y-95587381D01*
X82213112Y-95587381D02*
X82355969Y-95730238D01*
X82355969Y-95730238D02*
X82355969Y-95575476D01*
X82380969Y-102544047D02*
X82214303Y-102544047D01*
X82261922Y-102544047D02*
X82238112Y-102532142D01*
X82238112Y-102532142D02*
X82226207Y-102520237D01*
X82226207Y-102520237D02*
X82214303Y-102496428D01*
X82214303Y-102496428D02*
X82214303Y-102472618D01*
X82214303Y-102282142D02*
X82380969Y-102282142D01*
X82214303Y-102389285D02*
X82345255Y-102389285D01*
X82345255Y-102389285D02*
X82369065Y-102377380D01*
X82369065Y-102377380D02*
X82380969Y-102353570D01*
X82380969Y-102353570D02*
X82380969Y-102317856D01*
X82380969Y-102317856D02*
X82369065Y-102294047D01*
X82369065Y-102294047D02*
X82357160Y-102282142D01*
X82214303Y-102163095D02*
X82380969Y-102163095D01*
X82238112Y-102163095D02*
X82226207Y-102151190D01*
X82226207Y-102151190D02*
X82214303Y-102127380D01*
X82214303Y-102127380D02*
X82214303Y-102091666D01*
X82214303Y-102091666D02*
X82226207Y-102067857D01*
X82226207Y-102067857D02*
X82250017Y-102055952D01*
X82250017Y-102055952D02*
X82380969Y-102055952D01*
X66249026Y-63669560D02*
X66046645Y-63669560D01*
X66046645Y-63669560D02*
X66022836Y-63657655D01*
X66022836Y-63657655D02*
X66010931Y-63645751D01*
X66010931Y-63645751D02*
X65999026Y-63621941D01*
X65999026Y-63621941D02*
X65999026Y-63586227D01*
X65999026Y-63586227D02*
X66010931Y-63562417D01*
X66094265Y-63669560D02*
X66082360Y-63645751D01*
X66082360Y-63645751D02*
X66082360Y-63598132D01*
X66082360Y-63598132D02*
X66094265Y-63574322D01*
X66094265Y-63574322D02*
X66106169Y-63562417D01*
X66106169Y-63562417D02*
X66129979Y-63550513D01*
X66129979Y-63550513D02*
X66201407Y-63550513D01*
X66201407Y-63550513D02*
X66225217Y-63562417D01*
X66225217Y-63562417D02*
X66237122Y-63574322D01*
X66237122Y-63574322D02*
X66249026Y-63598132D01*
X66249026Y-63598132D02*
X66249026Y-63645751D01*
X66249026Y-63645751D02*
X66237122Y-63669560D01*
X66249026Y-63788607D02*
X65999026Y-63788607D01*
X66237122Y-63788607D02*
X66249026Y-63812417D01*
X66249026Y-63812417D02*
X66249026Y-63860036D01*
X66249026Y-63860036D02*
X66237122Y-63883845D01*
X66237122Y-63883845D02*
X66225217Y-63895750D01*
X66225217Y-63895750D02*
X66201407Y-63907655D01*
X66201407Y-63907655D02*
X66129979Y-63907655D01*
X66129979Y-63907655D02*
X66106169Y-63895750D01*
X66106169Y-63895750D02*
X66094265Y-63883845D01*
X66094265Y-63883845D02*
X66082360Y-63860036D01*
X66082360Y-63860036D02*
X66082360Y-63812417D01*
X66082360Y-63812417D02*
X66094265Y-63788607D01*
X66082360Y-64014797D02*
X66249026Y-64014797D01*
X66332360Y-64014797D02*
X66320455Y-64002893D01*
X66320455Y-64002893D02*
X66308550Y-64014797D01*
X66308550Y-64014797D02*
X66320455Y-64026702D01*
X66320455Y-64026702D02*
X66332360Y-64014797D01*
X66332360Y-64014797D02*
X66308550Y-64014797D01*
X66082360Y-64169560D02*
X66094265Y-64145750D01*
X66094265Y-64145750D02*
X66106169Y-64133845D01*
X66106169Y-64133845D02*
X66129979Y-64121941D01*
X66129979Y-64121941D02*
X66201407Y-64121941D01*
X66201407Y-64121941D02*
X66225217Y-64133845D01*
X66225217Y-64133845D02*
X66237122Y-64145750D01*
X66237122Y-64145750D02*
X66249026Y-64169560D01*
X66249026Y-64169560D02*
X66249026Y-64205274D01*
X66249026Y-64205274D02*
X66237122Y-64229083D01*
X66237122Y-64229083D02*
X66225217Y-64240988D01*
X66225217Y-64240988D02*
X66201407Y-64252893D01*
X66201407Y-64252893D02*
X66129979Y-64252893D01*
X66129979Y-64252893D02*
X66106169Y-64240988D01*
X66106169Y-64240988D02*
X66094265Y-64229083D01*
X66094265Y-64229083D02*
X66082360Y-64205274D01*
X66082360Y-64205274D02*
X66082360Y-64169560D01*
X66332360Y-64598130D02*
X66332360Y-64621940D01*
X66332360Y-64621940D02*
X66320455Y-64645749D01*
X66320455Y-64645749D02*
X66308550Y-64657654D01*
X66308550Y-64657654D02*
X66284741Y-64669559D01*
X66284741Y-64669559D02*
X66237122Y-64681464D01*
X66237122Y-64681464D02*
X66177598Y-64681464D01*
X66177598Y-64681464D02*
X66129979Y-64669559D01*
X66129979Y-64669559D02*
X66106169Y-64657654D01*
X66106169Y-64657654D02*
X66094265Y-64645749D01*
X66094265Y-64645749D02*
X66082360Y-64621940D01*
X66082360Y-64621940D02*
X66082360Y-64598130D01*
X66082360Y-64598130D02*
X66094265Y-64574321D01*
X66094265Y-64574321D02*
X66106169Y-64562416D01*
X66106169Y-64562416D02*
X66129979Y-64550511D01*
X66129979Y-64550511D02*
X66177598Y-64538607D01*
X66177598Y-64538607D02*
X66237122Y-64538607D01*
X66237122Y-64538607D02*
X66284741Y-64550511D01*
X66284741Y-64550511D02*
X66308550Y-64562416D01*
X66308550Y-64562416D02*
X66320455Y-64574321D01*
X66320455Y-64574321D02*
X66332360Y-64598130D01*
X66249026Y-66729560D02*
X66046645Y-66729560D01*
X66046645Y-66729560D02*
X66022836Y-66717655D01*
X66022836Y-66717655D02*
X66010931Y-66705751D01*
X66010931Y-66705751D02*
X65999026Y-66681941D01*
X65999026Y-66681941D02*
X65999026Y-66646227D01*
X65999026Y-66646227D02*
X66010931Y-66622417D01*
X66094265Y-66729560D02*
X66082360Y-66705751D01*
X66082360Y-66705751D02*
X66082360Y-66658132D01*
X66082360Y-66658132D02*
X66094265Y-66634322D01*
X66094265Y-66634322D02*
X66106169Y-66622417D01*
X66106169Y-66622417D02*
X66129979Y-66610513D01*
X66129979Y-66610513D02*
X66201407Y-66610513D01*
X66201407Y-66610513D02*
X66225217Y-66622417D01*
X66225217Y-66622417D02*
X66237122Y-66634322D01*
X66237122Y-66634322D02*
X66249026Y-66658132D01*
X66249026Y-66658132D02*
X66249026Y-66705751D01*
X66249026Y-66705751D02*
X66237122Y-66729560D01*
X66249026Y-66848607D02*
X65999026Y-66848607D01*
X66237122Y-66848607D02*
X66249026Y-66872417D01*
X66249026Y-66872417D02*
X66249026Y-66920036D01*
X66249026Y-66920036D02*
X66237122Y-66943845D01*
X66237122Y-66943845D02*
X66225217Y-66955750D01*
X66225217Y-66955750D02*
X66201407Y-66967655D01*
X66201407Y-66967655D02*
X66129979Y-66967655D01*
X66129979Y-66967655D02*
X66106169Y-66955750D01*
X66106169Y-66955750D02*
X66094265Y-66943845D01*
X66094265Y-66943845D02*
X66082360Y-66920036D01*
X66082360Y-66920036D02*
X66082360Y-66872417D01*
X66082360Y-66872417D02*
X66094265Y-66848607D01*
X66082360Y-67074797D02*
X66249026Y-67074797D01*
X66332360Y-67074797D02*
X66320455Y-67062893D01*
X66320455Y-67062893D02*
X66308550Y-67074797D01*
X66308550Y-67074797D02*
X66320455Y-67086702D01*
X66320455Y-67086702D02*
X66332360Y-67074797D01*
X66332360Y-67074797D02*
X66308550Y-67074797D01*
X66082360Y-67229560D02*
X66094265Y-67205750D01*
X66094265Y-67205750D02*
X66106169Y-67193845D01*
X66106169Y-67193845D02*
X66129979Y-67181941D01*
X66129979Y-67181941D02*
X66201407Y-67181941D01*
X66201407Y-67181941D02*
X66225217Y-67193845D01*
X66225217Y-67193845D02*
X66237122Y-67205750D01*
X66237122Y-67205750D02*
X66249026Y-67229560D01*
X66249026Y-67229560D02*
X66249026Y-67265274D01*
X66249026Y-67265274D02*
X66237122Y-67289083D01*
X66237122Y-67289083D02*
X66225217Y-67300988D01*
X66225217Y-67300988D02*
X66201407Y-67312893D01*
X66201407Y-67312893D02*
X66129979Y-67312893D01*
X66129979Y-67312893D02*
X66106169Y-67300988D01*
X66106169Y-67300988D02*
X66094265Y-67289083D01*
X66094265Y-67289083D02*
X66082360Y-67265274D01*
X66082360Y-67265274D02*
X66082360Y-67229560D01*
X66082360Y-67741464D02*
X66082360Y-67598607D01*
X66082360Y-67670035D02*
X66332360Y-67670035D01*
X66332360Y-67670035D02*
X66296645Y-67646226D01*
X66296645Y-67646226D02*
X66272836Y-67622416D01*
X66272836Y-67622416D02*
X66260931Y-67598607D01*
X66249026Y-69659560D02*
X66046645Y-69659560D01*
X66046645Y-69659560D02*
X66022836Y-69647655D01*
X66022836Y-69647655D02*
X66010931Y-69635751D01*
X66010931Y-69635751D02*
X65999026Y-69611941D01*
X65999026Y-69611941D02*
X65999026Y-69576227D01*
X65999026Y-69576227D02*
X66010931Y-69552417D01*
X66094265Y-69659560D02*
X66082360Y-69635751D01*
X66082360Y-69635751D02*
X66082360Y-69588132D01*
X66082360Y-69588132D02*
X66094265Y-69564322D01*
X66094265Y-69564322D02*
X66106169Y-69552417D01*
X66106169Y-69552417D02*
X66129979Y-69540513D01*
X66129979Y-69540513D02*
X66201407Y-69540513D01*
X66201407Y-69540513D02*
X66225217Y-69552417D01*
X66225217Y-69552417D02*
X66237122Y-69564322D01*
X66237122Y-69564322D02*
X66249026Y-69588132D01*
X66249026Y-69588132D02*
X66249026Y-69635751D01*
X66249026Y-69635751D02*
X66237122Y-69659560D01*
X66249026Y-69778607D02*
X65999026Y-69778607D01*
X66237122Y-69778607D02*
X66249026Y-69802417D01*
X66249026Y-69802417D02*
X66249026Y-69850036D01*
X66249026Y-69850036D02*
X66237122Y-69873845D01*
X66237122Y-69873845D02*
X66225217Y-69885750D01*
X66225217Y-69885750D02*
X66201407Y-69897655D01*
X66201407Y-69897655D02*
X66129979Y-69897655D01*
X66129979Y-69897655D02*
X66106169Y-69885750D01*
X66106169Y-69885750D02*
X66094265Y-69873845D01*
X66094265Y-69873845D02*
X66082360Y-69850036D01*
X66082360Y-69850036D02*
X66082360Y-69802417D01*
X66082360Y-69802417D02*
X66094265Y-69778607D01*
X66082360Y-70004797D02*
X66249026Y-70004797D01*
X66332360Y-70004797D02*
X66320455Y-69992893D01*
X66320455Y-69992893D02*
X66308550Y-70004797D01*
X66308550Y-70004797D02*
X66320455Y-70016702D01*
X66320455Y-70016702D02*
X66332360Y-70004797D01*
X66332360Y-70004797D02*
X66308550Y-70004797D01*
X66082360Y-70159560D02*
X66094265Y-70135750D01*
X66094265Y-70135750D02*
X66106169Y-70123845D01*
X66106169Y-70123845D02*
X66129979Y-70111941D01*
X66129979Y-70111941D02*
X66201407Y-70111941D01*
X66201407Y-70111941D02*
X66225217Y-70123845D01*
X66225217Y-70123845D02*
X66237122Y-70135750D01*
X66237122Y-70135750D02*
X66249026Y-70159560D01*
X66249026Y-70159560D02*
X66249026Y-70195274D01*
X66249026Y-70195274D02*
X66237122Y-70219083D01*
X66237122Y-70219083D02*
X66225217Y-70230988D01*
X66225217Y-70230988D02*
X66201407Y-70242893D01*
X66201407Y-70242893D02*
X66129979Y-70242893D01*
X66129979Y-70242893D02*
X66106169Y-70230988D01*
X66106169Y-70230988D02*
X66094265Y-70219083D01*
X66094265Y-70219083D02*
X66082360Y-70195274D01*
X66082360Y-70195274D02*
X66082360Y-70159560D01*
X66308550Y-70528607D02*
X66320455Y-70540511D01*
X66320455Y-70540511D02*
X66332360Y-70564321D01*
X66332360Y-70564321D02*
X66332360Y-70623845D01*
X66332360Y-70623845D02*
X66320455Y-70647654D01*
X66320455Y-70647654D02*
X66308550Y-70659559D01*
X66308550Y-70659559D02*
X66284741Y-70671464D01*
X66284741Y-70671464D02*
X66260931Y-70671464D01*
X66260931Y-70671464D02*
X66225217Y-70659559D01*
X66225217Y-70659559D02*
X66082360Y-70516702D01*
X66082360Y-70516702D02*
X66082360Y-70671464D01*
X66249026Y-78719560D02*
X66046645Y-78719560D01*
X66046645Y-78719560D02*
X66022836Y-78707655D01*
X66022836Y-78707655D02*
X66010931Y-78695751D01*
X66010931Y-78695751D02*
X65999026Y-78671941D01*
X65999026Y-78671941D02*
X65999026Y-78636227D01*
X65999026Y-78636227D02*
X66010931Y-78612417D01*
X66094265Y-78719560D02*
X66082360Y-78695751D01*
X66082360Y-78695751D02*
X66082360Y-78648132D01*
X66082360Y-78648132D02*
X66094265Y-78624322D01*
X66094265Y-78624322D02*
X66106169Y-78612417D01*
X66106169Y-78612417D02*
X66129979Y-78600513D01*
X66129979Y-78600513D02*
X66201407Y-78600513D01*
X66201407Y-78600513D02*
X66225217Y-78612417D01*
X66225217Y-78612417D02*
X66237122Y-78624322D01*
X66237122Y-78624322D02*
X66249026Y-78648132D01*
X66249026Y-78648132D02*
X66249026Y-78695751D01*
X66249026Y-78695751D02*
X66237122Y-78719560D01*
X66249026Y-78838607D02*
X65999026Y-78838607D01*
X66237122Y-78838607D02*
X66249026Y-78862417D01*
X66249026Y-78862417D02*
X66249026Y-78910036D01*
X66249026Y-78910036D02*
X66237122Y-78933845D01*
X66237122Y-78933845D02*
X66225217Y-78945750D01*
X66225217Y-78945750D02*
X66201407Y-78957655D01*
X66201407Y-78957655D02*
X66129979Y-78957655D01*
X66129979Y-78957655D02*
X66106169Y-78945750D01*
X66106169Y-78945750D02*
X66094265Y-78933845D01*
X66094265Y-78933845D02*
X66082360Y-78910036D01*
X66082360Y-78910036D02*
X66082360Y-78862417D01*
X66082360Y-78862417D02*
X66094265Y-78838607D01*
X66082360Y-79064797D02*
X66249026Y-79064797D01*
X66332360Y-79064797D02*
X66320455Y-79052893D01*
X66320455Y-79052893D02*
X66308550Y-79064797D01*
X66308550Y-79064797D02*
X66320455Y-79076702D01*
X66320455Y-79076702D02*
X66332360Y-79064797D01*
X66332360Y-79064797D02*
X66308550Y-79064797D01*
X66082360Y-79219560D02*
X66094265Y-79195750D01*
X66094265Y-79195750D02*
X66106169Y-79183845D01*
X66106169Y-79183845D02*
X66129979Y-79171941D01*
X66129979Y-79171941D02*
X66201407Y-79171941D01*
X66201407Y-79171941D02*
X66225217Y-79183845D01*
X66225217Y-79183845D02*
X66237122Y-79195750D01*
X66237122Y-79195750D02*
X66249026Y-79219560D01*
X66249026Y-79219560D02*
X66249026Y-79255274D01*
X66249026Y-79255274D02*
X66237122Y-79279083D01*
X66237122Y-79279083D02*
X66225217Y-79290988D01*
X66225217Y-79290988D02*
X66201407Y-79302893D01*
X66201407Y-79302893D02*
X66129979Y-79302893D01*
X66129979Y-79302893D02*
X66106169Y-79290988D01*
X66106169Y-79290988D02*
X66094265Y-79279083D01*
X66094265Y-79279083D02*
X66082360Y-79255274D01*
X66082360Y-79255274D02*
X66082360Y-79219560D01*
X66332360Y-79719559D02*
X66332360Y-79600511D01*
X66332360Y-79600511D02*
X66213312Y-79588607D01*
X66213312Y-79588607D02*
X66225217Y-79600511D01*
X66225217Y-79600511D02*
X66237122Y-79624321D01*
X66237122Y-79624321D02*
X66237122Y-79683845D01*
X66237122Y-79683845D02*
X66225217Y-79707654D01*
X66225217Y-79707654D02*
X66213312Y-79719559D01*
X66213312Y-79719559D02*
X66189503Y-79731464D01*
X66189503Y-79731464D02*
X66129979Y-79731464D01*
X66129979Y-79731464D02*
X66106169Y-79719559D01*
X66106169Y-79719559D02*
X66094265Y-79707654D01*
X66094265Y-79707654D02*
X66082360Y-79683845D01*
X66082360Y-79683845D02*
X66082360Y-79624321D01*
X66082360Y-79624321D02*
X66094265Y-79600511D01*
X66094265Y-79600511D02*
X66106169Y-79588607D01*
X66249026Y-87329560D02*
X66046645Y-87329560D01*
X66046645Y-87329560D02*
X66022836Y-87317655D01*
X66022836Y-87317655D02*
X66010931Y-87305751D01*
X66010931Y-87305751D02*
X65999026Y-87281941D01*
X65999026Y-87281941D02*
X65999026Y-87246227D01*
X65999026Y-87246227D02*
X66010931Y-87222417D01*
X66094265Y-87329560D02*
X66082360Y-87305751D01*
X66082360Y-87305751D02*
X66082360Y-87258132D01*
X66082360Y-87258132D02*
X66094265Y-87234322D01*
X66094265Y-87234322D02*
X66106169Y-87222417D01*
X66106169Y-87222417D02*
X66129979Y-87210513D01*
X66129979Y-87210513D02*
X66201407Y-87210513D01*
X66201407Y-87210513D02*
X66225217Y-87222417D01*
X66225217Y-87222417D02*
X66237122Y-87234322D01*
X66237122Y-87234322D02*
X66249026Y-87258132D01*
X66249026Y-87258132D02*
X66249026Y-87305751D01*
X66249026Y-87305751D02*
X66237122Y-87329560D01*
X66249026Y-87448607D02*
X66082360Y-87448607D01*
X66225217Y-87448607D02*
X66237122Y-87460512D01*
X66237122Y-87460512D02*
X66249026Y-87484322D01*
X66249026Y-87484322D02*
X66249026Y-87520036D01*
X66249026Y-87520036D02*
X66237122Y-87543845D01*
X66237122Y-87543845D02*
X66213312Y-87555750D01*
X66213312Y-87555750D02*
X66082360Y-87555750D01*
X66082360Y-87781940D02*
X66332360Y-87781940D01*
X66094265Y-87781940D02*
X66082360Y-87758131D01*
X66082360Y-87758131D02*
X66082360Y-87710512D01*
X66082360Y-87710512D02*
X66094265Y-87686702D01*
X66094265Y-87686702D02*
X66106169Y-87674797D01*
X66106169Y-87674797D02*
X66129979Y-87662893D01*
X66129979Y-87662893D02*
X66201407Y-87662893D01*
X66201407Y-87662893D02*
X66225217Y-87674797D01*
X66225217Y-87674797D02*
X66237122Y-87686702D01*
X66237122Y-87686702D02*
X66249026Y-87710512D01*
X66249026Y-87710512D02*
X66249026Y-87758131D01*
X66249026Y-87758131D02*
X66237122Y-87781940D01*
X66249026Y-89819560D02*
X66046645Y-89819560D01*
X66046645Y-89819560D02*
X66022836Y-89807655D01*
X66022836Y-89807655D02*
X66010931Y-89795751D01*
X66010931Y-89795751D02*
X65999026Y-89771941D01*
X65999026Y-89771941D02*
X65999026Y-89736227D01*
X65999026Y-89736227D02*
X66010931Y-89712417D01*
X66094265Y-89819560D02*
X66082360Y-89795751D01*
X66082360Y-89795751D02*
X66082360Y-89748132D01*
X66082360Y-89748132D02*
X66094265Y-89724322D01*
X66094265Y-89724322D02*
X66106169Y-89712417D01*
X66106169Y-89712417D02*
X66129979Y-89700513D01*
X66129979Y-89700513D02*
X66201407Y-89700513D01*
X66201407Y-89700513D02*
X66225217Y-89712417D01*
X66225217Y-89712417D02*
X66237122Y-89724322D01*
X66237122Y-89724322D02*
X66249026Y-89748132D01*
X66249026Y-89748132D02*
X66249026Y-89795751D01*
X66249026Y-89795751D02*
X66237122Y-89819560D01*
X66249026Y-89938607D02*
X65999026Y-89938607D01*
X66237122Y-89938607D02*
X66249026Y-89962417D01*
X66249026Y-89962417D02*
X66249026Y-90010036D01*
X66249026Y-90010036D02*
X66237122Y-90033845D01*
X66237122Y-90033845D02*
X66225217Y-90045750D01*
X66225217Y-90045750D02*
X66201407Y-90057655D01*
X66201407Y-90057655D02*
X66129979Y-90057655D01*
X66129979Y-90057655D02*
X66106169Y-90045750D01*
X66106169Y-90045750D02*
X66094265Y-90033845D01*
X66094265Y-90033845D02*
X66082360Y-90010036D01*
X66082360Y-90010036D02*
X66082360Y-89962417D01*
X66082360Y-89962417D02*
X66094265Y-89938607D01*
X66082360Y-90164797D02*
X66249026Y-90164797D01*
X66332360Y-90164797D02*
X66320455Y-90152893D01*
X66320455Y-90152893D02*
X66308550Y-90164797D01*
X66308550Y-90164797D02*
X66320455Y-90176702D01*
X66320455Y-90176702D02*
X66332360Y-90164797D01*
X66332360Y-90164797D02*
X66308550Y-90164797D01*
X66082360Y-90319560D02*
X66094265Y-90295750D01*
X66094265Y-90295750D02*
X66106169Y-90283845D01*
X66106169Y-90283845D02*
X66129979Y-90271941D01*
X66129979Y-90271941D02*
X66201407Y-90271941D01*
X66201407Y-90271941D02*
X66225217Y-90283845D01*
X66225217Y-90283845D02*
X66237122Y-90295750D01*
X66237122Y-90295750D02*
X66249026Y-90319560D01*
X66249026Y-90319560D02*
X66249026Y-90355274D01*
X66249026Y-90355274D02*
X66237122Y-90379083D01*
X66237122Y-90379083D02*
X66225217Y-90390988D01*
X66225217Y-90390988D02*
X66201407Y-90402893D01*
X66201407Y-90402893D02*
X66129979Y-90402893D01*
X66129979Y-90402893D02*
X66106169Y-90390988D01*
X66106169Y-90390988D02*
X66094265Y-90379083D01*
X66094265Y-90379083D02*
X66082360Y-90355274D01*
X66082360Y-90355274D02*
X66082360Y-90319560D01*
X66225217Y-90736226D02*
X66237122Y-90712416D01*
X66237122Y-90712416D02*
X66249026Y-90700511D01*
X66249026Y-90700511D02*
X66272836Y-90688607D01*
X66272836Y-90688607D02*
X66284741Y-90688607D01*
X66284741Y-90688607D02*
X66308550Y-90700511D01*
X66308550Y-90700511D02*
X66320455Y-90712416D01*
X66320455Y-90712416D02*
X66332360Y-90736226D01*
X66332360Y-90736226D02*
X66332360Y-90783845D01*
X66332360Y-90783845D02*
X66320455Y-90807654D01*
X66320455Y-90807654D02*
X66308550Y-90819559D01*
X66308550Y-90819559D02*
X66284741Y-90831464D01*
X66284741Y-90831464D02*
X66272836Y-90831464D01*
X66272836Y-90831464D02*
X66249026Y-90819559D01*
X66249026Y-90819559D02*
X66237122Y-90807654D01*
X66237122Y-90807654D02*
X66225217Y-90783845D01*
X66225217Y-90783845D02*
X66225217Y-90736226D01*
X66225217Y-90736226D02*
X66213312Y-90712416D01*
X66213312Y-90712416D02*
X66201407Y-90700511D01*
X66201407Y-90700511D02*
X66177598Y-90688607D01*
X66177598Y-90688607D02*
X66129979Y-90688607D01*
X66129979Y-90688607D02*
X66106169Y-90700511D01*
X66106169Y-90700511D02*
X66094265Y-90712416D01*
X66094265Y-90712416D02*
X66082360Y-90736226D01*
X66082360Y-90736226D02*
X66082360Y-90783845D01*
X66082360Y-90783845D02*
X66094265Y-90807654D01*
X66094265Y-90807654D02*
X66106169Y-90819559D01*
X66106169Y-90819559D02*
X66129979Y-90831464D01*
X66129979Y-90831464D02*
X66177598Y-90831464D01*
X66177598Y-90831464D02*
X66201407Y-90819559D01*
X66201407Y-90819559D02*
X66213312Y-90807654D01*
X66213312Y-90807654D02*
X66225217Y-90783845D01*
X66259026Y-75659560D02*
X66056645Y-75659560D01*
X66056645Y-75659560D02*
X66032836Y-75647655D01*
X66032836Y-75647655D02*
X66020931Y-75635751D01*
X66020931Y-75635751D02*
X66009026Y-75611941D01*
X66009026Y-75611941D02*
X66009026Y-75576227D01*
X66009026Y-75576227D02*
X66020931Y-75552417D01*
X66104265Y-75659560D02*
X66092360Y-75635751D01*
X66092360Y-75635751D02*
X66092360Y-75588132D01*
X66092360Y-75588132D02*
X66104265Y-75564322D01*
X66104265Y-75564322D02*
X66116169Y-75552417D01*
X66116169Y-75552417D02*
X66139979Y-75540513D01*
X66139979Y-75540513D02*
X66211407Y-75540513D01*
X66211407Y-75540513D02*
X66235217Y-75552417D01*
X66235217Y-75552417D02*
X66247122Y-75564322D01*
X66247122Y-75564322D02*
X66259026Y-75588132D01*
X66259026Y-75588132D02*
X66259026Y-75635751D01*
X66259026Y-75635751D02*
X66247122Y-75659560D01*
X66259026Y-75778607D02*
X66009026Y-75778607D01*
X66247122Y-75778607D02*
X66259026Y-75802417D01*
X66259026Y-75802417D02*
X66259026Y-75850036D01*
X66259026Y-75850036D02*
X66247122Y-75873845D01*
X66247122Y-75873845D02*
X66235217Y-75885750D01*
X66235217Y-75885750D02*
X66211407Y-75897655D01*
X66211407Y-75897655D02*
X66139979Y-75897655D01*
X66139979Y-75897655D02*
X66116169Y-75885750D01*
X66116169Y-75885750D02*
X66104265Y-75873845D01*
X66104265Y-75873845D02*
X66092360Y-75850036D01*
X66092360Y-75850036D02*
X66092360Y-75802417D01*
X66092360Y-75802417D02*
X66104265Y-75778607D01*
X66092360Y-76004797D02*
X66259026Y-76004797D01*
X66342360Y-76004797D02*
X66330455Y-75992893D01*
X66330455Y-75992893D02*
X66318550Y-76004797D01*
X66318550Y-76004797D02*
X66330455Y-76016702D01*
X66330455Y-76016702D02*
X66342360Y-76004797D01*
X66342360Y-76004797D02*
X66318550Y-76004797D01*
X66092360Y-76159560D02*
X66104265Y-76135750D01*
X66104265Y-76135750D02*
X66116169Y-76123845D01*
X66116169Y-76123845D02*
X66139979Y-76111941D01*
X66139979Y-76111941D02*
X66211407Y-76111941D01*
X66211407Y-76111941D02*
X66235217Y-76123845D01*
X66235217Y-76123845D02*
X66247122Y-76135750D01*
X66247122Y-76135750D02*
X66259026Y-76159560D01*
X66259026Y-76159560D02*
X66259026Y-76195274D01*
X66259026Y-76195274D02*
X66247122Y-76219083D01*
X66247122Y-76219083D02*
X66235217Y-76230988D01*
X66235217Y-76230988D02*
X66211407Y-76242893D01*
X66211407Y-76242893D02*
X66139979Y-76242893D01*
X66139979Y-76242893D02*
X66116169Y-76230988D01*
X66116169Y-76230988D02*
X66104265Y-76219083D01*
X66104265Y-76219083D02*
X66092360Y-76195274D01*
X66092360Y-76195274D02*
X66092360Y-76159560D01*
X66259026Y-76647654D02*
X66092360Y-76647654D01*
X66354265Y-76588130D02*
X66175693Y-76528607D01*
X66175693Y-76528607D02*
X66175693Y-76683368D01*
X66259026Y-81459560D02*
X66056645Y-81459560D01*
X66056645Y-81459560D02*
X66032836Y-81447655D01*
X66032836Y-81447655D02*
X66020931Y-81435751D01*
X66020931Y-81435751D02*
X66009026Y-81411941D01*
X66009026Y-81411941D02*
X66009026Y-81376227D01*
X66009026Y-81376227D02*
X66020931Y-81352417D01*
X66104265Y-81459560D02*
X66092360Y-81435751D01*
X66092360Y-81435751D02*
X66092360Y-81388132D01*
X66092360Y-81388132D02*
X66104265Y-81364322D01*
X66104265Y-81364322D02*
X66116169Y-81352417D01*
X66116169Y-81352417D02*
X66139979Y-81340513D01*
X66139979Y-81340513D02*
X66211407Y-81340513D01*
X66211407Y-81340513D02*
X66235217Y-81352417D01*
X66235217Y-81352417D02*
X66247122Y-81364322D01*
X66247122Y-81364322D02*
X66259026Y-81388132D01*
X66259026Y-81388132D02*
X66259026Y-81435751D01*
X66259026Y-81435751D02*
X66247122Y-81459560D01*
X66259026Y-81578607D02*
X66009026Y-81578607D01*
X66247122Y-81578607D02*
X66259026Y-81602417D01*
X66259026Y-81602417D02*
X66259026Y-81650036D01*
X66259026Y-81650036D02*
X66247122Y-81673845D01*
X66247122Y-81673845D02*
X66235217Y-81685750D01*
X66235217Y-81685750D02*
X66211407Y-81697655D01*
X66211407Y-81697655D02*
X66139979Y-81697655D01*
X66139979Y-81697655D02*
X66116169Y-81685750D01*
X66116169Y-81685750D02*
X66104265Y-81673845D01*
X66104265Y-81673845D02*
X66092360Y-81650036D01*
X66092360Y-81650036D02*
X66092360Y-81602417D01*
X66092360Y-81602417D02*
X66104265Y-81578607D01*
X66092360Y-81804797D02*
X66259026Y-81804797D01*
X66342360Y-81804797D02*
X66330455Y-81792893D01*
X66330455Y-81792893D02*
X66318550Y-81804797D01*
X66318550Y-81804797D02*
X66330455Y-81816702D01*
X66330455Y-81816702D02*
X66342360Y-81804797D01*
X66342360Y-81804797D02*
X66318550Y-81804797D01*
X66092360Y-81959560D02*
X66104265Y-81935750D01*
X66104265Y-81935750D02*
X66116169Y-81923845D01*
X66116169Y-81923845D02*
X66139979Y-81911941D01*
X66139979Y-81911941D02*
X66211407Y-81911941D01*
X66211407Y-81911941D02*
X66235217Y-81923845D01*
X66235217Y-81923845D02*
X66247122Y-81935750D01*
X66247122Y-81935750D02*
X66259026Y-81959560D01*
X66259026Y-81959560D02*
X66259026Y-81995274D01*
X66259026Y-81995274D02*
X66247122Y-82019083D01*
X66247122Y-82019083D02*
X66235217Y-82030988D01*
X66235217Y-82030988D02*
X66211407Y-82042893D01*
X66211407Y-82042893D02*
X66139979Y-82042893D01*
X66139979Y-82042893D02*
X66116169Y-82030988D01*
X66116169Y-82030988D02*
X66104265Y-82019083D01*
X66104265Y-82019083D02*
X66092360Y-81995274D01*
X66092360Y-81995274D02*
X66092360Y-81959560D01*
X66342360Y-82447654D02*
X66342360Y-82400035D01*
X66342360Y-82400035D02*
X66330455Y-82376226D01*
X66330455Y-82376226D02*
X66318550Y-82364321D01*
X66318550Y-82364321D02*
X66282836Y-82340511D01*
X66282836Y-82340511D02*
X66235217Y-82328607D01*
X66235217Y-82328607D02*
X66139979Y-82328607D01*
X66139979Y-82328607D02*
X66116169Y-82340511D01*
X66116169Y-82340511D02*
X66104265Y-82352416D01*
X66104265Y-82352416D02*
X66092360Y-82376226D01*
X66092360Y-82376226D02*
X66092360Y-82423845D01*
X66092360Y-82423845D02*
X66104265Y-82447654D01*
X66104265Y-82447654D02*
X66116169Y-82459559D01*
X66116169Y-82459559D02*
X66139979Y-82471464D01*
X66139979Y-82471464D02*
X66199503Y-82471464D01*
X66199503Y-82471464D02*
X66223312Y-82459559D01*
X66223312Y-82459559D02*
X66235217Y-82447654D01*
X66235217Y-82447654D02*
X66247122Y-82423845D01*
X66247122Y-82423845D02*
X66247122Y-82376226D01*
X66247122Y-82376226D02*
X66235217Y-82352416D01*
X66235217Y-82352416D02*
X66223312Y-82340511D01*
X66223312Y-82340511D02*
X66199503Y-82328607D01*
X66259026Y-92799560D02*
X66056645Y-92799560D01*
X66056645Y-92799560D02*
X66032836Y-92787655D01*
X66032836Y-92787655D02*
X66020931Y-92775751D01*
X66020931Y-92775751D02*
X66009026Y-92751941D01*
X66009026Y-92751941D02*
X66009026Y-92716227D01*
X66009026Y-92716227D02*
X66020931Y-92692417D01*
X66104265Y-92799560D02*
X66092360Y-92775751D01*
X66092360Y-92775751D02*
X66092360Y-92728132D01*
X66092360Y-92728132D02*
X66104265Y-92704322D01*
X66104265Y-92704322D02*
X66116169Y-92692417D01*
X66116169Y-92692417D02*
X66139979Y-92680513D01*
X66139979Y-92680513D02*
X66211407Y-92680513D01*
X66211407Y-92680513D02*
X66235217Y-92692417D01*
X66235217Y-92692417D02*
X66247122Y-92704322D01*
X66247122Y-92704322D02*
X66259026Y-92728132D01*
X66259026Y-92728132D02*
X66259026Y-92775751D01*
X66259026Y-92775751D02*
X66247122Y-92799560D01*
X66259026Y-92918607D02*
X66009026Y-92918607D01*
X66247122Y-92918607D02*
X66259026Y-92942417D01*
X66259026Y-92942417D02*
X66259026Y-92990036D01*
X66259026Y-92990036D02*
X66247122Y-93013845D01*
X66247122Y-93013845D02*
X66235217Y-93025750D01*
X66235217Y-93025750D02*
X66211407Y-93037655D01*
X66211407Y-93037655D02*
X66139979Y-93037655D01*
X66139979Y-93037655D02*
X66116169Y-93025750D01*
X66116169Y-93025750D02*
X66104265Y-93013845D01*
X66104265Y-93013845D02*
X66092360Y-92990036D01*
X66092360Y-92990036D02*
X66092360Y-92942417D01*
X66092360Y-92942417D02*
X66104265Y-92918607D01*
X66092360Y-93144797D02*
X66259026Y-93144797D01*
X66342360Y-93144797D02*
X66330455Y-93132893D01*
X66330455Y-93132893D02*
X66318550Y-93144797D01*
X66318550Y-93144797D02*
X66330455Y-93156702D01*
X66330455Y-93156702D02*
X66342360Y-93144797D01*
X66342360Y-93144797D02*
X66318550Y-93144797D01*
X66092360Y-93299560D02*
X66104265Y-93275750D01*
X66104265Y-93275750D02*
X66116169Y-93263845D01*
X66116169Y-93263845D02*
X66139979Y-93251941D01*
X66139979Y-93251941D02*
X66211407Y-93251941D01*
X66211407Y-93251941D02*
X66235217Y-93263845D01*
X66235217Y-93263845D02*
X66247122Y-93275750D01*
X66247122Y-93275750D02*
X66259026Y-93299560D01*
X66259026Y-93299560D02*
X66259026Y-93335274D01*
X66259026Y-93335274D02*
X66247122Y-93359083D01*
X66247122Y-93359083D02*
X66235217Y-93370988D01*
X66235217Y-93370988D02*
X66211407Y-93382893D01*
X66211407Y-93382893D02*
X66139979Y-93382893D01*
X66139979Y-93382893D02*
X66116169Y-93370988D01*
X66116169Y-93370988D02*
X66104265Y-93359083D01*
X66104265Y-93359083D02*
X66092360Y-93335274D01*
X66092360Y-93335274D02*
X66092360Y-93299560D01*
X66092360Y-93692416D02*
X66092360Y-93740035D01*
X66092360Y-93740035D02*
X66104265Y-93763845D01*
X66104265Y-93763845D02*
X66116169Y-93775749D01*
X66116169Y-93775749D02*
X66151884Y-93799559D01*
X66151884Y-93799559D02*
X66199503Y-93811464D01*
X66199503Y-93811464D02*
X66294741Y-93811464D01*
X66294741Y-93811464D02*
X66318550Y-93799559D01*
X66318550Y-93799559D02*
X66330455Y-93787654D01*
X66330455Y-93787654D02*
X66342360Y-93763845D01*
X66342360Y-93763845D02*
X66342360Y-93716226D01*
X66342360Y-93716226D02*
X66330455Y-93692416D01*
X66330455Y-93692416D02*
X66318550Y-93680511D01*
X66318550Y-93680511D02*
X66294741Y-93668607D01*
X66294741Y-93668607D02*
X66235217Y-93668607D01*
X66235217Y-93668607D02*
X66211407Y-93680511D01*
X66211407Y-93680511D02*
X66199503Y-93692416D01*
X66199503Y-93692416D02*
X66187598Y-93716226D01*
X66187598Y-93716226D02*
X66187598Y-93763845D01*
X66187598Y-93763845D02*
X66199503Y-93787654D01*
X66199503Y-93787654D02*
X66211407Y-93799559D01*
X66211407Y-93799559D02*
X66235217Y-93811464D01*
X66259026Y-110539560D02*
X66056645Y-110539560D01*
X66056645Y-110539560D02*
X66032836Y-110527655D01*
X66032836Y-110527655D02*
X66020931Y-110515751D01*
X66020931Y-110515751D02*
X66009026Y-110491941D01*
X66009026Y-110491941D02*
X66009026Y-110456227D01*
X66009026Y-110456227D02*
X66020931Y-110432417D01*
X66104265Y-110539560D02*
X66092360Y-110515751D01*
X66092360Y-110515751D02*
X66092360Y-110468132D01*
X66092360Y-110468132D02*
X66104265Y-110444322D01*
X66104265Y-110444322D02*
X66116169Y-110432417D01*
X66116169Y-110432417D02*
X66139979Y-110420513D01*
X66139979Y-110420513D02*
X66211407Y-110420513D01*
X66211407Y-110420513D02*
X66235217Y-110432417D01*
X66235217Y-110432417D02*
X66247122Y-110444322D01*
X66247122Y-110444322D02*
X66259026Y-110468132D01*
X66259026Y-110468132D02*
X66259026Y-110515751D01*
X66259026Y-110515751D02*
X66247122Y-110539560D01*
X66259026Y-110658607D02*
X66009026Y-110658607D01*
X66247122Y-110658607D02*
X66259026Y-110682417D01*
X66259026Y-110682417D02*
X66259026Y-110730036D01*
X66259026Y-110730036D02*
X66247122Y-110753845D01*
X66247122Y-110753845D02*
X66235217Y-110765750D01*
X66235217Y-110765750D02*
X66211407Y-110777655D01*
X66211407Y-110777655D02*
X66139979Y-110777655D01*
X66139979Y-110777655D02*
X66116169Y-110765750D01*
X66116169Y-110765750D02*
X66104265Y-110753845D01*
X66104265Y-110753845D02*
X66092360Y-110730036D01*
X66092360Y-110730036D02*
X66092360Y-110682417D01*
X66092360Y-110682417D02*
X66104265Y-110658607D01*
X66092360Y-110884797D02*
X66259026Y-110884797D01*
X66342360Y-110884797D02*
X66330455Y-110872893D01*
X66330455Y-110872893D02*
X66318550Y-110884797D01*
X66318550Y-110884797D02*
X66330455Y-110896702D01*
X66330455Y-110896702D02*
X66342360Y-110884797D01*
X66342360Y-110884797D02*
X66318550Y-110884797D01*
X66092360Y-111039560D02*
X66104265Y-111015750D01*
X66104265Y-111015750D02*
X66116169Y-111003845D01*
X66116169Y-111003845D02*
X66139979Y-110991941D01*
X66139979Y-110991941D02*
X66211407Y-110991941D01*
X66211407Y-110991941D02*
X66235217Y-111003845D01*
X66235217Y-111003845D02*
X66247122Y-111015750D01*
X66247122Y-111015750D02*
X66259026Y-111039560D01*
X66259026Y-111039560D02*
X66259026Y-111075274D01*
X66259026Y-111075274D02*
X66247122Y-111099083D01*
X66247122Y-111099083D02*
X66235217Y-111110988D01*
X66235217Y-111110988D02*
X66211407Y-111122893D01*
X66211407Y-111122893D02*
X66139979Y-111122893D01*
X66139979Y-111122893D02*
X66116169Y-111110988D01*
X66116169Y-111110988D02*
X66104265Y-111099083D01*
X66104265Y-111099083D02*
X66092360Y-111075274D01*
X66092360Y-111075274D02*
X66092360Y-111039560D01*
X66092360Y-111551464D02*
X66092360Y-111408607D01*
X66092360Y-111480035D02*
X66342360Y-111480035D01*
X66342360Y-111480035D02*
X66306645Y-111456226D01*
X66306645Y-111456226D02*
X66282836Y-111432416D01*
X66282836Y-111432416D02*
X66270931Y-111408607D01*
X66342360Y-111777654D02*
X66342360Y-111658606D01*
X66342360Y-111658606D02*
X66223312Y-111646702D01*
X66223312Y-111646702D02*
X66235217Y-111658606D01*
X66235217Y-111658606D02*
X66247122Y-111682416D01*
X66247122Y-111682416D02*
X66247122Y-111741940D01*
X66247122Y-111741940D02*
X66235217Y-111765749D01*
X66235217Y-111765749D02*
X66223312Y-111777654D01*
X66223312Y-111777654D02*
X66199503Y-111789559D01*
X66199503Y-111789559D02*
X66139979Y-111789559D01*
X66139979Y-111789559D02*
X66116169Y-111777654D01*
X66116169Y-111777654D02*
X66104265Y-111765749D01*
X66104265Y-111765749D02*
X66092360Y-111741940D01*
X66092360Y-111741940D02*
X66092360Y-111682416D01*
X66092360Y-111682416D02*
X66104265Y-111658606D01*
X66104265Y-111658606D02*
X66116169Y-111646702D01*
X66269026Y-84169560D02*
X66066645Y-84169560D01*
X66066645Y-84169560D02*
X66042836Y-84157655D01*
X66042836Y-84157655D02*
X66030931Y-84145751D01*
X66030931Y-84145751D02*
X66019026Y-84121941D01*
X66019026Y-84121941D02*
X66019026Y-84086227D01*
X66019026Y-84086227D02*
X66030931Y-84062417D01*
X66114265Y-84169560D02*
X66102360Y-84145751D01*
X66102360Y-84145751D02*
X66102360Y-84098132D01*
X66102360Y-84098132D02*
X66114265Y-84074322D01*
X66114265Y-84074322D02*
X66126169Y-84062417D01*
X66126169Y-84062417D02*
X66149979Y-84050513D01*
X66149979Y-84050513D02*
X66221407Y-84050513D01*
X66221407Y-84050513D02*
X66245217Y-84062417D01*
X66245217Y-84062417D02*
X66257122Y-84074322D01*
X66257122Y-84074322D02*
X66269026Y-84098132D01*
X66269026Y-84098132D02*
X66269026Y-84145751D01*
X66269026Y-84145751D02*
X66257122Y-84169560D01*
X66269026Y-84288607D02*
X66019026Y-84288607D01*
X66257122Y-84288607D02*
X66269026Y-84312417D01*
X66269026Y-84312417D02*
X66269026Y-84360036D01*
X66269026Y-84360036D02*
X66257122Y-84383845D01*
X66257122Y-84383845D02*
X66245217Y-84395750D01*
X66245217Y-84395750D02*
X66221407Y-84407655D01*
X66221407Y-84407655D02*
X66149979Y-84407655D01*
X66149979Y-84407655D02*
X66126169Y-84395750D01*
X66126169Y-84395750D02*
X66114265Y-84383845D01*
X66114265Y-84383845D02*
X66102360Y-84360036D01*
X66102360Y-84360036D02*
X66102360Y-84312417D01*
X66102360Y-84312417D02*
X66114265Y-84288607D01*
X66102360Y-84514797D02*
X66269026Y-84514797D01*
X66352360Y-84514797D02*
X66340455Y-84502893D01*
X66340455Y-84502893D02*
X66328550Y-84514797D01*
X66328550Y-84514797D02*
X66340455Y-84526702D01*
X66340455Y-84526702D02*
X66352360Y-84514797D01*
X66352360Y-84514797D02*
X66328550Y-84514797D01*
X66102360Y-84669560D02*
X66114265Y-84645750D01*
X66114265Y-84645750D02*
X66126169Y-84633845D01*
X66126169Y-84633845D02*
X66149979Y-84621941D01*
X66149979Y-84621941D02*
X66221407Y-84621941D01*
X66221407Y-84621941D02*
X66245217Y-84633845D01*
X66245217Y-84633845D02*
X66257122Y-84645750D01*
X66257122Y-84645750D02*
X66269026Y-84669560D01*
X66269026Y-84669560D02*
X66269026Y-84705274D01*
X66269026Y-84705274D02*
X66257122Y-84729083D01*
X66257122Y-84729083D02*
X66245217Y-84740988D01*
X66245217Y-84740988D02*
X66221407Y-84752893D01*
X66221407Y-84752893D02*
X66149979Y-84752893D01*
X66149979Y-84752893D02*
X66126169Y-84740988D01*
X66126169Y-84740988D02*
X66114265Y-84729083D01*
X66114265Y-84729083D02*
X66102360Y-84705274D01*
X66102360Y-84705274D02*
X66102360Y-84669560D01*
X66352360Y-85026702D02*
X66352360Y-85193368D01*
X66352360Y-85193368D02*
X66102360Y-85086226D01*
X66279026Y-107729560D02*
X66076645Y-107729560D01*
X66076645Y-107729560D02*
X66052836Y-107717655D01*
X66052836Y-107717655D02*
X66040931Y-107705751D01*
X66040931Y-107705751D02*
X66029026Y-107681941D01*
X66029026Y-107681941D02*
X66029026Y-107646227D01*
X66029026Y-107646227D02*
X66040931Y-107622417D01*
X66124265Y-107729560D02*
X66112360Y-107705751D01*
X66112360Y-107705751D02*
X66112360Y-107658132D01*
X66112360Y-107658132D02*
X66124265Y-107634322D01*
X66124265Y-107634322D02*
X66136169Y-107622417D01*
X66136169Y-107622417D02*
X66159979Y-107610513D01*
X66159979Y-107610513D02*
X66231407Y-107610513D01*
X66231407Y-107610513D02*
X66255217Y-107622417D01*
X66255217Y-107622417D02*
X66267122Y-107634322D01*
X66267122Y-107634322D02*
X66279026Y-107658132D01*
X66279026Y-107658132D02*
X66279026Y-107705751D01*
X66279026Y-107705751D02*
X66267122Y-107729560D01*
X66279026Y-107848607D02*
X66029026Y-107848607D01*
X66267122Y-107848607D02*
X66279026Y-107872417D01*
X66279026Y-107872417D02*
X66279026Y-107920036D01*
X66279026Y-107920036D02*
X66267122Y-107943845D01*
X66267122Y-107943845D02*
X66255217Y-107955750D01*
X66255217Y-107955750D02*
X66231407Y-107967655D01*
X66231407Y-107967655D02*
X66159979Y-107967655D01*
X66159979Y-107967655D02*
X66136169Y-107955750D01*
X66136169Y-107955750D02*
X66124265Y-107943845D01*
X66124265Y-107943845D02*
X66112360Y-107920036D01*
X66112360Y-107920036D02*
X66112360Y-107872417D01*
X66112360Y-107872417D02*
X66124265Y-107848607D01*
X66112360Y-108074797D02*
X66279026Y-108074797D01*
X66362360Y-108074797D02*
X66350455Y-108062893D01*
X66350455Y-108062893D02*
X66338550Y-108074797D01*
X66338550Y-108074797D02*
X66350455Y-108086702D01*
X66350455Y-108086702D02*
X66362360Y-108074797D01*
X66362360Y-108074797D02*
X66338550Y-108074797D01*
X66112360Y-108229560D02*
X66124265Y-108205750D01*
X66124265Y-108205750D02*
X66136169Y-108193845D01*
X66136169Y-108193845D02*
X66159979Y-108181941D01*
X66159979Y-108181941D02*
X66231407Y-108181941D01*
X66231407Y-108181941D02*
X66255217Y-108193845D01*
X66255217Y-108193845D02*
X66267122Y-108205750D01*
X66267122Y-108205750D02*
X66279026Y-108229560D01*
X66279026Y-108229560D02*
X66279026Y-108265274D01*
X66279026Y-108265274D02*
X66267122Y-108289083D01*
X66267122Y-108289083D02*
X66255217Y-108300988D01*
X66255217Y-108300988D02*
X66231407Y-108312893D01*
X66231407Y-108312893D02*
X66159979Y-108312893D01*
X66159979Y-108312893D02*
X66136169Y-108300988D01*
X66136169Y-108300988D02*
X66124265Y-108289083D01*
X66124265Y-108289083D02*
X66112360Y-108265274D01*
X66112360Y-108265274D02*
X66112360Y-108229560D01*
X66112360Y-108741464D02*
X66112360Y-108598607D01*
X66112360Y-108670035D02*
X66362360Y-108670035D01*
X66362360Y-108670035D02*
X66326645Y-108646226D01*
X66326645Y-108646226D02*
X66302836Y-108622416D01*
X66302836Y-108622416D02*
X66290931Y-108598607D01*
X66279026Y-108955749D02*
X66112360Y-108955749D01*
X66374265Y-108896225D02*
X66195693Y-108836702D01*
X66195693Y-108836702D02*
X66195693Y-108991463D01*
X66299026Y-95759560D02*
X66096645Y-95759560D01*
X66096645Y-95759560D02*
X66072836Y-95747655D01*
X66072836Y-95747655D02*
X66060931Y-95735751D01*
X66060931Y-95735751D02*
X66049026Y-95711941D01*
X66049026Y-95711941D02*
X66049026Y-95676227D01*
X66049026Y-95676227D02*
X66060931Y-95652417D01*
X66144265Y-95759560D02*
X66132360Y-95735751D01*
X66132360Y-95735751D02*
X66132360Y-95688132D01*
X66132360Y-95688132D02*
X66144265Y-95664322D01*
X66144265Y-95664322D02*
X66156169Y-95652417D01*
X66156169Y-95652417D02*
X66179979Y-95640513D01*
X66179979Y-95640513D02*
X66251407Y-95640513D01*
X66251407Y-95640513D02*
X66275217Y-95652417D01*
X66275217Y-95652417D02*
X66287122Y-95664322D01*
X66287122Y-95664322D02*
X66299026Y-95688132D01*
X66299026Y-95688132D02*
X66299026Y-95735751D01*
X66299026Y-95735751D02*
X66287122Y-95759560D01*
X66299026Y-95878607D02*
X66049026Y-95878607D01*
X66287122Y-95878607D02*
X66299026Y-95902417D01*
X66299026Y-95902417D02*
X66299026Y-95950036D01*
X66299026Y-95950036D02*
X66287122Y-95973845D01*
X66287122Y-95973845D02*
X66275217Y-95985750D01*
X66275217Y-95985750D02*
X66251407Y-95997655D01*
X66251407Y-95997655D02*
X66179979Y-95997655D01*
X66179979Y-95997655D02*
X66156169Y-95985750D01*
X66156169Y-95985750D02*
X66144265Y-95973845D01*
X66144265Y-95973845D02*
X66132360Y-95950036D01*
X66132360Y-95950036D02*
X66132360Y-95902417D01*
X66132360Y-95902417D02*
X66144265Y-95878607D01*
X66132360Y-96104797D02*
X66299026Y-96104797D01*
X66382360Y-96104797D02*
X66370455Y-96092893D01*
X66370455Y-96092893D02*
X66358550Y-96104797D01*
X66358550Y-96104797D02*
X66370455Y-96116702D01*
X66370455Y-96116702D02*
X66382360Y-96104797D01*
X66382360Y-96104797D02*
X66358550Y-96104797D01*
X66132360Y-96259560D02*
X66144265Y-96235750D01*
X66144265Y-96235750D02*
X66156169Y-96223845D01*
X66156169Y-96223845D02*
X66179979Y-96211941D01*
X66179979Y-96211941D02*
X66251407Y-96211941D01*
X66251407Y-96211941D02*
X66275217Y-96223845D01*
X66275217Y-96223845D02*
X66287122Y-96235750D01*
X66287122Y-96235750D02*
X66299026Y-96259560D01*
X66299026Y-96259560D02*
X66299026Y-96295274D01*
X66299026Y-96295274D02*
X66287122Y-96319083D01*
X66287122Y-96319083D02*
X66275217Y-96330988D01*
X66275217Y-96330988D02*
X66251407Y-96342893D01*
X66251407Y-96342893D02*
X66179979Y-96342893D01*
X66179979Y-96342893D02*
X66156169Y-96330988D01*
X66156169Y-96330988D02*
X66144265Y-96319083D01*
X66144265Y-96319083D02*
X66132360Y-96295274D01*
X66132360Y-96295274D02*
X66132360Y-96259560D01*
X66132360Y-96771464D02*
X66132360Y-96628607D01*
X66132360Y-96700035D02*
X66382360Y-96700035D01*
X66382360Y-96700035D02*
X66346645Y-96676226D01*
X66346645Y-96676226D02*
X66322836Y-96652416D01*
X66322836Y-96652416D02*
X66310931Y-96628607D01*
X66382360Y-96926225D02*
X66382360Y-96950035D01*
X66382360Y-96950035D02*
X66370455Y-96973844D01*
X66370455Y-96973844D02*
X66358550Y-96985749D01*
X66358550Y-96985749D02*
X66334741Y-96997654D01*
X66334741Y-96997654D02*
X66287122Y-97009559D01*
X66287122Y-97009559D02*
X66227598Y-97009559D01*
X66227598Y-97009559D02*
X66179979Y-96997654D01*
X66179979Y-96997654D02*
X66156169Y-96985749D01*
X66156169Y-96985749D02*
X66144265Y-96973844D01*
X66144265Y-96973844D02*
X66132360Y-96950035D01*
X66132360Y-96950035D02*
X66132360Y-96926225D01*
X66132360Y-96926225D02*
X66144265Y-96902416D01*
X66144265Y-96902416D02*
X66156169Y-96890511D01*
X66156169Y-96890511D02*
X66179979Y-96878606D01*
X66179979Y-96878606D02*
X66227598Y-96866702D01*
X66227598Y-96866702D02*
X66287122Y-96866702D01*
X66287122Y-96866702D02*
X66334741Y-96878606D01*
X66334741Y-96878606D02*
X66358550Y-96890511D01*
X66358550Y-96890511D02*
X66370455Y-96902416D01*
X66370455Y-96902416D02*
X66382360Y-96926225D01*
X66309026Y-72669560D02*
X66106645Y-72669560D01*
X66106645Y-72669560D02*
X66082836Y-72657655D01*
X66082836Y-72657655D02*
X66070931Y-72645751D01*
X66070931Y-72645751D02*
X66059026Y-72621941D01*
X66059026Y-72621941D02*
X66059026Y-72586227D01*
X66059026Y-72586227D02*
X66070931Y-72562417D01*
X66154265Y-72669560D02*
X66142360Y-72645751D01*
X66142360Y-72645751D02*
X66142360Y-72598132D01*
X66142360Y-72598132D02*
X66154265Y-72574322D01*
X66154265Y-72574322D02*
X66166169Y-72562417D01*
X66166169Y-72562417D02*
X66189979Y-72550513D01*
X66189979Y-72550513D02*
X66261407Y-72550513D01*
X66261407Y-72550513D02*
X66285217Y-72562417D01*
X66285217Y-72562417D02*
X66297122Y-72574322D01*
X66297122Y-72574322D02*
X66309026Y-72598132D01*
X66309026Y-72598132D02*
X66309026Y-72645751D01*
X66309026Y-72645751D02*
X66297122Y-72669560D01*
X66309026Y-72788607D02*
X66059026Y-72788607D01*
X66297122Y-72788607D02*
X66309026Y-72812417D01*
X66309026Y-72812417D02*
X66309026Y-72860036D01*
X66309026Y-72860036D02*
X66297122Y-72883845D01*
X66297122Y-72883845D02*
X66285217Y-72895750D01*
X66285217Y-72895750D02*
X66261407Y-72907655D01*
X66261407Y-72907655D02*
X66189979Y-72907655D01*
X66189979Y-72907655D02*
X66166169Y-72895750D01*
X66166169Y-72895750D02*
X66154265Y-72883845D01*
X66154265Y-72883845D02*
X66142360Y-72860036D01*
X66142360Y-72860036D02*
X66142360Y-72812417D01*
X66142360Y-72812417D02*
X66154265Y-72788607D01*
X66142360Y-73014797D02*
X66309026Y-73014797D01*
X66392360Y-73014797D02*
X66380455Y-73002893D01*
X66380455Y-73002893D02*
X66368550Y-73014797D01*
X66368550Y-73014797D02*
X66380455Y-73026702D01*
X66380455Y-73026702D02*
X66392360Y-73014797D01*
X66392360Y-73014797D02*
X66368550Y-73014797D01*
X66142360Y-73169560D02*
X66154265Y-73145750D01*
X66154265Y-73145750D02*
X66166169Y-73133845D01*
X66166169Y-73133845D02*
X66189979Y-73121941D01*
X66189979Y-73121941D02*
X66261407Y-73121941D01*
X66261407Y-73121941D02*
X66285217Y-73133845D01*
X66285217Y-73133845D02*
X66297122Y-73145750D01*
X66297122Y-73145750D02*
X66309026Y-73169560D01*
X66309026Y-73169560D02*
X66309026Y-73205274D01*
X66309026Y-73205274D02*
X66297122Y-73229083D01*
X66297122Y-73229083D02*
X66285217Y-73240988D01*
X66285217Y-73240988D02*
X66261407Y-73252893D01*
X66261407Y-73252893D02*
X66189979Y-73252893D01*
X66189979Y-73252893D02*
X66166169Y-73240988D01*
X66166169Y-73240988D02*
X66154265Y-73229083D01*
X66154265Y-73229083D02*
X66142360Y-73205274D01*
X66142360Y-73205274D02*
X66142360Y-73169560D01*
X66392360Y-73526702D02*
X66392360Y-73681464D01*
X66392360Y-73681464D02*
X66297122Y-73598130D01*
X66297122Y-73598130D02*
X66297122Y-73633845D01*
X66297122Y-73633845D02*
X66285217Y-73657654D01*
X66285217Y-73657654D02*
X66273312Y-73669559D01*
X66273312Y-73669559D02*
X66249503Y-73681464D01*
X66249503Y-73681464D02*
X66189979Y-73681464D01*
X66189979Y-73681464D02*
X66166169Y-73669559D01*
X66166169Y-73669559D02*
X66154265Y-73657654D01*
X66154265Y-73657654D02*
X66142360Y-73633845D01*
X66142360Y-73633845D02*
X66142360Y-73562416D01*
X66142360Y-73562416D02*
X66154265Y-73538607D01*
X66154265Y-73538607D02*
X66166169Y-73526702D01*
X66319026Y-101749560D02*
X66116645Y-101749560D01*
X66116645Y-101749560D02*
X66092836Y-101737655D01*
X66092836Y-101737655D02*
X66080931Y-101725751D01*
X66080931Y-101725751D02*
X66069026Y-101701941D01*
X66069026Y-101701941D02*
X66069026Y-101666227D01*
X66069026Y-101666227D02*
X66080931Y-101642417D01*
X66164265Y-101749560D02*
X66152360Y-101725751D01*
X66152360Y-101725751D02*
X66152360Y-101678132D01*
X66152360Y-101678132D02*
X66164265Y-101654322D01*
X66164265Y-101654322D02*
X66176169Y-101642417D01*
X66176169Y-101642417D02*
X66199979Y-101630513D01*
X66199979Y-101630513D02*
X66271407Y-101630513D01*
X66271407Y-101630513D02*
X66295217Y-101642417D01*
X66295217Y-101642417D02*
X66307122Y-101654322D01*
X66307122Y-101654322D02*
X66319026Y-101678132D01*
X66319026Y-101678132D02*
X66319026Y-101725751D01*
X66319026Y-101725751D02*
X66307122Y-101749560D01*
X66319026Y-101868607D02*
X66069026Y-101868607D01*
X66307122Y-101868607D02*
X66319026Y-101892417D01*
X66319026Y-101892417D02*
X66319026Y-101940036D01*
X66319026Y-101940036D02*
X66307122Y-101963845D01*
X66307122Y-101963845D02*
X66295217Y-101975750D01*
X66295217Y-101975750D02*
X66271407Y-101987655D01*
X66271407Y-101987655D02*
X66199979Y-101987655D01*
X66199979Y-101987655D02*
X66176169Y-101975750D01*
X66176169Y-101975750D02*
X66164265Y-101963845D01*
X66164265Y-101963845D02*
X66152360Y-101940036D01*
X66152360Y-101940036D02*
X66152360Y-101892417D01*
X66152360Y-101892417D02*
X66164265Y-101868607D01*
X66152360Y-102094797D02*
X66319026Y-102094797D01*
X66402360Y-102094797D02*
X66390455Y-102082893D01*
X66390455Y-102082893D02*
X66378550Y-102094797D01*
X66378550Y-102094797D02*
X66390455Y-102106702D01*
X66390455Y-102106702D02*
X66402360Y-102094797D01*
X66402360Y-102094797D02*
X66378550Y-102094797D01*
X66152360Y-102249560D02*
X66164265Y-102225750D01*
X66164265Y-102225750D02*
X66176169Y-102213845D01*
X66176169Y-102213845D02*
X66199979Y-102201941D01*
X66199979Y-102201941D02*
X66271407Y-102201941D01*
X66271407Y-102201941D02*
X66295217Y-102213845D01*
X66295217Y-102213845D02*
X66307122Y-102225750D01*
X66307122Y-102225750D02*
X66319026Y-102249560D01*
X66319026Y-102249560D02*
X66319026Y-102285274D01*
X66319026Y-102285274D02*
X66307122Y-102309083D01*
X66307122Y-102309083D02*
X66295217Y-102320988D01*
X66295217Y-102320988D02*
X66271407Y-102332893D01*
X66271407Y-102332893D02*
X66199979Y-102332893D01*
X66199979Y-102332893D02*
X66176169Y-102320988D01*
X66176169Y-102320988D02*
X66164265Y-102309083D01*
X66164265Y-102309083D02*
X66152360Y-102285274D01*
X66152360Y-102285274D02*
X66152360Y-102249560D01*
X66152360Y-102761464D02*
X66152360Y-102618607D01*
X66152360Y-102690035D02*
X66402360Y-102690035D01*
X66402360Y-102690035D02*
X66366645Y-102666226D01*
X66366645Y-102666226D02*
X66342836Y-102642416D01*
X66342836Y-102642416D02*
X66330931Y-102618607D01*
X66378550Y-102856702D02*
X66390455Y-102868606D01*
X66390455Y-102868606D02*
X66402360Y-102892416D01*
X66402360Y-102892416D02*
X66402360Y-102951940D01*
X66402360Y-102951940D02*
X66390455Y-102975749D01*
X66390455Y-102975749D02*
X66378550Y-102987654D01*
X66378550Y-102987654D02*
X66354741Y-102999559D01*
X66354741Y-102999559D02*
X66330931Y-102999559D01*
X66330931Y-102999559D02*
X66295217Y-102987654D01*
X66295217Y-102987654D02*
X66152360Y-102844797D01*
X66152360Y-102844797D02*
X66152360Y-102999559D01*
X66329026Y-98649560D02*
X66126645Y-98649560D01*
X66126645Y-98649560D02*
X66102836Y-98637655D01*
X66102836Y-98637655D02*
X66090931Y-98625751D01*
X66090931Y-98625751D02*
X66079026Y-98601941D01*
X66079026Y-98601941D02*
X66079026Y-98566227D01*
X66079026Y-98566227D02*
X66090931Y-98542417D01*
X66174265Y-98649560D02*
X66162360Y-98625751D01*
X66162360Y-98625751D02*
X66162360Y-98578132D01*
X66162360Y-98578132D02*
X66174265Y-98554322D01*
X66174265Y-98554322D02*
X66186169Y-98542417D01*
X66186169Y-98542417D02*
X66209979Y-98530513D01*
X66209979Y-98530513D02*
X66281407Y-98530513D01*
X66281407Y-98530513D02*
X66305217Y-98542417D01*
X66305217Y-98542417D02*
X66317122Y-98554322D01*
X66317122Y-98554322D02*
X66329026Y-98578132D01*
X66329026Y-98578132D02*
X66329026Y-98625751D01*
X66329026Y-98625751D02*
X66317122Y-98649560D01*
X66329026Y-98768607D02*
X66079026Y-98768607D01*
X66317122Y-98768607D02*
X66329026Y-98792417D01*
X66329026Y-98792417D02*
X66329026Y-98840036D01*
X66329026Y-98840036D02*
X66317122Y-98863845D01*
X66317122Y-98863845D02*
X66305217Y-98875750D01*
X66305217Y-98875750D02*
X66281407Y-98887655D01*
X66281407Y-98887655D02*
X66209979Y-98887655D01*
X66209979Y-98887655D02*
X66186169Y-98875750D01*
X66186169Y-98875750D02*
X66174265Y-98863845D01*
X66174265Y-98863845D02*
X66162360Y-98840036D01*
X66162360Y-98840036D02*
X66162360Y-98792417D01*
X66162360Y-98792417D02*
X66174265Y-98768607D01*
X66162360Y-98994797D02*
X66329026Y-98994797D01*
X66412360Y-98994797D02*
X66400455Y-98982893D01*
X66400455Y-98982893D02*
X66388550Y-98994797D01*
X66388550Y-98994797D02*
X66400455Y-99006702D01*
X66400455Y-99006702D02*
X66412360Y-98994797D01*
X66412360Y-98994797D02*
X66388550Y-98994797D01*
X66162360Y-99149560D02*
X66174265Y-99125750D01*
X66174265Y-99125750D02*
X66186169Y-99113845D01*
X66186169Y-99113845D02*
X66209979Y-99101941D01*
X66209979Y-99101941D02*
X66281407Y-99101941D01*
X66281407Y-99101941D02*
X66305217Y-99113845D01*
X66305217Y-99113845D02*
X66317122Y-99125750D01*
X66317122Y-99125750D02*
X66329026Y-99149560D01*
X66329026Y-99149560D02*
X66329026Y-99185274D01*
X66329026Y-99185274D02*
X66317122Y-99209083D01*
X66317122Y-99209083D02*
X66305217Y-99220988D01*
X66305217Y-99220988D02*
X66281407Y-99232893D01*
X66281407Y-99232893D02*
X66209979Y-99232893D01*
X66209979Y-99232893D02*
X66186169Y-99220988D01*
X66186169Y-99220988D02*
X66174265Y-99209083D01*
X66174265Y-99209083D02*
X66162360Y-99185274D01*
X66162360Y-99185274D02*
X66162360Y-99149560D01*
X66162360Y-99661464D02*
X66162360Y-99518607D01*
X66162360Y-99590035D02*
X66412360Y-99590035D01*
X66412360Y-99590035D02*
X66376645Y-99566226D01*
X66376645Y-99566226D02*
X66352836Y-99542416D01*
X66352836Y-99542416D02*
X66340931Y-99518607D01*
X66162360Y-99899559D02*
X66162360Y-99756702D01*
X66162360Y-99828130D02*
X66412360Y-99828130D01*
X66412360Y-99828130D02*
X66376645Y-99804321D01*
X66376645Y-99804321D02*
X66352836Y-99780511D01*
X66352836Y-99780511D02*
X66340931Y-99756702D01*
X66369026Y-104699560D02*
X66166645Y-104699560D01*
X66166645Y-104699560D02*
X66142836Y-104687655D01*
X66142836Y-104687655D02*
X66130931Y-104675751D01*
X66130931Y-104675751D02*
X66119026Y-104651941D01*
X66119026Y-104651941D02*
X66119026Y-104616227D01*
X66119026Y-104616227D02*
X66130931Y-104592417D01*
X66214265Y-104699560D02*
X66202360Y-104675751D01*
X66202360Y-104675751D02*
X66202360Y-104628132D01*
X66202360Y-104628132D02*
X66214265Y-104604322D01*
X66214265Y-104604322D02*
X66226169Y-104592417D01*
X66226169Y-104592417D02*
X66249979Y-104580513D01*
X66249979Y-104580513D02*
X66321407Y-104580513D01*
X66321407Y-104580513D02*
X66345217Y-104592417D01*
X66345217Y-104592417D02*
X66357122Y-104604322D01*
X66357122Y-104604322D02*
X66369026Y-104628132D01*
X66369026Y-104628132D02*
X66369026Y-104675751D01*
X66369026Y-104675751D02*
X66357122Y-104699560D01*
X66369026Y-104818607D02*
X66119026Y-104818607D01*
X66357122Y-104818607D02*
X66369026Y-104842417D01*
X66369026Y-104842417D02*
X66369026Y-104890036D01*
X66369026Y-104890036D02*
X66357122Y-104913845D01*
X66357122Y-104913845D02*
X66345217Y-104925750D01*
X66345217Y-104925750D02*
X66321407Y-104937655D01*
X66321407Y-104937655D02*
X66249979Y-104937655D01*
X66249979Y-104937655D02*
X66226169Y-104925750D01*
X66226169Y-104925750D02*
X66214265Y-104913845D01*
X66214265Y-104913845D02*
X66202360Y-104890036D01*
X66202360Y-104890036D02*
X66202360Y-104842417D01*
X66202360Y-104842417D02*
X66214265Y-104818607D01*
X66202360Y-105044797D02*
X66369026Y-105044797D01*
X66452360Y-105044797D02*
X66440455Y-105032893D01*
X66440455Y-105032893D02*
X66428550Y-105044797D01*
X66428550Y-105044797D02*
X66440455Y-105056702D01*
X66440455Y-105056702D02*
X66452360Y-105044797D01*
X66452360Y-105044797D02*
X66428550Y-105044797D01*
X66202360Y-105199560D02*
X66214265Y-105175750D01*
X66214265Y-105175750D02*
X66226169Y-105163845D01*
X66226169Y-105163845D02*
X66249979Y-105151941D01*
X66249979Y-105151941D02*
X66321407Y-105151941D01*
X66321407Y-105151941D02*
X66345217Y-105163845D01*
X66345217Y-105163845D02*
X66357122Y-105175750D01*
X66357122Y-105175750D02*
X66369026Y-105199560D01*
X66369026Y-105199560D02*
X66369026Y-105235274D01*
X66369026Y-105235274D02*
X66357122Y-105259083D01*
X66357122Y-105259083D02*
X66345217Y-105270988D01*
X66345217Y-105270988D02*
X66321407Y-105282893D01*
X66321407Y-105282893D02*
X66249979Y-105282893D01*
X66249979Y-105282893D02*
X66226169Y-105270988D01*
X66226169Y-105270988D02*
X66214265Y-105259083D01*
X66214265Y-105259083D02*
X66202360Y-105235274D01*
X66202360Y-105235274D02*
X66202360Y-105199560D01*
X66202360Y-105711464D02*
X66202360Y-105568607D01*
X66202360Y-105640035D02*
X66452360Y-105640035D01*
X66452360Y-105640035D02*
X66416645Y-105616226D01*
X66416645Y-105616226D02*
X66392836Y-105592416D01*
X66392836Y-105592416D02*
X66380931Y-105568607D01*
X66452360Y-105794797D02*
X66452360Y-105949559D01*
X66452360Y-105949559D02*
X66357122Y-105866225D01*
X66357122Y-105866225D02*
X66357122Y-105901940D01*
X66357122Y-105901940D02*
X66345217Y-105925749D01*
X66345217Y-105925749D02*
X66333312Y-105937654D01*
X66333312Y-105937654D02*
X66309503Y-105949559D01*
X66309503Y-105949559D02*
X66249979Y-105949559D01*
X66249979Y-105949559D02*
X66226169Y-105937654D01*
X66226169Y-105937654D02*
X66214265Y-105925749D01*
X66214265Y-105925749D02*
X66202360Y-105901940D01*
X66202360Y-105901940D02*
X66202360Y-105830511D01*
X66202360Y-105830511D02*
X66214265Y-105806702D01*
X66214265Y-105806702D02*
X66226169Y-105794797D01*
X66419026Y-114039560D02*
X66216645Y-114039560D01*
X66216645Y-114039560D02*
X66192836Y-114027655D01*
X66192836Y-114027655D02*
X66180931Y-114015751D01*
X66180931Y-114015751D02*
X66169026Y-113991941D01*
X66169026Y-113991941D02*
X66169026Y-113956227D01*
X66169026Y-113956227D02*
X66180931Y-113932417D01*
X66264265Y-114039560D02*
X66252360Y-114015751D01*
X66252360Y-114015751D02*
X66252360Y-113968132D01*
X66252360Y-113968132D02*
X66264265Y-113944322D01*
X66264265Y-113944322D02*
X66276169Y-113932417D01*
X66276169Y-113932417D02*
X66299979Y-113920513D01*
X66299979Y-113920513D02*
X66371407Y-113920513D01*
X66371407Y-113920513D02*
X66395217Y-113932417D01*
X66395217Y-113932417D02*
X66407122Y-113944322D01*
X66407122Y-113944322D02*
X66419026Y-113968132D01*
X66419026Y-113968132D02*
X66419026Y-114015751D01*
X66419026Y-114015751D02*
X66407122Y-114039560D01*
X66419026Y-114158607D02*
X66252360Y-114158607D01*
X66395217Y-114158607D02*
X66407122Y-114170512D01*
X66407122Y-114170512D02*
X66419026Y-114194322D01*
X66419026Y-114194322D02*
X66419026Y-114230036D01*
X66419026Y-114230036D02*
X66407122Y-114253845D01*
X66407122Y-114253845D02*
X66383312Y-114265750D01*
X66383312Y-114265750D02*
X66252360Y-114265750D01*
X66252360Y-114491940D02*
X66502360Y-114491940D01*
X66264265Y-114491940D02*
X66252360Y-114468131D01*
X66252360Y-114468131D02*
X66252360Y-114420512D01*
X66252360Y-114420512D02*
X66264265Y-114396702D01*
X66264265Y-114396702D02*
X66276169Y-114384797D01*
X66276169Y-114384797D02*
X66299979Y-114372893D01*
X66299979Y-114372893D02*
X66371407Y-114372893D01*
X66371407Y-114372893D02*
X66395217Y-114384797D01*
X66395217Y-114384797D02*
X66407122Y-114396702D01*
X66407122Y-114396702D02*
X66419026Y-114420512D01*
X66419026Y-114420512D02*
X66419026Y-114468131D01*
X66419026Y-114468131D02*
X66407122Y-114491940D01*
D11*
X78324879Y-97760438D02*
X78320117Y-97765200D01*
X78320117Y-97765200D02*
X78305831Y-97769961D01*
X78305831Y-97769961D02*
X78296307Y-97769961D01*
X78296307Y-97769961D02*
X78282022Y-97765200D01*
X78282022Y-97765200D02*
X78272498Y-97755676D01*
X78272498Y-97755676D02*
X78267736Y-97746152D01*
X78267736Y-97746152D02*
X78262974Y-97727104D01*
X78262974Y-97727104D02*
X78262974Y-97712819D01*
X78262974Y-97712819D02*
X78267736Y-97693771D01*
X78267736Y-97693771D02*
X78272498Y-97684247D01*
X78272498Y-97684247D02*
X78282022Y-97674723D01*
X78282022Y-97674723D02*
X78296307Y-97669961D01*
X78296307Y-97669961D02*
X78305831Y-97669961D01*
X78305831Y-97669961D02*
X78320117Y-97674723D01*
X78320117Y-97674723D02*
X78324879Y-97679485D01*
X78420117Y-97769961D02*
X78362974Y-97769961D01*
X78391546Y-97769961D02*
X78391546Y-97669961D01*
X78391546Y-97669961D02*
X78382022Y-97684247D01*
X78382022Y-97684247D02*
X78372498Y-97693771D01*
X78372498Y-97693771D02*
X78362974Y-97698533D01*
X78458212Y-97679485D02*
X78462974Y-97674723D01*
X78462974Y-97674723D02*
X78472498Y-97669961D01*
X78472498Y-97669961D02*
X78496307Y-97669961D01*
X78496307Y-97669961D02*
X78505831Y-97674723D01*
X78505831Y-97674723D02*
X78510593Y-97679485D01*
X78510593Y-97679485D02*
X78515355Y-97689009D01*
X78515355Y-97689009D02*
X78515355Y-97698533D01*
X78515355Y-97698533D02*
X78510593Y-97712819D01*
X78510593Y-97712819D02*
X78453450Y-97769961D01*
X78453450Y-97769961D02*
X78515355Y-97769961D01*
D12*
X74357260Y-76484820D02*
X74357260Y-77294343D01*
X74357260Y-77294343D02*
X74404879Y-77389581D01*
X74404879Y-77389581D02*
X74452498Y-77437201D01*
X74452498Y-77437201D02*
X74547736Y-77484820D01*
X74547736Y-77484820D02*
X74738212Y-77484820D01*
X74738212Y-77484820D02*
X74833450Y-77437201D01*
X74833450Y-77437201D02*
X74881069Y-77389581D01*
X74881069Y-77389581D02*
X74928688Y-77294343D01*
X74928688Y-77294343D02*
X74928688Y-76484820D01*
X75928688Y-77484820D02*
X75357260Y-77484820D01*
X75642974Y-77484820D02*
X75642974Y-76484820D01*
X75642974Y-76484820D02*
X75547736Y-76627677D01*
X75547736Y-76627677D02*
X75452498Y-76722915D01*
X75452498Y-76722915D02*
X75357260Y-76770534D01*
D13*
X78478212Y-72364809D02*
X78478212Y-72769571D01*
X78478212Y-72769571D02*
X78502022Y-72817190D01*
X78502022Y-72817190D02*
X78525831Y-72841000D01*
X78525831Y-72841000D02*
X78573450Y-72864809D01*
X78573450Y-72864809D02*
X78668688Y-72864809D01*
X78668688Y-72864809D02*
X78716307Y-72841000D01*
X78716307Y-72841000D02*
X78740117Y-72817190D01*
X78740117Y-72817190D02*
X78763926Y-72769571D01*
X78763926Y-72769571D02*
X78763926Y-72364809D01*
X78954403Y-72364809D02*
X79263927Y-72364809D01*
X79263927Y-72364809D02*
X79097260Y-72555285D01*
X79097260Y-72555285D02*
X79168689Y-72555285D01*
X79168689Y-72555285D02*
X79216308Y-72579095D01*
X79216308Y-72579095D02*
X79240117Y-72602904D01*
X79240117Y-72602904D02*
X79263927Y-72650523D01*
X79263927Y-72650523D02*
X79263927Y-72769571D01*
X79263927Y-72769571D02*
X79240117Y-72817190D01*
X79240117Y-72817190D02*
X79216308Y-72841000D01*
X79216308Y-72841000D02*
X79168689Y-72864809D01*
X79168689Y-72864809D02*
X79025832Y-72864809D01*
X79025832Y-72864809D02*
X78978213Y-72841000D01*
X78978213Y-72841000D02*
X78954403Y-72817190D01*
D12*
X72155832Y-100357200D02*
X72298689Y-100404819D01*
X72298689Y-100404819D02*
X72536784Y-100404819D01*
X72536784Y-100404819D02*
X72632022Y-100357200D01*
X72632022Y-100357200D02*
X72679641Y-100309580D01*
X72679641Y-100309580D02*
X72727260Y-100214342D01*
X72727260Y-100214342D02*
X72727260Y-100119104D01*
X72727260Y-100119104D02*
X72679641Y-100023866D01*
X72679641Y-100023866D02*
X72632022Y-99976247D01*
X72632022Y-99976247D02*
X72536784Y-99928628D01*
X72536784Y-99928628D02*
X72346308Y-99881009D01*
X72346308Y-99881009D02*
X72251070Y-99833390D01*
X72251070Y-99833390D02*
X72203451Y-99785771D01*
X72203451Y-99785771D02*
X72155832Y-99690533D01*
X72155832Y-99690533D02*
X72155832Y-99595295D01*
X72155832Y-99595295D02*
X72203451Y-99500057D01*
X72203451Y-99500057D02*
X72251070Y-99452438D01*
X72251070Y-99452438D02*
X72346308Y-99404819D01*
X72346308Y-99404819D02*
X72584403Y-99404819D01*
X72584403Y-99404819D02*
X72727260Y-99452438D01*
X73060594Y-99404819D02*
X73298689Y-100404819D01*
X73298689Y-100404819D02*
X73489165Y-99690533D01*
X73489165Y-99690533D02*
X73679641Y-100404819D01*
X73679641Y-100404819D02*
X73917737Y-99404819D01*
X74822498Y-100404819D02*
X74251070Y-100404819D01*
X74536784Y-100404819D02*
X74536784Y-99404819D01*
X74536784Y-99404819D02*
X74441546Y-99547676D01*
X74441546Y-99547676D02*
X74346308Y-99642914D01*
X74346308Y-99642914D02*
X74251070Y-99690533D01*
X78339760Y-104329819D02*
X78339760Y-105139342D01*
X78339760Y-105139342D02*
X78387379Y-105234580D01*
X78387379Y-105234580D02*
X78434998Y-105282200D01*
X78434998Y-105282200D02*
X78530236Y-105329819D01*
X78530236Y-105329819D02*
X78720712Y-105329819D01*
X78720712Y-105329819D02*
X78815950Y-105282200D01*
X78815950Y-105282200D02*
X78863569Y-105234580D01*
X78863569Y-105234580D02*
X78911188Y-105139342D01*
X78911188Y-105139342D02*
X78911188Y-104329819D01*
X79815950Y-104663152D02*
X79815950Y-105329819D01*
X79577855Y-104282200D02*
X79339760Y-104996485D01*
X79339760Y-104996485D02*
X79958807Y-104996485D01*
D11*
X80197498Y-86410438D02*
X80192736Y-86415200D01*
X80192736Y-86415200D02*
X80178450Y-86419961D01*
X80178450Y-86419961D02*
X80168926Y-86419961D01*
X80168926Y-86419961D02*
X80154641Y-86415200D01*
X80154641Y-86415200D02*
X80145117Y-86405676D01*
X80145117Y-86405676D02*
X80140355Y-86396152D01*
X80140355Y-86396152D02*
X80135593Y-86377104D01*
X80135593Y-86377104D02*
X80135593Y-86362819D01*
X80135593Y-86362819D02*
X80140355Y-86343771D01*
X80140355Y-86343771D02*
X80145117Y-86334247D01*
X80145117Y-86334247D02*
X80154641Y-86324723D01*
X80154641Y-86324723D02*
X80168926Y-86319961D01*
X80168926Y-86319961D02*
X80178450Y-86319961D01*
X80178450Y-86319961D02*
X80192736Y-86324723D01*
X80192736Y-86324723D02*
X80197498Y-86329485D01*
X80235593Y-86329485D02*
X80240355Y-86324723D01*
X80240355Y-86324723D02*
X80249879Y-86319961D01*
X80249879Y-86319961D02*
X80273688Y-86319961D01*
X80273688Y-86319961D02*
X80283212Y-86324723D01*
X80283212Y-86324723D02*
X80287974Y-86329485D01*
X80287974Y-86329485D02*
X80292736Y-86339009D01*
X80292736Y-86339009D02*
X80292736Y-86348533D01*
X80292736Y-86348533D02*
X80287974Y-86362819D01*
X80287974Y-86362819D02*
X80230831Y-86419961D01*
X80230831Y-86419961D02*
X80292736Y-86419961D01*
X69347498Y-90635438D02*
X69342736Y-90640200D01*
X69342736Y-90640200D02*
X69328450Y-90644961D01*
X69328450Y-90644961D02*
X69318926Y-90644961D01*
X69318926Y-90644961D02*
X69304641Y-90640200D01*
X69304641Y-90640200D02*
X69295117Y-90630676D01*
X69295117Y-90630676D02*
X69290355Y-90621152D01*
X69290355Y-90621152D02*
X69285593Y-90602104D01*
X69285593Y-90602104D02*
X69285593Y-90587819D01*
X69285593Y-90587819D02*
X69290355Y-90568771D01*
X69290355Y-90568771D02*
X69295117Y-90559247D01*
X69295117Y-90559247D02*
X69304641Y-90549723D01*
X69304641Y-90549723D02*
X69318926Y-90544961D01*
X69318926Y-90544961D02*
X69328450Y-90544961D01*
X69328450Y-90544961D02*
X69342736Y-90549723D01*
X69342736Y-90549723D02*
X69347498Y-90554485D01*
X69433212Y-90544961D02*
X69414165Y-90544961D01*
X69414165Y-90544961D02*
X69404641Y-90549723D01*
X69404641Y-90549723D02*
X69399879Y-90554485D01*
X69399879Y-90554485D02*
X69390355Y-90568771D01*
X69390355Y-90568771D02*
X69385593Y-90587819D01*
X69385593Y-90587819D02*
X69385593Y-90625914D01*
X69385593Y-90625914D02*
X69390355Y-90635438D01*
X69390355Y-90635438D02*
X69395117Y-90640200D01*
X69395117Y-90640200D02*
X69404641Y-90644961D01*
X69404641Y-90644961D02*
X69423688Y-90644961D01*
X69423688Y-90644961D02*
X69433212Y-90640200D01*
X69433212Y-90640200D02*
X69437974Y-90635438D01*
X69437974Y-90635438D02*
X69442736Y-90625914D01*
X69442736Y-90625914D02*
X69442736Y-90602104D01*
X69442736Y-90602104D02*
X69437974Y-90592580D01*
X69437974Y-90592580D02*
X69433212Y-90587819D01*
X69433212Y-90587819D02*
X69423688Y-90583057D01*
X69423688Y-90583057D02*
X69404641Y-90583057D01*
X69404641Y-90583057D02*
X69395117Y-90587819D01*
X69395117Y-90587819D02*
X69390355Y-90592580D01*
X69390355Y-90592580D02*
X69385593Y-90602104D01*
D12*
X71723745Y-103842857D02*
X71771365Y-103890476D01*
X71771365Y-103890476D02*
X71818984Y-104033333D01*
X71818984Y-104033333D02*
X71818984Y-104128571D01*
X71818984Y-104128571D02*
X71771365Y-104271428D01*
X71771365Y-104271428D02*
X71676126Y-104366666D01*
X71676126Y-104366666D02*
X71580888Y-104414285D01*
X71580888Y-104414285D02*
X71390412Y-104461904D01*
X71390412Y-104461904D02*
X71247555Y-104461904D01*
X71247555Y-104461904D02*
X71057079Y-104414285D01*
X71057079Y-104414285D02*
X70961841Y-104366666D01*
X70961841Y-104366666D02*
X70866603Y-104271428D01*
X70866603Y-104271428D02*
X70818984Y-104128571D01*
X70818984Y-104128571D02*
X70818984Y-104033333D01*
X70818984Y-104033333D02*
X70866603Y-103890476D01*
X70866603Y-103890476D02*
X70914222Y-103842857D01*
X71818984Y-102890476D02*
X71818984Y-103461904D01*
X71818984Y-103176190D02*
X70818984Y-103176190D01*
X70818984Y-103176190D02*
X70961841Y-103271428D01*
X70961841Y-103271428D02*
X71057079Y-103366666D01*
X71057079Y-103366666D02*
X71104698Y-103461904D01*
X70818984Y-102271428D02*
X70818984Y-102176190D01*
X70818984Y-102176190D02*
X70866603Y-102080952D01*
X70866603Y-102080952D02*
X70914222Y-102033333D01*
X70914222Y-102033333D02*
X71009460Y-101985714D01*
X71009460Y-101985714D02*
X71199936Y-101938095D01*
X71199936Y-101938095D02*
X71438031Y-101938095D01*
X71438031Y-101938095D02*
X71628507Y-101985714D01*
X71628507Y-101985714D02*
X71723745Y-102033333D01*
X71723745Y-102033333D02*
X71771365Y-102080952D01*
X71771365Y-102080952D02*
X71818984Y-102176190D01*
X71818984Y-102176190D02*
X71818984Y-102271428D01*
X71818984Y-102271428D02*
X71771365Y-102366666D01*
X71771365Y-102366666D02*
X71723745Y-102414285D01*
X71723745Y-102414285D02*
X71628507Y-102461904D01*
X71628507Y-102461904D02*
X71438031Y-102509523D01*
X71438031Y-102509523D02*
X71199936Y-102509523D01*
X71199936Y-102509523D02*
X71009460Y-102461904D01*
X71009460Y-102461904D02*
X70914222Y-102414285D01*
X70914222Y-102414285D02*
X70866603Y-102366666D01*
X70866603Y-102366666D02*
X70818984Y-102271428D01*
X67788926Y-90450057D02*
X67693688Y-90402438D01*
X67693688Y-90402438D02*
X67598450Y-90307200D01*
X67598450Y-90307200D02*
X67455593Y-90164342D01*
X67455593Y-90164342D02*
X67360355Y-90116723D01*
X67360355Y-90116723D02*
X67265117Y-90116723D01*
X67312736Y-90354819D02*
X67217498Y-90307200D01*
X67217498Y-90307200D02*
X67122260Y-90211961D01*
X67122260Y-90211961D02*
X67074641Y-90021485D01*
X67074641Y-90021485D02*
X67074641Y-89688152D01*
X67074641Y-89688152D02*
X67122260Y-89497676D01*
X67122260Y-89497676D02*
X67217498Y-89402438D01*
X67217498Y-89402438D02*
X67312736Y-89354819D01*
X67312736Y-89354819D02*
X67503212Y-89354819D01*
X67503212Y-89354819D02*
X67598450Y-89402438D01*
X67598450Y-89402438D02*
X67693688Y-89497676D01*
X67693688Y-89497676D02*
X67741307Y-89688152D01*
X67741307Y-89688152D02*
X67741307Y-90021485D01*
X67741307Y-90021485D02*
X67693688Y-90211961D01*
X67693688Y-90211961D02*
X67598450Y-90307200D01*
X67598450Y-90307200D02*
X67503212Y-90354819D01*
X67503212Y-90354819D02*
X67312736Y-90354819D01*
X68693688Y-90354819D02*
X68122260Y-90354819D01*
X68407974Y-90354819D02*
X68407974Y-89354819D01*
X68407974Y-89354819D02*
X68312736Y-89497676D01*
X68312736Y-89497676D02*
X68217498Y-89592914D01*
X68217498Y-89592914D02*
X68122260Y-89640533D01*
X69203984Y-95411904D02*
X70013507Y-95411904D01*
X70013507Y-95411904D02*
X70108745Y-95364285D01*
X70108745Y-95364285D02*
X70156365Y-95316666D01*
X70156365Y-95316666D02*
X70203984Y-95221428D01*
X70203984Y-95221428D02*
X70203984Y-95030952D01*
X70203984Y-95030952D02*
X70156365Y-94935714D01*
X70156365Y-94935714D02*
X70108745Y-94888095D01*
X70108745Y-94888095D02*
X70013507Y-94840476D01*
X70013507Y-94840476D02*
X69203984Y-94840476D01*
X69299222Y-94411904D02*
X69251603Y-94364285D01*
X69251603Y-94364285D02*
X69203984Y-94269047D01*
X69203984Y-94269047D02*
X69203984Y-94030952D01*
X69203984Y-94030952D02*
X69251603Y-93935714D01*
X69251603Y-93935714D02*
X69299222Y-93888095D01*
X69299222Y-93888095D02*
X69394460Y-93840476D01*
X69394460Y-93840476D02*
X69489698Y-93840476D01*
X69489698Y-93840476D02*
X69632555Y-93888095D01*
X69632555Y-93888095D02*
X70203984Y-94459523D01*
X70203984Y-94459523D02*
X70203984Y-93840476D01*
D13*
X70917617Y-75649809D02*
X70917617Y-75149809D01*
X70917617Y-75149809D02*
X71036665Y-75149809D01*
X71036665Y-75149809D02*
X71108093Y-75173619D01*
X71108093Y-75173619D02*
X71155712Y-75221238D01*
X71155712Y-75221238D02*
X71179522Y-75268857D01*
X71179522Y-75268857D02*
X71203331Y-75364095D01*
X71203331Y-75364095D02*
X71203331Y-75435523D01*
X71203331Y-75435523D02*
X71179522Y-75530761D01*
X71179522Y-75530761D02*
X71155712Y-75578380D01*
X71155712Y-75578380D02*
X71108093Y-75626000D01*
X71108093Y-75626000D02*
X71036665Y-75649809D01*
X71036665Y-75649809D02*
X70917617Y-75649809D01*
X71369998Y-75149809D02*
X71679522Y-75149809D01*
X71679522Y-75149809D02*
X71512855Y-75340285D01*
X71512855Y-75340285D02*
X71584284Y-75340285D01*
X71584284Y-75340285D02*
X71631903Y-75364095D01*
X71631903Y-75364095D02*
X71655712Y-75387904D01*
X71655712Y-75387904D02*
X71679522Y-75435523D01*
X71679522Y-75435523D02*
X71679522Y-75554571D01*
X71679522Y-75554571D02*
X71655712Y-75602190D01*
X71655712Y-75602190D02*
X71631903Y-75626000D01*
X71631903Y-75626000D02*
X71584284Y-75649809D01*
X71584284Y-75649809D02*
X71441427Y-75649809D01*
X71441427Y-75649809D02*
X71393808Y-75626000D01*
X71393808Y-75626000D02*
X71369998Y-75602190D01*
D12*
X79882974Y-93898628D02*
X79882974Y-94374819D01*
X79549641Y-93374819D02*
X79882974Y-93898628D01*
X79882974Y-93898628D02*
X80216307Y-93374819D01*
X81073450Y-94374819D02*
X80502022Y-94374819D01*
X80787736Y-94374819D02*
X80787736Y-93374819D01*
X80787736Y-93374819D02*
X80692498Y-93517676D01*
X80692498Y-93517676D02*
X80597260Y-93612914D01*
X80597260Y-93612914D02*
X80502022Y-93660533D01*
X73980831Y-66204819D02*
X73980831Y-66919104D01*
X73980831Y-66919104D02*
X73933212Y-67061961D01*
X73933212Y-67061961D02*
X73837974Y-67157200D01*
X73837974Y-67157200D02*
X73695117Y-67204819D01*
X73695117Y-67204819D02*
X73599879Y-67204819D01*
X74980831Y-67204819D02*
X74409403Y-67204819D01*
X74695117Y-67204819D02*
X74695117Y-66204819D01*
X74695117Y-66204819D02*
X74599879Y-66347676D01*
X74599879Y-66347676D02*
X74504641Y-66442914D01*
X74504641Y-66442914D02*
X74409403Y-66490533D01*
D11*
X69372498Y-89419961D02*
X69339165Y-89372342D01*
X69315355Y-89419961D02*
X69315355Y-89319961D01*
X69315355Y-89319961D02*
X69353450Y-89319961D01*
X69353450Y-89319961D02*
X69362974Y-89324723D01*
X69362974Y-89324723D02*
X69367736Y-89329485D01*
X69367736Y-89329485D02*
X69372498Y-89339009D01*
X69372498Y-89339009D02*
X69372498Y-89353295D01*
X69372498Y-89353295D02*
X69367736Y-89362819D01*
X69367736Y-89362819D02*
X69362974Y-89367580D01*
X69362974Y-89367580D02*
X69353450Y-89372342D01*
X69353450Y-89372342D02*
X69315355Y-89372342D01*
X69462974Y-89319961D02*
X69415355Y-89319961D01*
X69415355Y-89319961D02*
X69410593Y-89367580D01*
X69410593Y-89367580D02*
X69415355Y-89362819D01*
X69415355Y-89362819D02*
X69424879Y-89358057D01*
X69424879Y-89358057D02*
X69448688Y-89358057D01*
X69448688Y-89358057D02*
X69458212Y-89362819D01*
X69458212Y-89362819D02*
X69462974Y-89367580D01*
X69462974Y-89367580D02*
X69467736Y-89377104D01*
X69467736Y-89377104D02*
X69467736Y-89400914D01*
X69467736Y-89400914D02*
X69462974Y-89410438D01*
X69462974Y-89410438D02*
X69458212Y-89415200D01*
X69458212Y-89415200D02*
X69448688Y-89419961D01*
X69448688Y-89419961D02*
X69424879Y-89419961D01*
X69424879Y-89419961D02*
X69415355Y-89415200D01*
X69415355Y-89415200D02*
X69410593Y-89410438D01*
D12*
X71030831Y-106054819D02*
X71030831Y-106769104D01*
X71030831Y-106769104D02*
X70983212Y-106911961D01*
X70983212Y-106911961D02*
X70887974Y-107007200D01*
X70887974Y-107007200D02*
X70745117Y-107054819D01*
X70745117Y-107054819D02*
X70649879Y-107054819D01*
X71459403Y-106150057D02*
X71507022Y-106102438D01*
X71507022Y-106102438D02*
X71602260Y-106054819D01*
X71602260Y-106054819D02*
X71840355Y-106054819D01*
X71840355Y-106054819D02*
X71935593Y-106102438D01*
X71935593Y-106102438D02*
X71983212Y-106150057D01*
X71983212Y-106150057D02*
X72030831Y-106245295D01*
X72030831Y-106245295D02*
X72030831Y-106340533D01*
X72030831Y-106340533D02*
X71983212Y-106483390D01*
X71983212Y-106483390D02*
X71411784Y-107054819D01*
X71411784Y-107054819D02*
X72030831Y-107054819D01*
%TO.C,D4*%
D14*
X75019165Y-109650000D02*
G75*
G02*
X74919165Y-109650000I-50000J0D01*
G01*
X74919165Y-109650000D02*
G75*
G02*
X75019165Y-109650000I50000J0D01*
G01*
%TO.C,U1*%
D15*
X69325967Y-82903472D02*
X69785586Y-82443853D01*
X69785586Y-83363091D02*
X69325967Y-82903472D01*
X73971659Y-78257780D02*
X74431278Y-77798161D01*
X74431278Y-77798161D02*
X74890897Y-78257780D01*
X74431278Y-88008783D02*
X73971659Y-87549164D01*
X74890897Y-87549164D02*
X74431278Y-88008783D01*
X79076970Y-82443853D02*
X79536589Y-82903472D01*
X79536589Y-82903472D02*
X79076970Y-83363091D01*
X69665378Y-83992416D02*
X69601739Y-84395467D01*
X69262327Y-84056056D01*
X69665378Y-83992416D01*
G36*
X69601739Y-84395467D02*
G01*
X69262327Y-84056056D01*
X69665378Y-83992416D01*
X69601739Y-84395467D01*
G37*
%TO.C,U3*%
X78554166Y-73190000D02*
X81274166Y-73190000D01*
X81274166Y-75960000D02*
X78554166Y-75960000D01*
X78024166Y-73575000D02*
X77694166Y-73815000D01*
X77694166Y-73335001D01*
X78024166Y-73575000D01*
G36*
X78024166Y-73575000D02*
G01*
X77694166Y-73815000D01*
X77694166Y-73335001D01*
X78024166Y-73575000D01*
G37*
%TO.C,SW1*%
X71289165Y-102450000D02*
X71289165Y-102350000D01*
X71289165Y-103950000D02*
X75689165Y-103950000D01*
X75689165Y-100850000D02*
X71289165Y-100850000D01*
X75689165Y-102450000D02*
X75689165Y-102350000D01*
%TO.C,D5*%
D14*
X81991665Y-70230000D02*
G75*
G02*
X81891665Y-70230000I-50000J0D01*
G01*
X81891665Y-70230000D02*
G75*
G02*
X81991665Y-70230000I50000J0D01*
G01*
%TO.C,U4*%
D15*
X78191665Y-100915000D02*
X80011665Y-100915000D01*
X78191665Y-100965000D02*
X78191665Y-100915000D01*
X78191665Y-102865000D02*
X78191665Y-102085000D01*
X78191665Y-104035000D02*
X78191665Y-103985000D01*
X80011665Y-100915000D02*
X80011665Y-100965000D01*
X80011665Y-103985000D02*
X80011665Y-104035000D01*
X80011665Y-104035000D02*
X78191665Y-104035000D01*
X80551665Y-103985000D02*
X80791665Y-104315000D01*
X80311665Y-104315000D01*
X80551665Y-103985000D01*
G36*
X80791665Y-104315000D02*
G01*
X80311665Y-104315000D01*
X80551665Y-103985000D01*
X80791665Y-104315000D01*
G37*
%TO.C,D2*%
D14*
X76699165Y-108100000D02*
G75*
G02*
X76599165Y-108100000I-50000J0D01*
G01*
X76599165Y-108100000D02*
G75*
G02*
X76699165Y-108100000I50000J0D01*
G01*
%TO.C,Q1*%
D15*
X68534165Y-89000000D02*
X67234165Y-89000000D01*
X68534165Y-90800000D02*
X67234165Y-90800000D01*
D12*
X66709165Y-89390000D02*
G75*
G02*
X66559165Y-89390000I-75000J0D01*
G01*
X66559165Y-89390000D02*
G75*
G02*
X66709165Y-89390000I75000J0D01*
G01*
%TO.C,U2*%
D15*
X70589165Y-90540000D02*
X71284165Y-90540000D01*
X70589165Y-98760000D02*
X70589165Y-90540000D01*
X71284165Y-98760000D02*
X70589165Y-98760000D01*
X76114165Y-90540000D02*
X76809165Y-90540000D01*
X76809165Y-90540000D02*
X76809165Y-98760000D01*
X76809165Y-98760000D02*
X76114165Y-98760000D01*
X71789165Y-98990000D02*
X72029165Y-99320000D01*
X71549165Y-99320000D01*
X71789165Y-98990000D01*
G36*
X72029165Y-99320000D02*
G01*
X71549165Y-99320000D01*
X71789165Y-98990000D01*
X72029165Y-99320000D01*
G37*
%TO.C,D3*%
X73474165Y-74425000D02*
X69614165Y-74425000D01*
X73474165Y-76425000D02*
X69614165Y-76425000D01*
X73474165Y-76425000D02*
X73474165Y-74425000D01*
%TO.C,D1*%
D14*
X79047278Y-76666888D02*
G75*
G02*
X78947276Y-76666888I-50001J0D01*
G01*
X78947276Y-76666888D02*
G75*
G02*
X79047278Y-76666888I50001J0D01*
G01*
%TO.C,Y1*%
D15*
X77204165Y-90440000D02*
X77204165Y-97110000D01*
X81224165Y-90440000D02*
X77204165Y-90440000D01*
X81224165Y-97110000D02*
X81224165Y-90440000D01*
%TO.C,J1*%
X69734165Y-62965000D02*
X78894165Y-62965000D01*
X69734165Y-64670000D02*
X69734165Y-62965000D01*
X69734165Y-66680000D02*
X69734165Y-68600000D01*
X78894165Y-62965000D02*
X78894165Y-64670000D01*
X78894165Y-68600000D02*
X78894165Y-66680000D01*
%TO.C,J2*%
X68304165Y-107690000D02*
X68304165Y-115510000D01*
X68304165Y-109290000D02*
X69224165Y-109290000D01*
X68304165Y-115510000D02*
X74424165Y-115510000D01*
X69224165Y-107690000D02*
X68304165Y-107690000D01*
X69224165Y-109290000D02*
X69224165Y-107690000D01*
X69504165Y-109290000D02*
X69224165Y-109290000D01*
X69504165Y-109290000D02*
X69504165Y-108075000D01*
X69564165Y-113250000D02*
X69564165Y-115510000D01*
X70064165Y-113250000D02*
X70064165Y-115510000D01*
X70864165Y-111150000D02*
X71864165Y-111150000D01*
X70864165Y-115510000D02*
X70864165Y-111150000D01*
X71864165Y-111150000D02*
X71864165Y-115510000D01*
X73504165Y-107690000D02*
X73504165Y-109290000D01*
X73504165Y-109290000D02*
X73224165Y-109290000D01*
X74424165Y-107690000D02*
X73504165Y-107690000D01*
X74424165Y-109290000D02*
X73504165Y-109290000D01*
X74424165Y-115510000D02*
X74424165Y-107690000D01*
X69064165Y-111650000D02*
X70064165Y-111650000D01*
X70064165Y-113250000D01*
X69064165Y-113250000D01*
X69064165Y-111650000D01*
X72664165Y-111650000D02*
X73664165Y-111650000D01*
X73664165Y-113250000D01*
X72664165Y-113250000D01*
X72664165Y-111650000D01*
%TD*%
M02*
