%TF.GenerationSoftware,KiCad,Pcbnew,10.0.5*%
%TF.CreationDate,2026-09-20T18:59:27-04:00*%
%TF.ProjectId,devboard,64657662-6f61-4726-942e-6b696361645f,3*%
%TF.SameCoordinates,Original*%
%TF.FileFunction,Paste,Top*%
%TF.FilePolarity,Positive*%
%FSLAX46Y46*%
G04 Gerber Fmt 4.6, Leading zero omitted, Abs format (unit mm)*
G04 Created by KiCad (PCBNEW 10.0.5) date 2026-09-20 18:59:27*
%MOMM*%
%LPD*%
G01*
G04 APERTURE LIST*
G04 Aperture macros list*
%AMRoundRect*
0 Rectangle with rounded corners*
0 $1 Rounding radius*
0 $2 $3 $4 $5 $6 $7 $8 $9 X,Y pos of 4 corners*
0 Add a 4 corners polygon primitive as box body*
4,1,4,$2,$3,$4,$5,$6,$7,$8,$9,$2,$3,0*
0 Add four circle primitives for the rounded corners*
1,1,$1+$1,$2,$3*
1,1,$1+$1,$4,$5*
1,1,$1+$1,$6,$7*
1,1,$1+$1,$8,$9*
0 Add four rect primitives between the rounded corners*
20,1,$1+$1,$2,$3,$4,$5,0*
20,1,$1+$1,$4,$5,$6,$7,0*
20,1,$1+$1,$6,$7,$8,$9,0*
20,1,$1+$1,$8,$9,$2,$3,0*%
G04 Aperture macros list end*
%ADD10RoundRect,0.079500X-0.079500X-0.100500X0.079500X-0.100500X0.079500X0.100500X-0.079500X0.100500X0*%
%ADD11RoundRect,0.067500X-0.067500X-0.067500X0.067500X-0.067500X0.067500X0.067500X-0.067500X0.067500X0*%
%ADD12RoundRect,0.067500X0.000000X0.095459X-0.095459X0.000000X0.000000X-0.095459X0.095459X0.000000X0*%
%ADD13RoundRect,0.067500X0.067500X0.067500X-0.067500X0.067500X-0.067500X-0.067500X0.067500X-0.067500X0*%
%ADD14RoundRect,0.249999X0.000000X-0.558616X0.558616X0.000000X0.000000X0.558616X-0.558616X0.000000X0*%
%ADD15RoundRect,0.050000X-0.238649X-0.309359X0.309359X0.238649X0.238649X0.309359X-0.309359X-0.238649X0*%
%ADD16RoundRect,0.050000X0.238649X-0.309359X0.309359X-0.238649X-0.238649X0.309359X-0.309359X0.238649X0*%
%ADD17RoundRect,0.067500X-0.067500X0.067500X-0.067500X-0.067500X0.067500X-0.067500X0.067500X0.067500X0*%
%ADD18RoundRect,0.130000X-0.130000X-0.305000X0.130000X-0.305000X0.130000X0.305000X-0.130000X0.305000X0*%
%ADD19RoundRect,0.062500X-0.350000X-0.062500X0.350000X-0.062500X0.350000X0.062500X-0.350000X0.062500X0*%
%ADD20R,0.900000X1.000000*%
%ADD21RoundRect,0.067500X0.000000X-0.095459X0.095459X0.000000X0.000000X0.095459X-0.095459X0.000000X0*%
%ADD22RoundRect,0.150000X0.512500X0.150000X-0.512500X0.150000X-0.512500X-0.150000X0.512500X-0.150000X0*%
%ADD23RoundRect,0.079500X0.079500X0.100500X-0.079500X0.100500X-0.079500X-0.100500X0.079500X-0.100500X0*%
%ADD24RoundRect,0.067500X-0.095459X0.000000X0.000000X-0.095459X0.095459X0.000000X0.000000X0.095459X0*%
%ADD25RoundRect,0.067500X0.067500X-0.067500X0.067500X0.067500X-0.067500X0.067500X-0.067500X-0.067500X0*%
%ADD26RoundRect,0.100000X0.155000X0.100000X-0.155000X0.100000X-0.155000X-0.100000X0.155000X-0.100000X0*%
%ADD27RoundRect,0.250000X0.615000X-0.435000X0.615000X0.435000X-0.615000X0.435000X-0.615000X-0.435000X0*%
%ADD28RoundRect,0.125000X0.125000X-0.200000X0.125000X0.200000X-0.125000X0.200000X-0.125000X-0.200000X0*%
%ADD29RoundRect,0.250000X0.300000X0.300000X-0.300000X0.300000X-0.300000X-0.300000X0.300000X-0.300000X0*%
%ADD30RoundRect,0.079500X-0.014849X0.127279X-0.127279X0.014849X0.014849X-0.127279X0.127279X-0.014849X0*%
%ADD31RoundRect,0.250000X-1.000000X0.700000X-1.000000X-0.700000X1.000000X-0.700000X1.000000X0.700000X0*%
%ADD32RoundRect,0.150000X0.150000X0.470000X-0.150000X0.470000X-0.150000X-0.470000X0.150000X-0.470000X0*%
%ADD33RoundRect,0.075000X0.075000X0.545000X-0.075000X0.545000X-0.075000X-0.545000X0.075000X-0.545000X0*%
G04 APERTURE END LIST*
D10*
%TO.C,D4*%
X75484165Y-109650000D03*
X76174165Y-109650000D03*
%TD*%
D11*
%TO.C,C12*%
X78114165Y-97725000D03*
X78664165Y-97725000D03*
%TD*%
D12*
%TO.C,R10*%
X79358619Y-79480546D03*
X78969711Y-79869454D03*
%TD*%
D13*
%TO.C,R3*%
X81739165Y-72150000D03*
X81189165Y-72150000D03*
%TD*%
D12*
%TO.C,R13*%
X78903073Y-79011090D03*
X78514165Y-79400000D03*
%TD*%
D14*
%TO.C,U1*%
X73299907Y-82903472D03*
X74431278Y-84034843D03*
X74431278Y-81772101D03*
X75562649Y-82903472D03*
D15*
X70162121Y-83495674D03*
X70444964Y-83778517D03*
X70727806Y-84061359D03*
X71010649Y-84344202D03*
X71293492Y-84627045D03*
X71576334Y-84909887D03*
X71859177Y-85192730D03*
X72142020Y-85475573D03*
X72424863Y-85758416D03*
X72707705Y-86041258D03*
X72990548Y-86324101D03*
X73273391Y-86606944D03*
X73556233Y-86889786D03*
X73839076Y-87172629D03*
D16*
X75023480Y-87172629D03*
X75306323Y-86889786D03*
X75589165Y-86606944D03*
X75872008Y-86324101D03*
X76154851Y-86041258D03*
X76437693Y-85758416D03*
X76720536Y-85475573D03*
X77003379Y-85192730D03*
X77286222Y-84909887D03*
X77569064Y-84627045D03*
X77851907Y-84344202D03*
X78134750Y-84061359D03*
X78417592Y-83778517D03*
X78700435Y-83495674D03*
D15*
X78700435Y-82311270D03*
X78417592Y-82028427D03*
X78134750Y-81745585D03*
X77851907Y-81462742D03*
X77569064Y-81179899D03*
X77286222Y-80897057D03*
X77003379Y-80614214D03*
X76720536Y-80331371D03*
X76437693Y-80048528D03*
X76154851Y-79765686D03*
X75872008Y-79482843D03*
X75589165Y-79200000D03*
X75306323Y-78917158D03*
X75023480Y-78634315D03*
D16*
X73839076Y-78634315D03*
X73556233Y-78917158D03*
X73273391Y-79200000D03*
X72990548Y-79482843D03*
X72707705Y-79765686D03*
X72424863Y-80048528D03*
X72142020Y-80331371D03*
X71859177Y-80614214D03*
X71576334Y-80897057D03*
X71293492Y-81179899D03*
X71010649Y-81462742D03*
X70727806Y-81745585D03*
X70444964Y-82028427D03*
X70162121Y-82311270D03*
%TD*%
D17*
%TO.C,C9*%
X68764165Y-82675000D03*
X68764165Y-83225000D03*
%TD*%
D13*
%TO.C,C1*%
X77664165Y-72950000D03*
X77114165Y-72950000D03*
%TD*%
D11*
%TO.C,R7*%
X78689165Y-89225000D03*
X79239165Y-89225000D03*
%TD*%
D17*
%TO.C,R2*%
X73564165Y-72000000D03*
X73564165Y-72550000D03*
%TD*%
D18*
%TO.C,U3*%
X79614166Y-74075001D03*
X79614166Y-75074999D03*
X80214166Y-74075001D03*
X80214166Y-75074999D03*
D19*
X78701666Y-73575000D03*
X78701666Y-74075001D03*
X78701666Y-74575000D03*
X78701666Y-75074999D03*
X78701666Y-75575000D03*
X81126666Y-75575000D03*
X81126666Y-75074999D03*
X81126666Y-74575000D03*
X81126666Y-74075001D03*
X81126666Y-73575000D03*
%TD*%
D20*
%TO.C,SW1*%
X71439165Y-101600000D03*
X75539165Y-101600000D03*
X71439165Y-103200000D03*
X75539165Y-103200000D03*
%TD*%
D11*
%TO.C,R4*%
X81164165Y-72775000D03*
X81714165Y-72775000D03*
%TD*%
D13*
%TO.C,C13*%
X67264165Y-87750000D03*
X66714165Y-87750000D03*
%TD*%
D21*
%TO.C,C3*%
X70692934Y-79371231D03*
X71081842Y-78982323D03*
%TD*%
D13*
%TO.C,D5*%
X81456665Y-70230000D03*
X80906665Y-70230000D03*
%TD*%
D22*
%TO.C,U4*%
X80239165Y-103425000D03*
X80239165Y-102475000D03*
X80239165Y-101525000D03*
X77964165Y-101525000D03*
X77964165Y-103425000D03*
%TD*%
D13*
%TO.C,R6*%
X71967737Y-77200000D03*
X71417737Y-77200000D03*
%TD*%
D17*
%TO.C,R17*%
X75439165Y-106950000D03*
X75439165Y-107500000D03*
%TD*%
D23*
%TO.C,D2*%
X76134165Y-108100000D03*
X75444165Y-108100000D03*
%TD*%
D24*
%TO.C,C2*%
X80019711Y-86180546D03*
X80408619Y-86569454D03*
%TD*%
D25*
%TO.C,C6*%
X69364165Y-90875000D03*
X69364165Y-90325000D03*
%TD*%
%TO.C,R11*%
X80289165Y-112875000D03*
X80289165Y-112325000D03*
%TD*%
D13*
%TO.C,C5*%
X73239165Y-77175000D03*
X72689165Y-77175000D03*
%TD*%
D12*
%TO.C,C11*%
X77738619Y-86630546D03*
X77349711Y-87019454D03*
%TD*%
D13*
%TO.C,R18*%
X69914165Y-73975000D03*
X69364165Y-73975000D03*
%TD*%
D17*
%TO.C,R1*%
X75064165Y-72000000D03*
X75064165Y-72550000D03*
%TD*%
%TO.C,C10*%
X70364165Y-102925000D03*
X70364165Y-103475000D03*
%TD*%
D21*
%TO.C,R12*%
X78125257Y-78938908D03*
X78514165Y-78550000D03*
%TD*%
D26*
%TO.C,Q1*%
X67239165Y-89400000D03*
X67239165Y-90400000D03*
X68529165Y-89900000D03*
%TD*%
D27*
%TO.C,U2*%
X72624165Y-95500000D03*
X74774165Y-95500000D03*
X72624165Y-93800000D03*
X74774165Y-93800000D03*
D28*
X71794165Y-98400000D03*
X73064165Y-98400000D03*
X74334165Y-98400000D03*
X75604165Y-98400000D03*
X75604165Y-90900000D03*
X74334165Y-90900000D03*
X73064165Y-90900000D03*
X71794165Y-90900000D03*
%TD*%
D17*
%TO.C,R14*%
X75664165Y-72000000D03*
X75664165Y-72550000D03*
%TD*%
D13*
%TO.C,C4*%
X67264165Y-87150000D03*
X66714165Y-87150000D03*
%TD*%
D29*
%TO.C,D3*%
X72664165Y-75425000D03*
X69864165Y-75425000D03*
%TD*%
D13*
%TO.C,C8*%
X77674165Y-73590000D03*
X77124165Y-73590000D03*
%TD*%
D30*
%TO.C,D1*%
X78633117Y-77031048D03*
X78145213Y-77518952D03*
%TD*%
D13*
%TO.C,C7*%
X67264165Y-88425000D03*
X66714165Y-88425000D03*
%TD*%
%TO.C,R8*%
X79239165Y-89900000D03*
X78689165Y-89900000D03*
%TD*%
D31*
%TO.C,Y1*%
X79214165Y-91650000D03*
X79214165Y-96050000D03*
%TD*%
D17*
%TO.C,L1*%
X77089165Y-74225000D03*
X77089165Y-74775000D03*
%TD*%
D13*
%TO.C,C14*%
X72467737Y-77850000D03*
X71917737Y-77850000D03*
%TD*%
D21*
%TO.C,R9*%
X77119711Y-77419454D03*
X77508619Y-77030546D03*
%TD*%
D32*
%TO.C,J1*%
X77514165Y-70475000D03*
X76714165Y-70475000D03*
D33*
X75564165Y-70475000D03*
X74564165Y-70475000D03*
X74064165Y-70475000D03*
X73064165Y-70475000D03*
D32*
X71914165Y-70475000D03*
X71114165Y-70475000D03*
X71114165Y-70475000D03*
X71914165Y-70475000D03*
D33*
X72564165Y-70475000D03*
X73564165Y-70475000D03*
X75064165Y-70475000D03*
X76064165Y-70475000D03*
D32*
X76714165Y-70475000D03*
X77514165Y-70475000D03*
%TD*%
D13*
%TO.C,R15*%
X69904165Y-73280000D03*
X69354165Y-73280000D03*
%TD*%
D17*
%TO.C,R16*%
X76739165Y-102275000D03*
X76739165Y-102825000D03*
%TD*%
%TO.C,R5*%
X69389165Y-89100000D03*
X69389165Y-89650000D03*
%TD*%
M02*
