%TF.GenerationSoftware,KiCad,Pcbnew,10.0.5*%
%TF.CreationDate,2026-09-20T18:59:25-04:00*%
%TF.ProjectId,devboard,64657662-6f61-4726-942e-6b696361645f,3*%
%TF.SameCoordinates,Original*%
%TF.FileFunction,Copper,L1,Top*%
%TF.FilePolarity,Positive*%
%FSLAX46Y46*%
G04 Gerber Fmt 4.6, Leading zero omitted, Abs format (unit mm)*
G04 Created by KiCad (PCBNEW 10.0.5) date 2026-09-20 18:59:26*
%MOMM*%
%LPD*%
G01*
G04 APERTURE LIST*
G04 Aperture macros list*
%AMRoundRect*
0 Rectangle with rounded corners*
0 $1 Rounding radius*
0 $2 $3 $4 $5 $6 $7 $8 $9 X,Y pos of 4 corners*
0 Add a 4 corners polygon primitive as box body*
4,1,4,$2,$3,$4,$5,$6,$7,$8,$9,$2,$3,0*
0 Add four circle primitives for the rounded corners*
1,1,$1+$1,$2,$3*
1,1,$1+$1,$4,$5*
1,1,$1+$1,$6,$7*
1,1,$1+$1,$8,$9*
0 Add four rect primitives between the rounded corners*
20,1,$1+$1,$2,$3,$4,$5,0*
20,1,$1+$1,$4,$5,$6,$7,0*
20,1,$1+$1,$6,$7,$8,$9,0*
20,1,$1+$1,$8,$9,$2,$3,0*%
%AMRotRect*
0 Rectangle, with rotation*
0 The origin of the aperture is its center*
0 $1 length*
0 $2 width*
0 $3 Rotation angle, in degrees counterclockwise*
0 Add horizontal line*
21,1,$1,$2,0,0,$3*%
G04 Aperture macros list end*
%ADD10C,0.150000*%
%TA.AperFunction,Conductor*%
%ADD11C,0.100000*%
%TD*%
%TA.AperFunction,ComponentPad*%
%ADD12C,2.000000*%
%TD*%
%TA.AperFunction,SMDPad,CuDef*%
%ADD13RoundRect,0.100000X-0.130000X-0.100000X0.130000X-0.100000X0.130000X0.100000X-0.130000X0.100000X0*%
%TD*%
%TA.AperFunction,SMDPad,CuDef*%
%ADD14RoundRect,0.075000X-0.125000X-0.075000X0.125000X-0.075000X0.125000X0.075000X-0.125000X0.075000X0*%
%TD*%
%TA.AperFunction,SMDPad,CuDef*%
%ADD15RoundRect,0.075000X0.035355X0.141421X-0.141421X-0.035355X-0.035355X-0.141421X0.141421X0.035355X0*%
%TD*%
%TA.AperFunction,SMDPad,CuDef*%
%ADD16RoundRect,0.075000X0.125000X0.075000X-0.125000X0.075000X-0.125000X-0.075000X0.125000X-0.075000X0*%
%TD*%
%TA.AperFunction,SMDPad,CuDef*%
%ADD17RoundRect,0.050000X-0.238649X-0.309359X0.309359X0.238649X0.238649X0.309359X-0.309359X-0.238649X0*%
%TD*%
%TA.AperFunction,SMDPad,CuDef*%
%ADD18RoundRect,0.050000X0.238649X-0.309359X0.309359X-0.238649X-0.238649X0.309359X-0.309359X0.238649X0*%
%TD*%
%TA.AperFunction,HeatsinkPad*%
%ADD19RotRect,3.200000X3.200000X45.000000*%
%TD*%
%TA.AperFunction,SMDPad,CuDef*%
%ADD20RoundRect,0.075000X-0.075000X0.125000X-0.075000X-0.125000X0.075000X-0.125000X0.075000X0.125000X0*%
%TD*%
%TA.AperFunction,SMDPad,CuDef*%
%ADD21RoundRect,0.062500X-0.350000X-0.062500X0.350000X-0.062500X0.350000X0.062500X-0.350000X0.062500X0*%
%TD*%
%TA.AperFunction,HeatsinkPad*%
%ADD22C,0.500000*%
%TD*%
%TA.AperFunction,HeatsinkPad*%
%ADD23R,1.200000X2.000000*%
%TD*%
%TA.AperFunction,SMDPad,CuDef*%
%ADD24R,0.900000X1.000000*%
%TD*%
%TA.AperFunction,SMDPad,CuDef*%
%ADD25RoundRect,0.075000X-0.035355X-0.141421X0.141421X0.035355X0.035355X0.141421X-0.141421X-0.035355X0*%
%TD*%
%TA.AperFunction,SMDPad,CuDef*%
%ADD26RoundRect,0.150000X0.512500X0.150000X-0.512500X0.150000X-0.512500X-0.150000X0.512500X-0.150000X0*%
%TD*%
%TA.AperFunction,SMDPad,CuDef*%
%ADD27RoundRect,0.100000X0.130000X0.100000X-0.130000X0.100000X-0.130000X-0.100000X0.130000X-0.100000X0*%
%TD*%
%TA.AperFunction,SMDPad,CuDef*%
%ADD28RoundRect,0.075000X-0.141421X0.035355X0.035355X-0.141421X0.141421X-0.035355X-0.035355X0.141421X0*%
%TD*%
%TA.AperFunction,SMDPad,CuDef*%
%ADD29RoundRect,0.075000X0.075000X-0.125000X0.075000X0.125000X-0.075000X0.125000X-0.075000X-0.125000X0*%
%TD*%
%TA.AperFunction,SMDPad,CuDef*%
%ADD30RoundRect,0.100000X0.155000X0.100000X-0.155000X0.100000X-0.155000X-0.100000X0.155000X-0.100000X0*%
%TD*%
%TA.AperFunction,SMDPad,CuDef*%
%ADD31RoundRect,0.125000X0.125000X-0.200000X0.125000X0.200000X-0.125000X0.200000X-0.125000X-0.200000X0*%
%TD*%
%TA.AperFunction,HeatsinkPad*%
%ADD32R,4.300000X3.400000*%
%TD*%
%TA.AperFunction,SMDPad,CuDef*%
%ADD33RoundRect,0.250000X0.300000X0.300000X-0.300000X0.300000X-0.300000X-0.300000X0.300000X-0.300000X0*%
%TD*%
%TA.AperFunction,SMDPad,CuDef*%
%ADD34RoundRect,0.100000X0.021213X0.162635X-0.162635X-0.021213X-0.021213X-0.162635X0.162635X0.021213X0*%
%TD*%
%TA.AperFunction,SMDPad,CuDef*%
%ADD35RoundRect,0.250000X-1.000000X0.700000X-1.000000X-0.700000X1.000000X-0.700000X1.000000X0.700000X0*%
%TD*%
%TA.AperFunction,SMDPad,CuDef*%
%ADD36RoundRect,0.150000X0.150000X0.470000X-0.150000X0.470000X-0.150000X-0.470000X0.150000X-0.470000X0*%
%TD*%
%TA.AperFunction,SMDPad,CuDef*%
%ADD37RoundRect,0.075000X0.075000X0.545000X-0.075000X0.545000X-0.075000X-0.545000X0.075000X-0.545000X0*%
%TD*%
%TA.AperFunction,ComponentPad*%
%ADD38O,1.000000X2.100000*%
%TD*%
%TA.AperFunction,ComponentPad*%
%ADD39O,1.000000X1.800000*%
%TD*%
%TA.AperFunction,ComponentPad*%
%ADD40RoundRect,0.250000X-0.350000X-0.625000X0.350000X-0.625000X0.350000X0.625000X-0.350000X0.625000X0*%
%TD*%
%TA.AperFunction,ComponentPad*%
%ADD41O,1.200000X1.750000*%
%TD*%
%TA.AperFunction,ViaPad*%
%ADD42C,0.400000*%
%TD*%
%TA.AperFunction,Conductor*%
%ADD43C,0.150000*%
%TD*%
%TA.AperFunction,Conductor*%
%ADD44C,0.200000*%
%TD*%
G04 APERTURE END LIST*
D10*
G36*
X76186544Y-111480144D02*
G01*
X76310742Y-111480144D01*
X76025466Y-112202187D01*
X75912137Y-112202187D01*
X75626862Y-111480144D01*
X75751792Y-111480144D01*
X75968130Y-112060771D01*
X76186544Y-111480144D01*
G37*
G36*
X76256031Y-112596212D02*
G01*
X76256031Y-112768342D01*
X76048913Y-112768342D01*
X76048913Y-112596212D01*
X76256031Y-112596212D01*
G37*
G36*
X75736282Y-112596212D02*
G01*
X75736282Y-112768342D01*
X75529165Y-112768342D01*
X75529165Y-112596212D01*
X75736282Y-112596212D01*
G37*
G36*
X76074986Y-113634427D02*
G01*
X76051690Y-113698094D01*
X76020124Y-113748577D01*
X75980403Y-113788056D01*
X75932625Y-113817104D01*
X75876739Y-113835053D01*
X75810715Y-113841362D01*
X75741889Y-113835006D01*
X75683372Y-113816914D01*
X75633154Y-113787679D01*
X75589859Y-113746718D01*
X75556280Y-113697697D01*
X75531281Y-113639027D01*
X75515326Y-113568826D01*
X75509625Y-113484767D01*
X75512849Y-113414209D01*
X75522692Y-113341336D01*
X75538619Y-113268970D01*
X75560428Y-113197904D01*
X75697204Y-113197904D01*
X75665857Y-113268026D01*
X75644264Y-113335169D01*
X75631168Y-113402996D01*
X75626862Y-113469808D01*
X75633320Y-113543813D01*
X75650874Y-113600587D01*
X75677908Y-113643953D01*
X75705459Y-113669981D01*
X75738358Y-113688789D01*
X75777690Y-113700581D01*
X75825004Y-113704769D01*
X75881188Y-113697677D01*
X75927243Y-113677458D01*
X75965565Y-113643953D01*
X75993562Y-113600664D01*
X76011272Y-113546744D01*
X76017650Y-113479333D01*
X76017650Y-113374125D01*
X76130979Y-113374125D01*
X76130979Y-113479333D01*
X76136211Y-113541402D01*
X76150514Y-113589834D01*
X76172622Y-113627527D01*
X76203750Y-113656926D01*
X76241755Y-113674614D01*
X76288821Y-113680833D01*
X76338942Y-113674874D01*
X76378295Y-113658241D01*
X76409416Y-113631313D01*
X76431713Y-113595949D01*
X76446135Y-113549938D01*
X76451425Y-113490263D01*
X76448079Y-113429096D01*
X76437748Y-113364539D01*
X76421015Y-113299313D01*
X76396715Y-113228618D01*
X76525675Y-113228618D01*
X76557915Y-113375835D01*
X76566165Y-113438758D01*
X76568662Y-113490263D01*
X76563444Y-113564678D01*
X76548707Y-113628011D01*
X76525365Y-113682080D01*
X76493680Y-113728339D01*
X76453131Y-113767342D01*
X76407275Y-113794837D01*
X76355040Y-113811643D01*
X76294805Y-113817487D01*
X76240328Y-113811982D01*
X76194084Y-113796264D01*
X76154365Y-113770654D01*
X76121706Y-113736204D01*
X76095150Y-113691506D01*
X76074986Y-113634427D01*
G37*
D11*
%TO.N,+3V3*%
X72139165Y-80325000D02*
X72439165Y-80025000D01*
X72714165Y-80325000D01*
X72789165Y-80725000D01*
X72389165Y-80600000D01*
X72139165Y-80325000D01*
%TA.AperFunction,Conductor*%
G36*
X72714165Y-80325000D02*
G01*
X72789165Y-80725000D01*
X72389165Y-80600000D01*
X72139165Y-80325000D01*
X72439165Y-80025000D01*
X72714165Y-80325000D01*
G37*
%TD.AperFunction*%
%TA.AperFunction,EtchedComponent*%
%TD*%
%TO.C,J33*%
G36*
X83470000Y-78150000D02*
G01*
X84470000Y-78150000D01*
X84470000Y-80150000D01*
X83470000Y-80150000D01*
X83470000Y-78150000D01*
G37*
%TD.AperFunction*%
%TA.AperFunction,EtchedComponent*%
%TO.C,J4*%
G36*
X63970000Y-110150000D02*
G01*
X64970000Y-110150000D01*
X64970000Y-112150000D01*
X63970000Y-112150000D01*
X63970000Y-110150000D01*
G37*
%TD.AperFunction*%
%TA.AperFunction,EtchedComponent*%
%TO.C,J39*%
G36*
X83464165Y-69225000D02*
G01*
X84464165Y-69225000D01*
X84464165Y-71225000D01*
X83464165Y-71225000D01*
X83464165Y-69225000D01*
G37*
%TD.AperFunction*%
%TA.AperFunction,EtchedComponent*%
%TO.C,J19*%
G36*
X63970000Y-66150000D02*
G01*
X64970000Y-66150000D01*
X64970000Y-68150000D01*
X63970000Y-68150000D01*
X63970000Y-66150000D01*
G37*
%TD.AperFunction*%
%TA.AperFunction,EtchedComponent*%
%TO.C,J31*%
G36*
X83470000Y-83750000D02*
G01*
X84470000Y-83750000D01*
X84470000Y-85750000D01*
X83470000Y-85750000D01*
X83470000Y-83750000D01*
G37*
%TD.AperFunction*%
%TA.AperFunction,EtchedComponent*%
%TO.C,J38*%
G36*
X83470000Y-63150000D02*
G01*
X84470000Y-63150000D01*
X84470000Y-65150000D01*
X83470000Y-65150000D01*
X83470000Y-63150000D01*
G37*
%TD.AperFunction*%
%TA.AperFunction,EtchedComponent*%
%TO.C,J37*%
G36*
X83470000Y-66150000D02*
G01*
X84470000Y-66150000D01*
X84470000Y-68150000D01*
X83470000Y-68150000D01*
X83470000Y-66150000D01*
G37*
%TD.AperFunction*%
%TA.AperFunction,EtchedComponent*%
%TO.C,J16*%
G36*
X63970000Y-72150000D02*
G01*
X64970000Y-72150000D01*
X64970000Y-74150000D01*
X63970000Y-74150000D01*
X63970000Y-72150000D01*
G37*
%TD.AperFunction*%
%TA.AperFunction,EtchedComponent*%
%TO.C,J20*%
G36*
X63970000Y-63150000D02*
G01*
X64970000Y-63150000D01*
X64970000Y-65150000D01*
X63970000Y-65150000D01*
X63970000Y-63150000D01*
G37*
%TD.AperFunction*%
%TA.AperFunction,EtchedComponent*%
%TO.C,J23*%
G36*
X83470000Y-107300000D02*
G01*
X84470000Y-107300000D01*
X84470000Y-109300000D01*
X83470000Y-109300000D01*
X83470000Y-107300000D01*
G37*
%TD.AperFunction*%
%TA.AperFunction,EtchedComponent*%
%TO.C,J30*%
G36*
X83470000Y-86500000D02*
G01*
X84470000Y-86500000D01*
X84470000Y-88500000D01*
X83470000Y-88500000D01*
X83470000Y-86500000D01*
G37*
%TD.AperFunction*%
%TA.AperFunction,EtchedComponent*%
%TO.C,J11*%
G36*
X63970000Y-80950000D02*
G01*
X64970000Y-80950000D01*
X64970000Y-82950000D01*
X63970000Y-82950000D01*
X63970000Y-80950000D01*
G37*
%TD.AperFunction*%
%TA.AperFunction,EtchedComponent*%
%TO.C,J8*%
G36*
X63970000Y-95300000D02*
G01*
X64970000Y-95300000D01*
X64970000Y-97300000D01*
X63970000Y-97300000D01*
X63970000Y-95300000D01*
G37*
%TD.AperFunction*%
%TA.AperFunction,EtchedComponent*%
%TO.C,J29*%
G36*
X83470000Y-89300000D02*
G01*
X84470000Y-89300000D01*
X84470000Y-91300000D01*
X83470000Y-91300000D01*
X83470000Y-89300000D01*
G37*
%TD.AperFunction*%
%TA.AperFunction,EtchedComponent*%
%TO.C,J9*%
G36*
X63970000Y-98300000D02*
G01*
X64970000Y-98300000D01*
X64970000Y-100300000D01*
X63970000Y-100300000D01*
X63970000Y-98300000D01*
G37*
%TD.AperFunction*%
%TA.AperFunction,EtchedComponent*%
%TO.C,J21*%
G36*
X83470000Y-113150000D02*
G01*
X84470000Y-113150000D01*
X84470000Y-115150000D01*
X83470000Y-115150000D01*
X83470000Y-113150000D01*
G37*
%TD.AperFunction*%
%TA.AperFunction,EtchedComponent*%
%TO.C,J35*%
G36*
X83470000Y-72150000D02*
G01*
X84470000Y-72150000D01*
X84470000Y-74150000D01*
X83470000Y-74150000D01*
X83470000Y-72150000D01*
G37*
%TD.AperFunction*%
%TA.AperFunction,EtchedComponent*%
%TO.C,J22*%
G36*
X83470000Y-110150000D02*
G01*
X84470000Y-110150000D01*
X84470000Y-112150000D01*
X83470000Y-112150000D01*
X83470000Y-110150000D01*
G37*
%TD.AperFunction*%
%TA.AperFunction,EtchedComponent*%
%TO.C,J10*%
G36*
X63970000Y-101300000D02*
G01*
X64970000Y-101300000D01*
X64970000Y-103300000D01*
X63970000Y-103300000D01*
X63970000Y-101300000D01*
G37*
%TD.AperFunction*%
%TA.AperFunction,EtchedComponent*%
%TO.C,J24*%
G36*
X83470000Y-104300000D02*
G01*
X84470000Y-104300000D01*
X84470000Y-106300000D01*
X83470000Y-106300000D01*
X83470000Y-104300000D01*
G37*
%TD.AperFunction*%
%TA.AperFunction,EtchedComponent*%
%TO.C,J28*%
G36*
X83470000Y-92300000D02*
G01*
X84470000Y-92300000D01*
X84470000Y-94300000D01*
X83470000Y-94300000D01*
X83470000Y-92300000D01*
G37*
%TD.AperFunction*%
%TA.AperFunction,EtchedComponent*%
%TO.C,J27*%
G36*
X83470000Y-95300000D02*
G01*
X84470000Y-95300000D01*
X84470000Y-97300000D01*
X83470000Y-97300000D01*
X83470000Y-95300000D01*
G37*
%TD.AperFunction*%
%TA.AperFunction,EtchedComponent*%
%TO.C,J17*%
G36*
X63970000Y-75150000D02*
G01*
X64970000Y-75150000D01*
X64970000Y-77150000D01*
X63970000Y-77150000D01*
X63970000Y-75150000D01*
G37*
%TD.AperFunction*%
%TA.AperFunction,EtchedComponent*%
%TO.C,J15*%
G36*
X63970000Y-69150000D02*
G01*
X64970000Y-69150000D01*
X64970000Y-71150000D01*
X63970000Y-71150000D01*
X63970000Y-69150000D01*
G37*
%TD.AperFunction*%
%TA.AperFunction,EtchedComponent*%
%TO.C,J7*%
G36*
X63970000Y-92300000D02*
G01*
X64970000Y-92300000D01*
X64970000Y-94300000D01*
X63970000Y-94300000D01*
X63970000Y-92300000D01*
G37*
%TD.AperFunction*%
%TA.AperFunction,EtchedComponent*%
%TO.C,J36*%
G36*
X79289165Y-114675000D02*
G01*
X81289165Y-114675000D01*
X81289165Y-115675000D01*
X79289165Y-115675000D01*
X79289165Y-114675000D01*
G37*
%TD.AperFunction*%
%TA.AperFunction,EtchedComponent*%
%TO.C,J18*%
G36*
X63970000Y-78150000D02*
G01*
X64970000Y-78150000D01*
X64970000Y-80150000D01*
X63970000Y-80150000D01*
X63970000Y-78150000D01*
G37*
%TD.AperFunction*%
%TA.AperFunction,EtchedComponent*%
%TO.C,J3*%
G36*
X63970000Y-113150000D02*
G01*
X64970000Y-113150000D01*
X64970000Y-115150000D01*
X63970000Y-115150000D01*
X63970000Y-113150000D01*
G37*
%TD.AperFunction*%
%TA.AperFunction,EtchedComponent*%
%TO.C,J40*%
G36*
X76664165Y-114675000D02*
G01*
X78664165Y-114675000D01*
X78664165Y-115675000D01*
X76664165Y-115675000D01*
X76664165Y-114675000D01*
G37*
%TD.AperFunction*%
%TA.AperFunction,EtchedComponent*%
%TO.C,J32*%
G36*
X83470000Y-80950000D02*
G01*
X84470000Y-80950000D01*
X84470000Y-82950000D01*
X83470000Y-82950000D01*
X83470000Y-80950000D01*
G37*
%TD.AperFunction*%
%TA.AperFunction,EtchedComponent*%
%TO.C,J34*%
G36*
X83470000Y-75150000D02*
G01*
X84470000Y-75150000D01*
X84470000Y-77150000D01*
X83470000Y-77150000D01*
X83470000Y-75150000D01*
G37*
%TD.AperFunction*%
%TA.AperFunction,EtchedComponent*%
%TO.C,J13*%
G36*
X63970000Y-86500000D02*
G01*
X64970000Y-86500000D01*
X64970000Y-88500000D01*
X63970000Y-88500000D01*
X63970000Y-86500000D01*
G37*
%TD.AperFunction*%
%TA.AperFunction,EtchedComponent*%
%TO.C,J26*%
G36*
X83470000Y-98300000D02*
G01*
X84470000Y-98300000D01*
X84470000Y-100300000D01*
X83470000Y-100300000D01*
X83470000Y-98300000D01*
G37*
%TD.AperFunction*%
%TA.AperFunction,EtchedComponent*%
%TO.C,J5*%
G36*
X63970000Y-104300000D02*
G01*
X64970000Y-104300000D01*
X64970000Y-106300000D01*
X63970000Y-106300000D01*
X63970000Y-104300000D01*
G37*
%TD.AperFunction*%
%TA.AperFunction,EtchedComponent*%
%TO.C,J14*%
G36*
X63970000Y-89300000D02*
G01*
X64970000Y-89300000D01*
X64970000Y-91300000D01*
X63970000Y-91300000D01*
X63970000Y-89300000D01*
G37*
%TD.AperFunction*%
%TA.AperFunction,EtchedComponent*%
%TO.C,J25*%
G36*
X83470000Y-101300000D02*
G01*
X84470000Y-101300000D01*
X84470000Y-103300000D01*
X83470000Y-103300000D01*
X83470000Y-101300000D01*
G37*
%TD.AperFunction*%
%TA.AperFunction,EtchedComponent*%
%TO.C,J6*%
G36*
X63970000Y-107300000D02*
G01*
X64970000Y-107300000D01*
X64970000Y-109300000D01*
X63970000Y-109300000D01*
X63970000Y-107300000D01*
G37*
%TD.AperFunction*%
%TA.AperFunction,EtchedComponent*%
%TO.C,J12*%
G36*
X63970000Y-83750000D02*
G01*
X64970000Y-83750000D01*
X64970000Y-85750000D01*
X63970000Y-85750000D01*
X63970000Y-83750000D01*
G37*
%TD.AperFunction*%
%TD*%
D12*
%TO.P,J33,1,Pin_1_1*%
%TO.N,gpio16*%
X83470000Y-79150000D03*
%TD*%
D13*
%TO.P,D4,1,K_1*%
%TO.N,Net-(D2-A)*%
X75509165Y-109650000D03*
%TO.P,D4,2,A_2*%
%TO.N,Net-(D4-A)*%
X76149165Y-109650000D03*
%TD*%
D14*
%TO.P,C12,1*%
%TO.N,Net-(C12-Pad1)*%
X78139165Y-97725000D03*
%TO.P,C12,2*%
%TO.N,GND*%
X78639165Y-97725000D03*
%TD*%
D12*
%TO.P,J4,1,Pin_1_1*%
%TO.N,gpio15*%
X64970000Y-111150000D03*
%TD*%
%TO.P,J39,1,Pin_1_1*%
%TO.N,Net-(D5-K)*%
X83464165Y-70225000D03*
%TD*%
D15*
%TO.P,R10,1*%
%TO.N,GND*%
X79340942Y-79498223D03*
%TO.P,R10,2*%
%TO.N,gpio23*%
X78987388Y-79851777D03*
%TD*%
D12*
%TO.P,J19,1,Pin_1_1*%
%TO.N,gpio1*%
X64970000Y-67150000D03*
%TD*%
D16*
%TO.P,R3,1*%
%TO.N,adc_vref*%
X81714165Y-72150000D03*
%TO.P,R3,2*%
%TO.N,adc_avdd*%
X81214165Y-72150000D03*
%TD*%
D12*
%TO.P,J31,1,Pin_1_1*%
%TO.N,gpio18*%
X83470000Y-84750000D03*
%TD*%
D15*
%TO.P,R13,1*%
%TO.N,GND*%
X78885395Y-79028769D03*
%TO.P,R13,2*%
%TO.N,gpio24*%
X78531843Y-79382321D03*
%TD*%
D17*
%TO.P,U1,1,IOVDD_1*%
%TO.N,+3V3*%
X70162121Y-83495674D03*
%TO.P,U1,2,GPIO0_2*%
%TO.N,gpio0*%
X70444964Y-83778517D03*
%TO.P,U1,3,GPIO1_3*%
%TO.N,gpio1*%
X70727806Y-84061359D03*
%TO.P,U1,4,GPIO2_4*%
%TO.N,gpio2*%
X71010649Y-84344202D03*
%TO.P,U1,5,GPIO3_5*%
%TO.N,gpio3*%
X71293492Y-84627045D03*
%TO.P,U1,6,GPIO4_6*%
%TO.N,gpio4*%
X71576334Y-84909887D03*
%TO.P,U1,7,GPIO5_7*%
%TO.N,gpio5*%
X71859177Y-85192730D03*
%TO.P,U1,8,GPIO6_8*%
%TO.N,gpio6*%
X72142020Y-85475573D03*
%TO.P,U1,9,GPIO7_9*%
%TO.N,gpio7*%
X72424863Y-85758416D03*
%TO.P,U1,10,IOVDD_10*%
%TO.N,+3V3*%
X72707705Y-86041258D03*
%TO.P,U1,11,GPIO8_11*%
%TO.N,gpio8*%
X72990548Y-86324101D03*
%TO.P,U1,12,GPIO9_12*%
%TO.N,gpio9*%
X73273391Y-86606944D03*
%TO.P,U1,13,GPIO10_13*%
%TO.N,gpio10*%
X73556233Y-86889786D03*
%TO.P,U1,14,GPIO11_14*%
%TO.N,gpio11*%
X73839076Y-87172629D03*
D18*
%TO.P,U1,15,GPIO12_15*%
%TO.N,gpio12*%
X75023480Y-87172629D03*
%TO.P,U1,16,GPIO13_16*%
%TO.N,gpio13*%
X75306323Y-86889786D03*
%TO.P,U1,17,GPIO14_17*%
%TO.N,gpio14*%
X75589165Y-86606944D03*
%TO.P,U1,18,GPIO15_18*%
%TO.N,gpio15*%
X75872008Y-86324101D03*
%TO.P,U1,19,TESTEN_19*%
%TO.N,GND*%
X76154851Y-86041258D03*
%TO.P,U1,20,XIN_20*%
%TO.N,xin*%
X76437693Y-85758416D03*
%TO.P,U1,21,XOUT_21*%
%TO.N,xout*%
X76720536Y-85475573D03*
%TO.P,U1,22,IOVDD_22*%
%TO.N,+3V3*%
X77003379Y-85192730D03*
%TO.P,U1,23,DVDD_23*%
%TO.N,+1V1*%
X77286222Y-84909887D03*
%TO.P,U1,24,SWCLK_24*%
%TO.N,swclk*%
X77569064Y-84627045D03*
%TO.P,U1,25,SWDIO_25*%
%TO.N,swdio*%
X77851907Y-84344202D03*
%TO.P,U1,26,RUN_26*%
%TO.N,run*%
X78134750Y-84061359D03*
%TO.P,U1,27,GPIO16_27*%
%TO.N,gpio16*%
X78417592Y-83778517D03*
%TO.P,U1,28,GPIO17_28*%
%TO.N,gpio17*%
X78700435Y-83495674D03*
D17*
%TO.P,U1,29,GPIO18_29*%
%TO.N,gpio18*%
X78700435Y-82311270D03*
%TO.P,U1,30,GPIO19_30*%
%TO.N,gpio19*%
X78417592Y-82028427D03*
%TO.P,U1,31,GPIO20_31*%
%TO.N,gpio20*%
X78134750Y-81745585D03*
%TO.P,U1,32,GPIO21_32*%
%TO.N,gpio21*%
X77851907Y-81462742D03*
%TO.P,U1,33,IOVDD_33*%
%TO.N,+3V3*%
X77569064Y-81179899D03*
%TO.P,U1,34,GPIO22_34*%
%TO.N,gpio22*%
X77286222Y-80897057D03*
%TO.P,U1,35,GPIO23_35*%
%TO.N,gpio23*%
X77003379Y-80614214D03*
%TO.P,U1,36,GPIO24_36*%
%TO.N,gpio24*%
X76720536Y-80331371D03*
%TO.P,U1,37,GPIO25_37*%
%TO.N,gpio25*%
X76437693Y-80048528D03*
%TO.P,U1,38,GPIO26/ADC0_38*%
%TO.N,gpio26{slash}adc0*%
X76154851Y-79765686D03*
%TO.P,U1,39,GPIO27/ADC1_39*%
%TO.N,gpio27{slash}adc1*%
X75872008Y-79482843D03*
%TO.P,U1,40,GPIO28/ADC2_40*%
%TO.N,gpio28{slash}adc2*%
X75589165Y-79200000D03*
%TO.P,U1,41,GPIO29/ADC3_41*%
%TO.N,gpio29{slash}adc3*%
X75306323Y-78917158D03*
%TO.P,U1,42,IOVDD_42*%
%TO.N,+3V3*%
X75023480Y-78634315D03*
D18*
%TO.P,U1,43,ADC_AVDD_43*%
%TO.N,adc_avdd*%
X73839076Y-78634315D03*
%TO.P,U1,44,VREG_VIN_44*%
%TO.N,+3V3*%
X73556233Y-78917158D03*
%TO.P,U1,45,VREG_VOUT_45*%
%TO.N,+1V1*%
X73273391Y-79200000D03*
%TO.P,U1,46,USB_DM_46*%
%TO.N,usb_dmx*%
X72990548Y-79482843D03*
%TO.P,U1,47,USB_DP_47*%
%TO.N,usb_dpx*%
X72707705Y-79765686D03*
%TO.P,U1,48,USB_VDD_48*%
%TO.N,+3V3*%
X72424863Y-80048528D03*
%TO.P,U1,49,IOVDD_49*%
X72142020Y-80331371D03*
%TO.P,U1,50,DVDD_50*%
%TO.N,+1V1*%
X71859177Y-80614214D03*
%TO.P,U1,51,QSPI_SD3_51*%
%TO.N,qspi_sd3*%
X71576334Y-80897057D03*
%TO.P,U1,52,QSPI_SCLK_52*%
%TO.N,qspi_sclk*%
X71293492Y-81179899D03*
%TO.P,U1,53,QSPI_SD0_53*%
%TO.N,qspi_sd0*%
X71010649Y-81462742D03*
%TO.P,U1,54,QSPI_SD2_54*%
%TO.N,qspi_sd2*%
X70727806Y-81745585D03*
%TO.P,U1,55,QSPI_SD1_55*%
%TO.N,qspi_sd1*%
X70444964Y-82028427D03*
%TO.P,U1,56,~{QSPI_SS}_56*%
%TO.N,qspi_ss*%
X70162121Y-82311270D03*
D19*
%TO.P,U1,57,GND_57*%
%TO.N,GND*%
X74431278Y-82903472D03*
%TD*%
D20*
%TO.P,C9,1*%
%TO.N,qspi_ss*%
X68764165Y-82700000D03*
%TO.P,C9,2*%
%TO.N,+3V3*%
X68764165Y-83200000D03*
%TD*%
D12*
%TO.P,J38,1,Pin_1_1*%
%TO.N,vbus*%
X83470000Y-64150000D03*
%TD*%
D16*
%TO.P,C1,1*%
%TO.N,+3V3*%
X77639165Y-72950000D03*
%TO.P,C1,2*%
%TO.N,GND*%
X77139165Y-72950000D03*
%TD*%
D12*
%TO.P,J37,1,Pin_1_1*%
%TO.N,vsys*%
X83470000Y-67150000D03*
%TD*%
D14*
%TO.P,R7,1*%
%TO.N,xout*%
X78714165Y-89225000D03*
%TO.P,R7,2*%
%TO.N,Net-(C12-Pad1)*%
X79214165Y-89225000D03*
%TD*%
D20*
%TO.P,R2,1*%
%TO.N,usbD+*%
X73564165Y-72025000D03*
%TO.P,R2,2*%
%TO.N,usb_dpx*%
X73564165Y-72525000D03*
%TD*%
D21*
%TO.P,U3,1,VOUT_1*%
%TO.N,+3V3*%
X78701666Y-73575000D03*
%TO.P,U3,2,L2_2*%
%TO.N,Net-(U3-L2)*%
X78701666Y-74075001D03*
%TO.P,U3,3,PGND_3*%
%TO.N,GND*%
X78701666Y-74575000D03*
%TO.P,U3,4,L1_4*%
%TO.N,Net-(U3-L1)*%
X78701666Y-75074999D03*
%TO.P,U3,5,VIN_5*%
%TO.N,vsys*%
X78701666Y-75575000D03*
%TO.P,U3,6,EN_6*%
%TO.N,3v3En*%
X81126666Y-75575000D03*
%TO.P,U3,7,PS/SYNC_7*%
%TO.N,gpio23*%
X81126666Y-75074999D03*
%TO.P,U3,8,VINA_8*%
%TO.N,vsys*%
X81126666Y-74575000D03*
%TO.P,U3,9,GND_9*%
%TO.N,GND*%
X81126666Y-74075001D03*
%TO.P,U3,10,FB_10*%
%TO.N,+3V3*%
X81126666Y-73575000D03*
D22*
%TO.P,U3,11,PGND_11*%
%TO.N,GND*%
X79564167Y-73825000D03*
X79564167Y-74575000D03*
X79564167Y-75325000D03*
D23*
X79914166Y-74575000D03*
D22*
X80264165Y-73825000D03*
X80264165Y-74575000D03*
X80264165Y-75325000D03*
%TD*%
D24*
%TO.P,SW1,1,1_1*%
%TO.N,GND*%
X71439165Y-101600000D03*
X75539165Y-101600000D03*
%TO.P,SW1,2,2_2*%
%TO.N,Net-(C10-Pad2)*%
X71439165Y-103200000D03*
X75539165Y-103200000D03*
%TD*%
D14*
%TO.P,R4,1*%
%TO.N,+3V3*%
X81189165Y-72775000D03*
%TO.P,R4,2*%
%TO.N,adc_vref*%
X81689165Y-72775000D03*
%TD*%
D16*
%TO.P,C13,1*%
%TO.N,+3V3*%
X67239165Y-87750000D03*
%TO.P,C13,2*%
%TO.N,GND*%
X66739165Y-87750000D03*
%TD*%
D12*
%TO.P,J16,1,Pin_1_1*%
%TO.N,gpio3*%
X64970000Y-73150000D03*
%TD*%
D25*
%TO.P,C3,1*%
%TO.N,+1V1*%
X70710611Y-79353554D03*
%TO.P,C3,2*%
%TO.N,GND*%
X71064165Y-79000000D03*
%TD*%
D16*
%TO.P,D5,1,K_1*%
%TO.N,Net-(D5-K)*%
X81431665Y-70230000D03*
%TO.P,D5,2,A_2*%
%TO.N,+3V3*%
X80931665Y-70230000D03*
%TD*%
D26*
%TO.P,U4,1,STAT_1*%
%TO.N,Net-(D2-A)*%
X80239165Y-103425000D03*
%TO.P,U4,2,V_{SS}_2*%
%TO.N,GND*%
X80239165Y-102475000D03*
%TO.P,U4,3,V_{BAT}_3*%
%TO.N,Net-(J2-Pin_2)*%
X80239165Y-101525000D03*
%TO.P,U4,4,V_{DD}_4*%
%TO.N,vbus*%
X77964165Y-101525000D03*
%TO.P,U4,5,PROG_5*%
%TO.N,Net-(U4-PROG)*%
X77964165Y-103425000D03*
%TD*%
D12*
%TO.P,J20,1,Pin_1_1*%
%TO.N,gpio0*%
X64970000Y-64150000D03*
%TD*%
D16*
%TO.P,R6,1*%
%TO.N,vsys*%
X71942737Y-77200000D03*
%TO.P,R6,2*%
%TO.N,Net-(Q1-D)*%
X71442737Y-77200000D03*
%TD*%
D20*
%TO.P,R17,1*%
%TO.N,GND*%
X75439165Y-106975000D03*
%TO.P,R17,2*%
%TO.N,Net-(D2-K)*%
X75439165Y-107475000D03*
%TD*%
D12*
%TO.P,J23,1,Pin_1_1*%
%TO.N,gpio27{slash}adc1*%
X83470000Y-108300000D03*
%TD*%
D27*
%TO.P,D2,1,K_1*%
%TO.N,Net-(D2-K)*%
X76109165Y-108100000D03*
%TO.P,D2,2,A_2*%
%TO.N,Net-(D2-A)*%
X75469165Y-108100000D03*
%TD*%
D28*
%TO.P,C2,1*%
%TO.N,+1V1*%
X80037388Y-86198223D03*
%TO.P,C2,2*%
%TO.N,GND*%
X80390942Y-86551777D03*
%TD*%
D12*
%TO.P,J30,1,Pin_1_1*%
%TO.N,gpio19*%
X83470000Y-87500000D03*
%TD*%
%TO.P,J11,1,Pin_1_1*%
%TO.N,gpio6*%
X64970000Y-81950000D03*
%TD*%
D29*
%TO.P,C6,1*%
%TO.N,GND*%
X69364165Y-90850000D03*
%TO.P,C6,2*%
%TO.N,Net-(Q1-D)*%
X69364165Y-90350000D03*
%TD*%
%TO.P,R11,1*%
%TO.N,3v3En*%
X80289165Y-112850000D03*
%TO.P,R11,2*%
%TO.N,vsys*%
X80289165Y-112350000D03*
%TD*%
D16*
%TO.P,C5,1*%
%TO.N,adc_avdd*%
X73214165Y-77175000D03*
%TO.P,C5,2*%
%TO.N,GND*%
X72714165Y-77175000D03*
%TD*%
D12*
%TO.P,J8,1,Pin_1_1*%
%TO.N,gpio10*%
X64970000Y-96300000D03*
%TD*%
%TO.P,J29,1,Pin_1_1*%
%TO.N,gpio20*%
X83470000Y-90300000D03*
%TD*%
%TO.P,J9,1,Pin_1_1*%
%TO.N,gpio11*%
X64970000Y-99300000D03*
%TD*%
D15*
%TO.P,C11,1*%
%TO.N,xin*%
X77720942Y-86648223D03*
%TO.P,C11,2*%
%TO.N,GND*%
X77367388Y-87001777D03*
%TD*%
D16*
%TO.P,R18,1*%
%TO.N,vbus*%
X69889165Y-73975000D03*
%TO.P,R18,2*%
%TO.N,Net-(D4-A)*%
X69389165Y-73975000D03*
%TD*%
D12*
%TO.P,J21,1,Pin_1_1*%
%TO.N,GND*%
X83470000Y-114150000D03*
%TD*%
%TO.P,J35,1,Pin_1_1*%
%TO.N,adc_vref*%
X83470000Y-73150000D03*
%TD*%
%TO.P,J22,1,Pin_1_1*%
%TO.N,gpio26{slash}adc0*%
X83470000Y-111150000D03*
%TD*%
D20*
%TO.P,R1,1*%
%TO.N,usbD-*%
X75064165Y-72025000D03*
%TO.P,R1,2*%
%TO.N,usb_dmx*%
X75064165Y-72525000D03*
%TD*%
D12*
%TO.P,J10,1,Pin_1_1*%
%TO.N,gpio12*%
X64970000Y-102300000D03*
%TD*%
%TO.P,J24,1,Pin_1_1*%
%TO.N,gpio28{slash}adc2*%
X83470000Y-105300000D03*
%TD*%
D20*
%TO.P,C10,1*%
%TO.N,qspi_ss*%
X70364165Y-102950000D03*
%TO.P,C10,2*%
%TO.N,Net-(C10-Pad2)*%
X70364165Y-103450000D03*
%TD*%
D12*
%TO.P,J28,1,Pin_1_1*%
%TO.N,gpio21*%
X83470000Y-93300000D03*
%TD*%
%TO.P,J27,1,Pin_1_1*%
%TO.N,gpio22*%
X83470000Y-96300000D03*
%TD*%
%TO.P,J17,1,Pin_1_1*%
%TO.N,gpio4*%
X64970000Y-76150000D03*
%TD*%
%TO.P,J15,1,Pin_1_1*%
%TO.N,gpio2*%
X64970000Y-70150000D03*
%TD*%
D25*
%TO.P,R12,1*%
%TO.N,gpio24*%
X78142934Y-78921231D03*
%TO.P,R12,2*%
%TO.N,vbus*%
X78496488Y-78567677D03*
%TD*%
D30*
%TO.P,Q1,1,G_1*%
%TO.N,+3V3*%
X67239165Y-89400000D03*
%TO.P,Q1,2,S_2*%
%TO.N,gpio29{slash}adc3*%
X67239165Y-90400000D03*
%TO.P,Q1,3,D_3*%
%TO.N,Net-(Q1-D)*%
X68529165Y-89900000D03*
%TD*%
D12*
%TO.P,J7,1,Pin_1_1*%
%TO.N,gpio9*%
X64970000Y-93300000D03*
%TD*%
D31*
%TO.P,U2,1,~{CS}_1*%
%TO.N,qspi_ss*%
X71794165Y-98400000D03*
%TO.P,U2,2,DO/IO_{1}_2*%
%TO.N,qspi_sd1*%
X73064165Y-98400000D03*
%TO.P,U2,3,~{WP}/IO_{2}_3*%
%TO.N,qspi_sd2*%
X74334165Y-98400000D03*
%TO.P,U2,4,GND_4*%
%TO.N,GND*%
X75604165Y-98400000D03*
%TO.P,U2,5,DI/IO_{0}_5*%
%TO.N,qspi_sd0*%
X75604165Y-90900000D03*
%TO.P,U2,6,CLK_6*%
%TO.N,qspi_sclk*%
X74334165Y-90900000D03*
%TO.P,U2,7,~{HOLD}/~{RESET}/IO_{3}_7*%
%TO.N,qspi_sd3*%
X73064165Y-90900000D03*
%TO.P,U2,8,VCC_8*%
%TO.N,+3V3*%
X71794165Y-90900000D03*
D32*
%TO.P,U2,9,EP_9*%
%TO.N,unconnected-(U2-EP-Pad9)*%
X73699165Y-94650000D03*
%TD*%
D12*
%TO.P,J36,1,Pin_1_1*%
%TO.N,3v3En*%
X80289165Y-114675000D03*
%TD*%
%TO.P,J18,1,Pin_1_1*%
%TO.N,gpio5*%
X64970000Y-79150000D03*
%TD*%
%TO.P,J3,1,Pin_1_1*%
%TO.N,GND*%
X64970000Y-114150000D03*
%TD*%
%TO.P,J40,1,Pin_1_1*%
%TO.N,GND*%
X77664165Y-114675000D03*
%TD*%
D20*
%TO.P,R14,1*%
%TO.N,Net-(J1-CC1)*%
X75664165Y-72025000D03*
%TO.P,R14,2*%
%TO.N,GND*%
X75664165Y-72525000D03*
%TD*%
D16*
%TO.P,C4,1*%
%TO.N,+3V3*%
X67239165Y-87150000D03*
%TO.P,C4,2*%
%TO.N,GND*%
X66739165Y-87150000D03*
%TD*%
D33*
%TO.P,D3,1,K_1*%
%TO.N,vsys*%
X72664165Y-75425000D03*
%TO.P,D3,2,A_2*%
%TO.N,vbus*%
X69864165Y-75425000D03*
%TD*%
D12*
%TO.P,J32,1,Pin_1_1*%
%TO.N,gpio17*%
X83470000Y-81950000D03*
%TD*%
D16*
%TO.P,C8,1*%
%TO.N,+3V3*%
X77649165Y-73590000D03*
%TO.P,C8,2*%
%TO.N,GND*%
X77149165Y-73590000D03*
%TD*%
D12*
%TO.P,J34,1,Pin_1_1*%
%TO.N,GND*%
X83470000Y-76150000D03*
%TD*%
%TO.P,J13,1,Pin_1_1*%
%TO.N,GND*%
X64970000Y-87500000D03*
%TD*%
D34*
%TO.P,D1,1,K_1*%
%TO.N,GND*%
X78615439Y-77048726D03*
%TO.P,D1,2,A_2*%
%TO.N,Net-(D1-A)*%
X78162891Y-77501274D03*
%TD*%
D16*
%TO.P,C7,1*%
%TO.N,+3V3*%
X67239165Y-88425000D03*
%TO.P,C7,2*%
%TO.N,GND*%
X66739165Y-88425000D03*
%TD*%
%TO.P,R8,1*%
%TO.N,xin*%
X79214165Y-89900000D03*
%TO.P,R8,2*%
%TO.N,xout*%
X78714165Y-89900000D03*
%TD*%
D35*
%TO.P,Y1,1,1_1*%
%TO.N,xin*%
X79214165Y-91650000D03*
%TO.P,Y1,2,2_2*%
%TO.N,Net-(C12-Pad1)*%
X79214165Y-96050000D03*
%TD*%
D12*
%TO.P,J26,1,Pin_1_1*%
%TO.N,GND*%
X83470000Y-99300000D03*
%TD*%
D20*
%TO.P,L1,1,1_1*%
%TO.N,Net-(U3-L2)*%
X77089165Y-74250000D03*
%TO.P,L1,2,2_2*%
%TO.N,Net-(U3-L1)*%
X77089165Y-74750000D03*
%TD*%
D16*
%TO.P,C14,1*%
%TO.N,GND*%
X72442737Y-77850000D03*
%TO.P,C14,2*%
%TO.N,vsys*%
X71942737Y-77850000D03*
%TD*%
D25*
%TO.P,R9,1*%
%TO.N,gpio25*%
X77137388Y-77401777D03*
%TO.P,R9,2*%
%TO.N,Net-(D1-A)*%
X77490942Y-77048223D03*
%TD*%
D12*
%TO.P,J5,1,Pin_1_1*%
%TO.N,gpio13*%
X64970000Y-105300000D03*
%TD*%
%TO.P,J14,1,Pin_1_1*%
%TO.N,gpio8*%
X64970000Y-90300000D03*
%TD*%
%TO.P,J25,1,Pin_1_1*%
%TO.N,run*%
X83470000Y-102300000D03*
%TD*%
D36*
%TO.P,J1,A1,GND_A1*%
%TO.N,GND*%
X77514165Y-70475000D03*
%TO.P,J1,A4,VBUS_A4*%
%TO.N,vbus*%
X76714165Y-70475000D03*
D37*
%TO.P,J1,A5,CC1_A5*%
%TO.N,Net-(J1-CC1)*%
X75564165Y-70475000D03*
%TO.P,J1,A6,D+_A6*%
%TO.N,usbD+*%
X74564165Y-70475000D03*
%TO.P,J1,A7,D-_A7*%
%TO.N,usbD-*%
X74064165Y-70475000D03*
%TO.P,J1,A8,SBU1_A8*%
%TO.N,unconnected-(J1-SBU1-PadA8)*%
X73064165Y-70475000D03*
D36*
%TO.P,J1,A9,VBUS_A9*%
%TO.N,vbus*%
X71914165Y-70475000D03*
%TO.P,J1,A12,GND_A12*%
%TO.N,GND*%
X71114165Y-70475000D03*
%TO.P,J1,B1,GND_B1*%
X71114165Y-70475000D03*
%TO.P,J1,B4,VBUS_B4*%
%TO.N,vbus*%
X71914165Y-70475000D03*
D37*
%TO.P,J1,B5,CC2_B5*%
%TO.N,Net-(J1-CC2)*%
X72564165Y-70475000D03*
%TO.P,J1,B6,D+_B6*%
%TO.N,usbD+*%
X73564165Y-70475000D03*
%TO.P,J1,B7,D-_B7*%
%TO.N,usbD-*%
X75064165Y-70475000D03*
%TO.P,J1,B8,SBU2_B8*%
%TO.N,unconnected-(J1-SBU2-PadB8)*%
X76064165Y-70475000D03*
D36*
%TO.P,J1,B9,VBUS_B9*%
%TO.N,vbus*%
X76714165Y-70475000D03*
%TO.P,J1,B12,GND_B12*%
%TO.N,GND*%
X77514165Y-70475000D03*
D38*
%TO.P,J1,SH,SHIELD_SH*%
X78634165Y-69875000D03*
D39*
X78634165Y-65675000D03*
D38*
X69994165Y-69875000D03*
D39*
X69994165Y-65675000D03*
%TD*%
D16*
%TO.P,R15,1*%
%TO.N,Net-(J1-CC2)*%
X69879165Y-73280000D03*
%TO.P,R15,2*%
%TO.N,GND*%
X69379165Y-73280000D03*
%TD*%
D20*
%TO.P,R16,1*%
%TO.N,GND*%
X76739165Y-102300000D03*
%TO.P,R16,2*%
%TO.N,Net-(U4-PROG)*%
X76739165Y-102800000D03*
%TD*%
D12*
%TO.P,J6,1,Pin_1_1*%
%TO.N,gpio14*%
X64970000Y-108300000D03*
%TD*%
D20*
%TO.P,R5,1*%
%TO.N,GND*%
X69389165Y-89125000D03*
%TO.P,R5,2*%
%TO.N,Net-(Q1-D)*%
X69389165Y-89625000D03*
%TD*%
D40*
%TO.P,J2,1,Pin_1_1*%
%TO.N,GND*%
X70364165Y-109150000D03*
D41*
%TO.P,J2,2,Pin_2_2*%
%TO.N,Net-(J2-Pin_2)*%
X72364165Y-109150000D03*
%TD*%
D12*
%TO.P,J12,1,Pin_1_1*%
%TO.N,gpio7*%
X64970000Y-84750000D03*
%TD*%
D42*
%TO.N,gpio16*%
X81869521Y-82172109D03*
%TO.N,Net-(D4-A)*%
X69289165Y-73981482D03*
X76164165Y-109650000D03*
%TO.N,GND*%
X71004165Y-101165000D03*
X79578289Y-79639124D03*
X72594165Y-76675000D03*
X80453444Y-86630695D03*
X70664165Y-88025000D03*
X69814165Y-90850000D03*
X71157308Y-78951723D03*
X78039165Y-74600000D03*
X67854087Y-89098975D03*
X65996206Y-88602041D03*
X75478582Y-85356348D03*
X66330459Y-89611293D03*
X74439165Y-82900000D03*
X77039165Y-73503269D03*
%TO.N,gpio15*%
X69764165Y-105494212D03*
X79119165Y-93079630D03*
X75594164Y-100028247D03*
X78902786Y-94575000D03*
X79239165Y-97711769D03*
X79094165Y-88550000D03*
%TO.N,adc_avdd*%
X80589165Y-72300000D03*
X77764165Y-76050000D03*
%TO.N,gpio18*%
X79337199Y-82523034D03*
X80315943Y-84750000D03*
%TO.N,+3V3*%
X67415789Y-87298376D03*
X80831665Y-70260406D03*
X77739165Y-73600001D03*
X75474261Y-84688916D03*
X81089165Y-72796971D03*
X74802510Y-85360669D03*
X75087363Y-76040047D03*
X68502943Y-87462025D03*
%TO.N,gpio0*%
X68120000Y-77875000D03*
X68194165Y-81920000D03*
%TO.N,gpio8*%
X67889165Y-88500000D03*
%TO.N,gpio9*%
X70289165Y-90375783D03*
X70114165Y-91975000D03*
%TO.N,gpio11*%
X70319165Y-95050000D03*
X72882077Y-88903814D03*
%TO.N,gpio12*%
X73014165Y-92000000D03*
X70114165Y-99375000D03*
%TO.N,gpio13*%
X71689165Y-104225000D03*
X76749236Y-98950000D03*
X77219165Y-100300000D03*
X75594165Y-100699998D03*
%TO.N,gpio14*%
X76149817Y-98923544D03*
X77725741Y-93275000D03*
X70469165Y-104700000D03*
X77725741Y-89825000D03*
%TO.N,xin*%
X79314164Y-89972361D03*
X77875253Y-86407840D03*
%TO.N,xout*%
X78364165Y-87250000D03*
X78628901Y-89030183D03*
%TO.N,+1V1*%
X73790744Y-79823421D03*
X76544838Y-84216078D03*
X72701880Y-81309467D03*
%TO.N,run*%
X79365943Y-84800000D03*
X81714165Y-96450000D03*
X80614165Y-85500000D03*
X82414165Y-101325000D03*
%TO.N,gpio19*%
X79139165Y-81550000D03*
%TO.N,gpio20*%
X79247632Y-80959883D03*
%TO.N,gpio21*%
X78361374Y-80847209D03*
%TO.N,gpio22*%
X78025542Y-80350000D03*
%TO.N,gpio26{slash}adc0*%
X80289165Y-110025000D03*
X76543814Y-78862216D03*
%TO.N,gpio27{slash}adc1*%
X75434875Y-80190743D03*
X78569165Y-107100000D03*
%TO.N,gpio28{slash}adc2*%
X80315943Y-83925000D03*
X81243541Y-101123873D03*
X79464165Y-77700000D03*
X76102407Y-77251256D03*
X77834354Y-78329811D03*
%TO.N,gpio29{slash}adc3*%
X67692262Y-90546903D03*
X75614165Y-77600000D03*
X68814165Y-77125000D03*
X69764165Y-77125000D03*
%TO.N,usb_dmx*%
X74914165Y-73000000D03*
X72789165Y-78476723D03*
X74514165Y-75475000D03*
X74514165Y-78075000D03*
%TO.N,usb_dpx*%
X77051990Y-76525000D03*
X75289165Y-75475000D03*
X75001182Y-73593659D03*
X73264165Y-80350000D03*
%TO.N,qspi_sd3*%
X73014165Y-90850000D03*
X70128497Y-80736085D03*
%TO.N,qspi_sclk*%
X72200923Y-81639686D03*
X74364165Y-90925000D03*
%TO.N,qspi_sd0*%
X72144165Y-82318578D03*
X73889165Y-90175000D03*
%TO.N,qspi_sd2*%
X71669165Y-82693176D03*
X74314165Y-98375000D03*
%TO.N,qspi_sd1*%
X72639164Y-83939786D03*
X75069165Y-92375000D03*
%TO.N,qspi_ss*%
X71139165Y-93300000D03*
X70300936Y-82710432D03*
%TO.N,vbus*%
X72694165Y-97250000D03*
X70669165Y-98075000D03*
X70064165Y-75400000D03*
X69519165Y-71830000D03*
X78551816Y-78481587D03*
X74119165Y-97075000D03*
X68814165Y-97725000D03*
X77994165Y-101600000D03*
%TO.N,vsys*%
X80289165Y-111425000D03*
X81914165Y-92300000D03*
X82467145Y-74622020D03*
X79819165Y-94575000D03*
X80244165Y-93625000D03*
X79744165Y-98175000D03*
X79087697Y-75904716D03*
X79494165Y-100625000D03*
X82260329Y-86694661D03*
X81114165Y-76150000D03*
X81789165Y-68350000D03*
%TO.N,3v3En*%
X81720000Y-76599339D03*
X80974736Y-90289429D03*
X81464165Y-95340101D03*
X80764165Y-112750000D03*
X81792959Y-94226206D03*
X80960329Y-86951742D03*
%TO.N,Net-(C10-Pad2)*%
X72639165Y-103200000D03*
X71414165Y-103225000D03*
%TO.N,Net-(J2-Pin_2)*%
X79264165Y-101975000D03*
%TO.N,Net-(Q1-D)*%
X69098315Y-79304150D03*
X68740942Y-89675001D03*
%TO.N,Net-(J1-CC2)*%
X72589165Y-71400000D03*
X71390788Y-72001623D03*
%TD*%
%TO.N,gpio16*%
D43*
X81822412Y-82125000D02*
X81869521Y-82172109D01*
X78417592Y-83778517D02*
X78770088Y-84131013D01*
X79072724Y-84131013D02*
X81078737Y-82125000D01*
X78770088Y-84131013D02*
X79072724Y-84131013D01*
X83195000Y-80008737D02*
X83195000Y-79150000D01*
X81078737Y-82125000D02*
X81822412Y-82125000D01*
%TO.N,Net-(D2-A)*%
D44*
X75469165Y-109610000D02*
X75509165Y-109650000D01*
D43*
X76297267Y-108675000D02*
X75469165Y-108675000D01*
D44*
X75469165Y-108675000D02*
X75469165Y-109610000D01*
D43*
X80239165Y-103425000D02*
X80239165Y-104733102D01*
D44*
X75509165Y-108140000D02*
X75469165Y-108100000D01*
X75469165Y-108100000D02*
X75469165Y-108675000D01*
D43*
X80239165Y-104733102D02*
X76297267Y-108675000D01*
%TO.N,Net-(D4-A)*%
X69289165Y-73981482D02*
X69382683Y-73981482D01*
X76149165Y-109650000D02*
X76164165Y-109650000D01*
X69382683Y-73981482D02*
X69389165Y-73975000D01*
%TO.N,Net-(C12-Pad1)*%
X80739165Y-94525000D02*
X79214165Y-96050000D01*
X79214165Y-89225000D02*
X79238555Y-89225000D01*
X79238555Y-89225000D02*
X80739165Y-90725610D01*
X78139165Y-97125000D02*
X79214165Y-96050000D01*
X80739165Y-90725610D02*
X80739165Y-94525000D01*
X78139165Y-97725000D02*
X78139165Y-97125000D01*
%TO.N,GND*%
X77039165Y-73503269D02*
X77067434Y-73503269D01*
X83195000Y-99844165D02*
X83195000Y-99575000D01*
D44*
X65370000Y-87200000D02*
X65370000Y-87500000D01*
D43*
X74439165Y-84325572D02*
X75478582Y-85364989D01*
X68014165Y-87644999D02*
X68306191Y-87937025D01*
X69089165Y-87812025D02*
X70451190Y-87812025D01*
X77514165Y-70475000D02*
X78034165Y-70475000D01*
X69939165Y-90054031D02*
X69814165Y-90179031D01*
X76739165Y-102300000D02*
X78917413Y-102300000D01*
D44*
X79481843Y-79639124D02*
X79340942Y-79498223D01*
D43*
X65996206Y-88602041D02*
X65996206Y-89277040D01*
D44*
X75094165Y-101450000D02*
X74944165Y-101600000D01*
D43*
X80151665Y-75512500D02*
X80151665Y-74575000D01*
D44*
X75094165Y-98950000D02*
X75094165Y-101450000D01*
D43*
X66739165Y-86700000D02*
X66969165Y-86470000D01*
X69839165Y-90622054D02*
X69839165Y-90825000D01*
X78885395Y-79028769D02*
X79289164Y-78625000D01*
D44*
X75969165Y-99450000D02*
X77146575Y-99450000D01*
D43*
X76578879Y-86465286D02*
X76649589Y-86465286D01*
D44*
X77146575Y-99450000D02*
X78639165Y-97957410D01*
D43*
X79276665Y-76387500D02*
X80151665Y-75512500D01*
X71439165Y-101600000D02*
X72164165Y-102325000D01*
X70451190Y-87812025D02*
X70664165Y-88025000D01*
X78615439Y-77048726D02*
X79276665Y-76387500D01*
X78215611Y-87850000D02*
X79339165Y-87850000D01*
X76649589Y-86465286D02*
X77186080Y-87001777D01*
D44*
X69994165Y-69875000D02*
X70514165Y-69875000D01*
X74434750Y-82900000D02*
X74431278Y-82903472D01*
D43*
X81126666Y-74075001D02*
X82591878Y-74075001D01*
X70364165Y-109150000D02*
X65364165Y-114150000D01*
X69634165Y-89125000D02*
X69939165Y-89430000D01*
X77664165Y-114400000D02*
X66189165Y-114400000D01*
X72442737Y-77850000D02*
X72442737Y-77446428D01*
D44*
X75539165Y-98425000D02*
X75579165Y-98425000D01*
D43*
X80239165Y-102475000D02*
X80564165Y-102475000D01*
X71489791Y-79000000D02*
X71064165Y-79000000D01*
X69224165Y-73275000D02*
X68929165Y-72980000D01*
X82591878Y-74075001D02*
X83195000Y-74678123D01*
X80164165Y-77275000D02*
X79276665Y-76387500D01*
X72539165Y-106975000D02*
X72326665Y-107187500D01*
D44*
X79578289Y-79639124D02*
X79481843Y-79639124D01*
D43*
X77514165Y-72377946D02*
X77139165Y-72752946D01*
X68929165Y-70640000D02*
X69694165Y-69875000D01*
X78034165Y-70475000D02*
X78634165Y-69875000D01*
X69814165Y-90179031D02*
X69814165Y-90850000D01*
X79092413Y-102475000D02*
X80239165Y-102475000D01*
D44*
X78639165Y-97957410D02*
X78639165Y-97725000D01*
D43*
X68964165Y-87937025D02*
X69089165Y-87812025D01*
X80390942Y-86798223D02*
X80390942Y-86551777D01*
X75478582Y-85356348D02*
X75478582Y-85364989D01*
X77186080Y-87001777D02*
X77367388Y-87001777D01*
D44*
X65364165Y-114150000D02*
X65270000Y-114150000D01*
X75604165Y-98400000D02*
X75604165Y-99085000D01*
D43*
X80151665Y-74575000D02*
X80651664Y-74075001D01*
X68929165Y-72980000D02*
X68929165Y-70640000D01*
X69389165Y-89125000D02*
X69586219Y-89125000D01*
X72164165Y-107025000D02*
X72326665Y-107187500D01*
X78917413Y-102300000D02*
X79092413Y-102475000D01*
X83195000Y-75505835D02*
X83195000Y-75875000D01*
X67920190Y-89125000D02*
X69389165Y-89125000D01*
X65996206Y-89277040D02*
X66330459Y-89611293D01*
X83195000Y-74678123D02*
X83195000Y-76150000D01*
X76541379Y-86427786D02*
X76578879Y-86465286D01*
X71064165Y-79000000D02*
X71109031Y-79000000D01*
D44*
X70514165Y-69875000D02*
X71114165Y-70475000D01*
D43*
X74944165Y-101600000D02*
X75539165Y-101600000D01*
X72164165Y-107025000D02*
X72164165Y-107350000D01*
X77067434Y-73503269D02*
X77139165Y-73575000D01*
X77367388Y-87001777D02*
X78215611Y-87850000D01*
X79289164Y-78625000D02*
X79514165Y-78399999D01*
X81364165Y-74075001D02*
X81764166Y-74075001D01*
X66739165Y-87150000D02*
X66739165Y-86700000D01*
X72442737Y-77850000D02*
X72442737Y-78047054D01*
X69839165Y-90825000D02*
X69814165Y-90850000D01*
X76039165Y-101600000D02*
X76739165Y-102300000D01*
X69561219Y-90850000D02*
X69364165Y-90850000D01*
D44*
X75604165Y-99085000D02*
X75969165Y-99450000D01*
D43*
X76089165Y-72950000D02*
X75664165Y-72525000D01*
X68014165Y-87165000D02*
X68014165Y-87644999D01*
X72714165Y-77175000D02*
X72714165Y-76795000D01*
D44*
X65520000Y-87750000D02*
X65270000Y-87500000D01*
D43*
X65939165Y-114150000D02*
X65364165Y-114150000D01*
X72442737Y-78047054D02*
X71489791Y-79000000D01*
X79289164Y-78625000D02*
X80139164Y-77775000D01*
X71109031Y-79000000D02*
X71157308Y-78951723D01*
X72164165Y-102325000D02*
X72164165Y-107025000D01*
X66739165Y-87150000D02*
X66739165Y-88425000D01*
X66969165Y-86470000D02*
X67319165Y-86470000D01*
X78885395Y-79028769D02*
X78885395Y-79042676D01*
X67894165Y-89098975D02*
X67920190Y-89125000D01*
X80164165Y-77775000D02*
X80164165Y-77275000D01*
D44*
X75604165Y-98400000D02*
X75604165Y-98440000D01*
D43*
X71439165Y-101600000D02*
X74944165Y-101600000D01*
X78064165Y-74575000D02*
X78039165Y-74600000D01*
X77139165Y-72752946D02*
X77139165Y-72950000D01*
X77514165Y-70475000D02*
X77514165Y-72377946D01*
X78885395Y-79042676D02*
X79340942Y-79498223D01*
X71004165Y-101165000D02*
X71439165Y-101600000D01*
D44*
X74439165Y-82900000D02*
X74434750Y-82900000D01*
X75604165Y-98440000D02*
X75094165Y-98950000D01*
X75579165Y-98425000D02*
X75604165Y-98400000D01*
D43*
X72714165Y-76795000D02*
X72594165Y-76675000D01*
X79339165Y-87850000D02*
X80390942Y-86798223D01*
X69464165Y-73275000D02*
X69224165Y-73275000D01*
X68306191Y-87937025D02*
X68964165Y-87937025D01*
X72326665Y-107187500D02*
X72164165Y-107350000D01*
X80564165Y-102475000D02*
X83195000Y-99844165D01*
X74439165Y-82900000D02*
X74439165Y-84325572D01*
X78939165Y-74575000D02*
X78064165Y-74575000D01*
X75478582Y-85364989D02*
X76154851Y-86041258D01*
X66189165Y-114400000D02*
X65939165Y-114150000D01*
X76154851Y-86041258D02*
X76541379Y-86427786D01*
X75539165Y-101600000D02*
X76039165Y-101600000D01*
X69389165Y-89125000D02*
X69634165Y-89125000D01*
X69694165Y-69875000D02*
X69994165Y-69875000D01*
X77139165Y-72950000D02*
X76089165Y-72950000D01*
X80151665Y-74575000D02*
X78939165Y-74575000D01*
X66739165Y-87750000D02*
X65495000Y-87750000D01*
X80651664Y-74075001D02*
X81364165Y-74075001D01*
D44*
X83170000Y-100206664D02*
X83170000Y-99300000D01*
D43*
X65495000Y-87750000D02*
X65245000Y-87500000D01*
X77139165Y-73575000D02*
X77139165Y-72950000D01*
X69814165Y-90597054D02*
X69561219Y-90850000D01*
X72164165Y-107350000D02*
X70364165Y-109150000D01*
X80139164Y-77775000D02*
X80164165Y-77775000D01*
X75439165Y-106975000D02*
X72539165Y-106975000D01*
X67854087Y-89098975D02*
X67894165Y-89098975D01*
X69814165Y-90597054D02*
X69839165Y-90622054D01*
X67319165Y-86470000D02*
X68014165Y-87165000D01*
X69939165Y-89430000D02*
X69939165Y-90054031D01*
X72442737Y-77446428D02*
X72714165Y-77175000D01*
%TO.N,gpio15*%
X75872008Y-86324101D02*
X78097907Y-88550000D01*
X77301905Y-99825000D02*
X75797411Y-99825000D01*
X79239165Y-97887740D02*
X77301905Y-99825000D01*
X78097907Y-88550000D02*
X79094165Y-88550000D01*
X75797411Y-99825000D02*
X75594164Y-100028247D01*
X79119165Y-94358621D02*
X78902786Y-94575000D01*
X79119165Y-93079630D02*
X79119165Y-94358621D01*
X65245000Y-110013377D02*
X65245000Y-111150000D01*
X69764165Y-105494212D02*
X65245000Y-110013377D01*
X79239165Y-97711769D02*
X79239165Y-97887740D01*
%TO.N,Net-(D5-K)*%
X83189165Y-70230000D02*
X83189165Y-70250000D01*
X81431665Y-70230000D02*
X83189165Y-70230000D01*
D44*
X83139165Y-70250000D02*
X83164165Y-70225000D01*
%TO.N,gpio23*%
D43*
X81126666Y-75074999D02*
X81564164Y-75074999D01*
X77742593Y-79875000D02*
X77003379Y-80614214D01*
X78964165Y-79875000D02*
X77742593Y-79875000D01*
X82195000Y-75705835D02*
X82195000Y-77694165D01*
X81564164Y-75074999D02*
X82195000Y-75705835D01*
X82195000Y-77694165D02*
X79689165Y-80200000D01*
X79689165Y-80200000D02*
X79335611Y-80200000D01*
X78987388Y-79851777D02*
X78964165Y-79875000D01*
X79335611Y-80200000D02*
X78987388Y-79851777D01*
%TO.N,gpio1*%
X67989164Y-82519164D02*
X67989165Y-82600000D01*
X65689165Y-67150000D02*
X67645000Y-69105835D01*
X69259160Y-84887025D02*
X69902140Y-84887025D01*
X69902140Y-84887025D02*
X70727806Y-84061359D01*
X67989165Y-83617028D02*
X69259160Y-84887025D01*
X67645000Y-69105835D02*
X67645000Y-82175000D01*
X65245000Y-67150000D02*
X65689165Y-67150000D01*
X67645000Y-82175000D02*
X67989164Y-82519164D01*
X67989165Y-82600000D02*
X67989165Y-83617028D01*
%TO.N,adc_vref*%
D44*
X81714165Y-72750000D02*
X81714165Y-72150000D01*
X82795000Y-72775000D02*
X83170000Y-73150000D01*
X83095000Y-72775000D02*
X83170000Y-72850000D01*
X81689165Y-72775000D02*
X81714165Y-72750000D01*
X81689165Y-72775000D02*
X82795000Y-72775000D01*
X83170000Y-72850000D02*
X83170000Y-73150000D01*
%TO.N,adc_avdd*%
D43*
X80589165Y-72300000D02*
X81064165Y-72300000D01*
X73214165Y-78009404D02*
X73839076Y-78634315D01*
X76739165Y-75925000D02*
X77639165Y-75925000D01*
X75814165Y-75000000D02*
X76739165Y-75925000D01*
X73214165Y-77175000D02*
X73586652Y-76802513D01*
X73214165Y-77175000D02*
X73214165Y-78009404D01*
X73586652Y-75697487D02*
X74284139Y-75000000D01*
X74284139Y-75000000D02*
X75814165Y-75000000D01*
X81064165Y-72300000D02*
X81214165Y-72150000D01*
X73586652Y-76802513D02*
X73586652Y-75697487D01*
X77639165Y-75925000D02*
X77764165Y-76050000D01*
%TO.N,gpio18*%
X79125435Y-82311270D02*
X79337199Y-82523034D01*
X80315943Y-84750000D02*
X83195000Y-84750000D01*
X78700435Y-82311270D02*
X79125435Y-82311270D01*
%TO.N,gpio24*%
X76720536Y-80331371D02*
X76732794Y-80331371D01*
X78142934Y-78921231D02*
X78142934Y-78993412D01*
X78142934Y-78993412D02*
X78531843Y-79382321D01*
X76732794Y-80331371D02*
X78142934Y-78921231D01*
D44*
X78112389Y-78951776D02*
X78100129Y-78951776D01*
%TO.N,+3V3*%
D43*
X75023480Y-78540685D02*
X75023480Y-78634315D01*
X81189165Y-73400000D02*
X81364165Y-73575000D01*
X76499565Y-84688916D02*
X77003379Y-85192730D01*
X75023480Y-78634315D02*
X74545188Y-79112607D01*
X74586812Y-80407353D02*
X74545188Y-80365730D01*
X77739165Y-73275000D02*
X77639165Y-73175000D01*
X72996620Y-85322545D02*
X73115289Y-85441214D01*
X68169165Y-90352054D02*
X67239165Y-89422054D01*
X68444165Y-91625000D02*
X68169165Y-91350000D01*
X76969020Y-83120145D02*
X76969020Y-82789562D01*
X75474261Y-84688916D02*
X76499565Y-84688916D01*
X81189165Y-72775000D02*
X81111136Y-72775000D01*
X75087363Y-76040047D02*
X75136755Y-76089439D01*
X71369165Y-91325000D02*
X70092413Y-91325000D01*
X69792413Y-91625000D02*
X68444165Y-91625000D01*
X76969020Y-81779943D02*
X76969020Y-82525000D01*
X69866447Y-83200000D02*
X70162121Y-83495674D01*
X73216665Y-81152500D02*
X73530599Y-81152500D01*
X74317368Y-80365730D02*
X74545189Y-80365730D01*
X72142020Y-80331371D02*
X72268778Y-80204613D01*
X71089165Y-83415090D02*
X71089165Y-83425000D01*
X77639165Y-73175000D02*
X77639165Y-72950000D01*
X76704458Y-82525000D02*
X76696811Y-82517353D01*
X73060202Y-85386127D02*
X73060202Y-85688761D01*
X76969020Y-82789562D02*
X74586812Y-80407353D01*
X74545188Y-79112607D02*
X74545188Y-80365730D01*
X80862071Y-70230000D02*
X80831665Y-70260406D01*
X74545188Y-79906113D02*
X74545188Y-80365730D01*
X77739165Y-73600001D02*
X77739165Y-73275000D01*
X74545189Y-80365730D02*
X74586812Y-80407353D01*
X73530599Y-81152500D02*
X74317368Y-80365730D01*
X75474261Y-84614904D02*
X76969020Y-83120145D01*
X70799075Y-83125000D02*
X71089165Y-83415090D01*
X72268778Y-80204613D02*
X73216665Y-81152500D01*
X73060202Y-85688761D02*
X72707705Y-86041258D01*
X72268778Y-80204613D02*
X72424863Y-80048528D01*
X71286938Y-87462025D02*
X72707705Y-86041258D01*
X81111136Y-72775000D02*
X81089165Y-72796971D01*
X75136755Y-78427410D02*
X75023480Y-78540685D01*
X77639165Y-73575000D02*
X77639165Y-73175000D01*
X68169165Y-91350000D02*
X68169165Y-90352054D01*
X70162121Y-83495674D02*
X70532795Y-83125000D01*
X77569064Y-81179899D02*
X76969020Y-81779943D01*
X73556233Y-78917158D02*
X74545188Y-79906113D01*
X71794165Y-90900000D02*
X71369165Y-91325000D01*
X81189165Y-72775000D02*
X79739165Y-72775000D01*
X67415789Y-87298376D02*
X67387541Y-87298376D01*
X71089165Y-83415090D02*
X71396620Y-83722545D01*
X75474261Y-84688916D02*
X75474261Y-84614904D01*
X80931665Y-70230000D02*
X80862071Y-70230000D01*
X75136755Y-76089439D02*
X75136755Y-78427410D01*
X76969020Y-82525000D02*
X76969020Y-82789562D01*
X76969020Y-82525000D02*
X76704458Y-82525000D01*
X70532795Y-83125000D02*
X70799075Y-83125000D01*
X81189165Y-72775000D02*
X81189165Y-73400000D01*
X67239165Y-89422054D02*
X67239165Y-89400000D01*
X68764165Y-83200000D02*
X69866447Y-83200000D01*
X67239165Y-87150000D02*
X67239165Y-88425000D01*
X73115289Y-85441214D02*
X74721965Y-85441214D01*
X67239165Y-88425000D02*
X67239165Y-89400000D01*
X72996620Y-85322545D02*
X73060202Y-85386127D01*
X67387541Y-87298376D02*
X67239165Y-87150000D01*
X74721965Y-85441214D02*
X74802510Y-85360669D01*
X71396620Y-83722545D02*
X72996620Y-85322545D01*
X77639165Y-73575000D02*
X78939165Y-73575000D01*
X79739165Y-72775000D02*
X78939165Y-73575000D01*
X68502943Y-87462025D02*
X71286938Y-87462025D01*
X70092413Y-91325000D02*
X69792413Y-91625000D01*
%TO.N,gpio0*%
X65245000Y-64150000D02*
X67657082Y-66562083D01*
X68339165Y-83472054D02*
X69404136Y-84537025D01*
X67995000Y-77750000D02*
X68120000Y-77875000D01*
X68339165Y-82175000D02*
X68339165Y-83472054D01*
X68194165Y-81920000D02*
X68194165Y-82030000D01*
X67995000Y-66900001D02*
X67995000Y-77750000D01*
X69686456Y-84537025D02*
X70444964Y-83778517D01*
X67657082Y-66562083D02*
X67995000Y-66900001D01*
X68194165Y-82030000D02*
X68339165Y-82175000D01*
X69404136Y-84537025D02*
X69686456Y-84537025D01*
%TO.N,gpio2*%
X67639164Y-82725000D02*
X67639164Y-83762002D01*
X70117826Y-85237025D02*
X71010649Y-84344202D01*
X67639164Y-83762002D02*
X69114185Y-85237025D01*
X67295000Y-82395915D02*
X67310079Y-82395915D01*
X69114185Y-85237025D02*
X70117826Y-85237025D01*
X67310079Y-82395915D02*
X67639164Y-82725000D01*
X67295000Y-72475001D02*
X67295000Y-82395915D01*
X65245000Y-70425000D02*
X67295000Y-72475001D01*
%TO.N,gpio3*%
X67289164Y-83906976D02*
X68969210Y-85587025D01*
X66945000Y-82540889D02*
X67289164Y-82885053D01*
X65245000Y-73425000D02*
X66945000Y-75124999D01*
X67289164Y-82885053D02*
X67289164Y-83906976D01*
X68969210Y-85587025D02*
X70333512Y-85587025D01*
X70333512Y-85587025D02*
X71293492Y-84627045D01*
X66945000Y-75124999D02*
X66945000Y-82540889D01*
%TO.N,gpio4*%
X65245000Y-76425000D02*
X66595000Y-77775001D01*
X66939164Y-83030027D02*
X66939164Y-84051951D01*
X66595000Y-77775001D02*
X66595000Y-82685863D01*
X66939164Y-84051951D02*
X68824235Y-85937025D01*
X70549196Y-85937025D02*
X71576334Y-84909887D01*
X66595000Y-82685863D02*
X66939164Y-83030027D01*
X68824235Y-85937025D02*
X70549196Y-85937025D01*
%TO.N,gpio5*%
X68679260Y-86287025D02*
X70764882Y-86287025D01*
X66589163Y-84196925D02*
X68679260Y-86287025D01*
X65245000Y-79425000D02*
X66245000Y-80425001D01*
X66245000Y-80425001D02*
X66245000Y-82830837D01*
X70764882Y-86287025D02*
X71859177Y-85192730D01*
X66245000Y-82830837D02*
X66589163Y-83175000D01*
X66589163Y-83175000D02*
X66589163Y-84196925D01*
%TO.N,gpio6*%
X70980568Y-86637025D02*
X72142020Y-85475573D01*
X65245000Y-82330835D02*
X66239165Y-83325000D01*
X66239165Y-84341902D02*
X68534286Y-86637025D01*
X66239165Y-83325000D02*
X66239165Y-84341902D01*
X65245000Y-81950000D02*
X65245000Y-82330835D01*
X68534286Y-86637025D02*
X70980568Y-86637025D01*
%TO.N,gpio7*%
X68704165Y-86987025D02*
X68829165Y-87112025D01*
X68829165Y-87112025D02*
X71071254Y-87112025D01*
X67983299Y-86581013D02*
X67983299Y-86584134D01*
X66152288Y-84750000D02*
X67983299Y-86581013D01*
X65245000Y-84750000D02*
X66152288Y-84750000D01*
X68386190Y-86987025D02*
X68704165Y-86987025D01*
D44*
X65270000Y-84750000D02*
X65270000Y-85050000D01*
D43*
X67983299Y-86584134D02*
X68386190Y-86987025D01*
X71071254Y-87112025D02*
X72424863Y-85758416D01*
%TO.N,gpio8*%
X70467413Y-88500000D02*
X71624191Y-88500000D01*
X69234140Y-88162025D02*
X70129438Y-88162025D01*
X67889165Y-88500000D02*
X68102140Y-88287025D01*
X69109139Y-88287025D02*
X69234140Y-88162025D01*
X72119165Y-88005026D02*
X72119165Y-87195484D01*
X68102140Y-88287025D02*
X69109139Y-88287025D01*
X70129438Y-88162025D02*
X70467413Y-88500000D01*
X72119165Y-87195484D02*
X72990548Y-86324101D01*
X71624191Y-88500000D02*
X72119165Y-88005026D01*
%TO.N,gpio9*%
X66295000Y-91975000D02*
X65245000Y-93025000D01*
X65245000Y-93025000D02*
X65245000Y-93300000D01*
X70289165Y-89230510D02*
X70289165Y-90375783D01*
X71769165Y-88850000D02*
X72469165Y-88150000D01*
X70669675Y-88850000D02*
X70289165Y-89230510D01*
X70114165Y-91975000D02*
X66295000Y-91975000D01*
X72469165Y-87411170D02*
X73273391Y-86606944D01*
X72469165Y-88150000D02*
X72469165Y-87411170D01*
X70669675Y-88850000D02*
X71769165Y-88850000D01*
%TO.N,gpio10*%
X65245000Y-96300000D02*
X66469165Y-96300000D01*
X72819165Y-87556144D02*
X73047237Y-87328072D01*
X72369165Y-92121752D02*
X72369165Y-88744974D01*
X70294165Y-92475000D02*
X72015917Y-92475000D01*
X73047237Y-87328072D02*
X73117947Y-87328072D01*
X72369165Y-88744974D02*
X72819165Y-88294974D01*
X66469165Y-96300000D02*
X70294165Y-92475000D01*
X72819165Y-88294974D02*
X72819165Y-87556144D01*
X72015917Y-92475000D02*
X72369165Y-92121752D01*
X73117947Y-87328072D02*
X73556233Y-86889786D01*
%TO.N,gpio11*%
X73303127Y-87850000D02*
X73169165Y-87850000D01*
X70319165Y-95050000D02*
X66069165Y-99300000D01*
X73839076Y-87314051D02*
X73303127Y-87850000D01*
X73169165Y-87850000D02*
X73169165Y-88616726D01*
X73169165Y-88616726D02*
X72882077Y-88903814D01*
X73839076Y-87172629D02*
X73839076Y-87314051D01*
X66069165Y-99300000D02*
X65245000Y-99300000D01*
%TO.N,gpio12*%
X76129165Y-88278314D02*
X75023480Y-87172629D01*
X76129165Y-91269150D02*
X76129165Y-88278314D01*
D44*
X65270000Y-102000000D02*
X65534155Y-101735845D01*
D43*
X73514165Y-91500000D02*
X75898315Y-91500000D01*
X70114165Y-99375000D02*
X67895000Y-99375000D01*
X67895000Y-99375000D02*
X65245000Y-102025000D01*
D44*
X65270000Y-102300000D02*
X65270000Y-102000000D01*
D43*
X75898315Y-91500000D02*
X76129165Y-91269150D01*
X65245000Y-102300000D02*
X65245000Y-102025000D01*
X73014165Y-92000000D02*
X73514165Y-91500000D01*
%TO.N,gpio13*%
X78644165Y-93050000D02*
X78469165Y-92875000D01*
X75769995Y-87424170D02*
X75769995Y-87353458D01*
X78366665Y-94372500D02*
X78366665Y-94352500D01*
X75769995Y-87353458D02*
X75306323Y-86889786D01*
X71689165Y-104225000D02*
X66045000Y-104225000D01*
X77219165Y-100300000D02*
X75994163Y-100300000D01*
X77989775Y-92875000D02*
X77689165Y-92574390D01*
X66045000Y-104225000D02*
X65245000Y-105025000D01*
X77664165Y-97125000D02*
X77689165Y-97100000D01*
X77689165Y-97100000D02*
X77689165Y-95050000D01*
X76479165Y-90650000D02*
X76479165Y-88133340D01*
X65245000Y-105025000D02*
X65245000Y-105300000D01*
X78644165Y-94075000D02*
X78644165Y-93050000D01*
X76479165Y-88133340D02*
X75769995Y-87424170D01*
X76594165Y-90650000D02*
X76479165Y-90650000D01*
X77689165Y-91745000D02*
X76594165Y-90650000D01*
X75994163Y-100300000D02*
X75594165Y-100699998D01*
X78366665Y-94352500D02*
X78644165Y-94075000D01*
X78469165Y-92875000D02*
X77989775Y-92875000D01*
X77689165Y-95050000D02*
X78366665Y-94372500D01*
X76749236Y-98950000D02*
X77664165Y-98035071D01*
X77689165Y-92574390D02*
X77689165Y-91745000D01*
X77664165Y-98035071D02*
X77664165Y-97125000D01*
%TO.N,gpio14*%
X76829165Y-87846944D02*
X76829165Y-88928424D01*
X68570000Y-104700000D02*
X65245000Y-108025000D01*
X76149817Y-98856123D02*
X76930940Y-98075000D01*
X77339165Y-96750000D02*
X77339165Y-93661576D01*
X65245000Y-108025000D02*
X65245000Y-108300000D01*
X76149817Y-98923544D02*
X76149817Y-98856123D01*
X76930940Y-97158225D02*
X77339165Y-96750000D01*
X76829165Y-88928424D02*
X77725741Y-89825000D01*
X76930940Y-98075000D02*
X76930940Y-97158225D01*
X77339165Y-93661576D02*
X77725741Y-93275000D01*
X70469165Y-104700000D02*
X68570000Y-104700000D01*
X75589165Y-86606944D02*
X76829165Y-87846944D01*
%TO.N,xin*%
X77669120Y-86748223D02*
X77725741Y-86691602D01*
X79214165Y-89900000D02*
X79214165Y-91650000D01*
X77640942Y-86748223D02*
X77669120Y-86748223D01*
X79286526Y-89972361D02*
X79214165Y-89900000D01*
X77808093Y-86475000D02*
X77875253Y-86407840D01*
X77154277Y-86475000D02*
X77808093Y-86475000D01*
X77720942Y-86562151D02*
X77875253Y-86407840D01*
X77720942Y-86648223D02*
X77720942Y-86562151D01*
X76437693Y-85758416D02*
X77154277Y-86475000D01*
X79314164Y-89972361D02*
X79286526Y-89972361D01*
%TO.N,xout*%
X78364165Y-85964974D02*
X78364165Y-87250000D01*
X76720536Y-85475573D02*
X77119564Y-85874601D01*
X77119564Y-85874601D02*
X77590979Y-85874601D01*
X77590979Y-85874601D02*
X77844165Y-85621415D01*
X78628901Y-89139736D02*
X78714165Y-89225000D01*
X78628901Y-89030183D02*
X78628901Y-89139736D01*
X78020606Y-85621415D02*
X78364165Y-85964974D01*
X78714165Y-89900000D02*
X78714165Y-89225000D01*
X77844165Y-85621415D02*
X78020606Y-85621415D01*
%TO.N,+1V1*%
X76627466Y-84298706D02*
X76675041Y-84298706D01*
X76675041Y-84298706D02*
X77286222Y-84909887D01*
X78165580Y-85271415D02*
X79092388Y-86198223D01*
X79092388Y-86198223D02*
X80037388Y-86198223D01*
X73790744Y-79717353D02*
X73790744Y-79823421D01*
D44*
X70690942Y-79376777D02*
X70690942Y-79445981D01*
D43*
X72369277Y-81124314D02*
X71859177Y-80614214D01*
X70710611Y-79465648D02*
X71859177Y-80614214D01*
X76544838Y-84216078D02*
X76627466Y-84298706D01*
X70710611Y-79353554D02*
X70710611Y-79465648D01*
X73273391Y-79200000D02*
X73790744Y-79717353D01*
X72516727Y-81124314D02*
X72369277Y-81124314D01*
X72701880Y-81309467D02*
X72516727Y-81124314D01*
X77286222Y-84909887D02*
X77647750Y-85271415D01*
X77647750Y-85271415D02*
X78165580Y-85271415D01*
%TO.N,run*%
X81799736Y-91514429D02*
X81799736Y-89880025D01*
X82089165Y-93722288D02*
X81811453Y-93722288D01*
X80814165Y-85700000D02*
X80614165Y-85500000D01*
X82414165Y-101325000D02*
X83195000Y-102105835D01*
X82702957Y-94989456D02*
X82702957Y-94336080D01*
X83195000Y-102105835D02*
X83195000Y-102300000D01*
X81674736Y-89755025D02*
X81674736Y-87850000D01*
X81785329Y-87739406D02*
X81785329Y-86610015D01*
X81714165Y-96450000D02*
X81714165Y-96371752D01*
X81674736Y-87850000D02*
X81785329Y-87739406D01*
X81799736Y-89880025D02*
X81674736Y-89755025D01*
X82702957Y-94336080D02*
X82089165Y-93722288D01*
X81439165Y-91875000D02*
X81799736Y-91514429D01*
X82293706Y-95792211D02*
X82293706Y-95398707D01*
X82293706Y-95398707D02*
X82702957Y-94989456D01*
X81439165Y-93350000D02*
X81439165Y-91875000D01*
X81714165Y-96371752D02*
X82293706Y-95792211D01*
X80939806Y-85764493D02*
X80814165Y-85764493D01*
X79365943Y-84800000D02*
X78873391Y-84800000D01*
X81811453Y-93722288D02*
X81439165Y-93350000D01*
X80814165Y-85764493D02*
X80699672Y-85764493D01*
X80814165Y-85764493D02*
X80814165Y-85700000D01*
X78873391Y-84800000D02*
X78134750Y-84061359D01*
X81785329Y-86610015D02*
X80939806Y-85764493D01*
%TO.N,gpio17*%
X82319165Y-81950000D02*
X81983289Y-81614124D01*
X82319165Y-81950000D02*
X83195000Y-81950000D01*
X81983289Y-81614124D02*
X80917861Y-81614124D01*
X79036311Y-83495674D02*
X78700435Y-83495674D01*
X80917861Y-81614124D02*
X79036311Y-83495674D01*
D44*
X83170000Y-82250000D02*
X83170000Y-81950000D01*
%TO.N,gpio19*%
D43*
X79139165Y-81550000D02*
X78896019Y-81550000D01*
X78896019Y-81550000D02*
X78417592Y-82028427D01*
%TO.N,gpio20*%
X78920452Y-80959883D02*
X79247632Y-80959883D01*
X78134750Y-81745585D02*
X78920452Y-80959883D01*
%TO.N,gpio21*%
X78361374Y-80953275D02*
X78361374Y-80847209D01*
X77851907Y-81462742D02*
X78361374Y-80953275D01*
%TO.N,gpio22*%
X77286222Y-80897057D02*
X77833279Y-80350000D01*
X77833279Y-80350000D02*
X78025542Y-80350000D01*
%TO.N,gpio25*%
X77137388Y-77401777D02*
X77137388Y-79348833D01*
X77137388Y-79348833D02*
X76437693Y-80048528D01*
D44*
X76437693Y-80048526D02*
X76437693Y-80048528D01*
%TO.N,gpio26{slash}adc0*%
D43*
X80289165Y-110025000D02*
X81414165Y-111150000D01*
X76543814Y-78862216D02*
X76543814Y-79376723D01*
X76543814Y-79376723D02*
X76154851Y-79765686D01*
X81414165Y-111150000D02*
X83195000Y-111150000D01*
%TO.N,gpio27{slash}adc1*%
X75434875Y-80190743D02*
X75434875Y-79919976D01*
X75434875Y-79919976D02*
X75872008Y-79482843D01*
X78569165Y-107100000D02*
X79769165Y-108300000D01*
X79769165Y-108300000D02*
X83195000Y-108300000D01*
%TO.N,gpio28{slash}adc2*%
X79840943Y-85400738D02*
X79840943Y-84400000D01*
X81324736Y-89900000D02*
X81449736Y-90025000D01*
X81449736Y-90025000D02*
X81449736Y-91364429D01*
X81324736Y-87705025D02*
X81435329Y-87594432D01*
X81163038Y-101123873D02*
X81243541Y-101123873D01*
X75589165Y-79200000D02*
X76102407Y-78686758D01*
X78661651Y-77700000D02*
X79464165Y-77700000D01*
X81435329Y-87594432D02*
X81435329Y-86754990D01*
X81089165Y-91725000D02*
X81089165Y-94775000D01*
X81449736Y-91364429D02*
X81089165Y-91725000D01*
X78031840Y-78329811D02*
X78661651Y-77700000D01*
X80836034Y-86155695D02*
X80595900Y-86155695D01*
X81089165Y-94775000D02*
X80989165Y-94875000D01*
X81324736Y-87705025D02*
X81324736Y-88100000D01*
X77834354Y-78329811D02*
X78031840Y-78329811D01*
X76102407Y-78686758D02*
X76102407Y-77251256D01*
X81435329Y-86754990D02*
X80836034Y-86155695D01*
X80989165Y-94875000D02*
X80989165Y-100950000D01*
X80595900Y-86155695D02*
X79840943Y-85400738D01*
X81324736Y-87705025D02*
X81324736Y-89900000D01*
X79840943Y-84400000D02*
X80315943Y-83925000D01*
X80989165Y-100950000D02*
X81163038Y-101123873D01*
%TO.N,gpio29{slash}adc3*%
X68814165Y-77125000D02*
X69764165Y-77125000D01*
X75614165Y-77600000D02*
X75658819Y-77644654D01*
D44*
X67239165Y-90366544D02*
X67239165Y-90400000D01*
D43*
X75658819Y-78564662D02*
X75306323Y-78917158D01*
D44*
X67239165Y-90400000D02*
X67545359Y-90400000D01*
X67545359Y-90400000D02*
X67692262Y-90546903D01*
D43*
X75658819Y-77644654D02*
X75658819Y-78564662D01*
%TO.N,usb_dmx*%
X74514165Y-78075000D02*
X74514165Y-75475000D01*
X74914165Y-73000000D02*
X74914165Y-72675000D01*
X72638052Y-78627836D02*
X72789165Y-78476723D01*
X72990548Y-79482843D02*
X72638052Y-79130347D01*
X74914165Y-72675000D02*
X75064165Y-72525000D01*
X72638052Y-79130347D02*
X72638052Y-78627836D01*
%TO.N,usb_dpx*%
X74632824Y-73593659D02*
X73564165Y-72525000D01*
X73089165Y-80147146D02*
X72707705Y-79765686D01*
X73089165Y-80175000D02*
X73089165Y-80147146D01*
X75001182Y-73593659D02*
X74632824Y-73593659D01*
X73264165Y-80350000D02*
X73089165Y-80175000D01*
X76339165Y-76525000D02*
X77051990Y-76525000D01*
D44*
X72317019Y-79375000D02*
X72707705Y-79765686D01*
D43*
X75289165Y-75475000D02*
X76339165Y-76525000D01*
%TO.N,qspi_sd3*%
X73064165Y-90900000D02*
X73014165Y-90850000D01*
X70128497Y-80736085D02*
X70320022Y-80544560D01*
X71223837Y-80544560D02*
X71576334Y-80897057D01*
X70320022Y-80544560D02*
X71223837Y-80544560D01*
%TO.N,qspi_sclk*%
X72073166Y-81767443D02*
X71881036Y-81767443D01*
X74339165Y-90900000D02*
X74364165Y-90925000D01*
X71881036Y-81767443D02*
X71293492Y-81179899D01*
X74334165Y-90900000D02*
X74339165Y-90900000D01*
X72200923Y-81639686D02*
X72073166Y-81767443D01*
%TO.N,qspi_sd0*%
X74879165Y-90175000D02*
X73889165Y-90175000D01*
X75604165Y-90900000D02*
X74879165Y-90175000D01*
X72144165Y-82318578D02*
X72043763Y-82218176D01*
X71406036Y-81964195D02*
X71406036Y-81858129D01*
X71406036Y-81858129D02*
X71010649Y-81462742D01*
X71660017Y-82218176D02*
X71406036Y-81964195D01*
X72043763Y-82218176D02*
X71660017Y-82218176D01*
%TO.N,qspi_sd2*%
X71640043Y-82693176D02*
X71669165Y-82693176D01*
X70727806Y-81745585D02*
X70727806Y-81780939D01*
X70727806Y-81780939D02*
X71640043Y-82693176D01*
X74334165Y-98395000D02*
X74314165Y-98375000D01*
X74334165Y-98400000D02*
X74334165Y-98395000D01*
%TO.N,qspi_sd1*%
X75614165Y-97800000D02*
X76164165Y-97250000D01*
X76164165Y-97250000D02*
X76164165Y-92715000D01*
X73664165Y-97800000D02*
X75614165Y-97800000D01*
X70869165Y-82452628D02*
X70444964Y-82028427D01*
X76164165Y-92715000D02*
X75824165Y-92375000D01*
X70869165Y-82564928D02*
X70869165Y-82452628D01*
X72639164Y-83939786D02*
X72244023Y-83939786D01*
X73064165Y-98400000D02*
X73664165Y-97800000D01*
X72244023Y-83939786D02*
X70869165Y-82564928D01*
X75824165Y-92375000D02*
X75069165Y-92375000D01*
%TO.N,qspi_ss*%
X71139165Y-97745000D02*
X71139165Y-93300000D01*
X70364165Y-102950000D02*
X70364165Y-101133248D01*
X71794165Y-99703248D02*
X71794165Y-98400000D01*
X70300936Y-82710432D02*
X70048391Y-82457887D01*
X71794165Y-98400000D02*
X71139165Y-97745000D01*
X70048391Y-82425000D02*
X70162121Y-82311270D01*
X68764165Y-82700000D02*
X69773391Y-82700000D01*
X70048391Y-82457887D02*
X70048391Y-82425000D01*
X70364165Y-101133248D02*
X71794165Y-99703248D01*
X69773391Y-82700000D02*
X70048391Y-82425000D01*
%TO.N,vbus*%
X71914165Y-70475000D02*
X71914165Y-70007946D01*
X69164165Y-98075000D02*
X68814165Y-97725000D01*
X70356652Y-73377487D02*
X70356652Y-73707513D01*
X71587540Y-72476623D02*
X71257516Y-72476623D01*
X75936219Y-69230000D02*
X76035192Y-69328973D01*
X71482541Y-71526623D02*
X71914165Y-71094999D01*
X72692111Y-69230000D02*
X75936219Y-69230000D01*
X78514165Y-66850000D02*
X80770000Y-66850000D01*
X71914165Y-72149999D02*
X71661665Y-72402500D01*
X76035192Y-69328973D02*
X76376665Y-68987500D01*
X76376665Y-68987500D02*
X76134165Y-69230000D01*
X71914165Y-71094999D02*
X71914165Y-70475000D01*
X74119165Y-97075000D02*
X72869165Y-97075000D01*
X70089164Y-73975000D02*
X69889165Y-73975000D01*
X72869165Y-97075000D02*
X72694165Y-97250000D01*
D44*
X70064165Y-75400000D02*
X69889165Y-75400000D01*
D43*
X69889165Y-73975000D02*
X69889165Y-75400000D01*
X71914165Y-70475000D02*
X71914165Y-72149999D01*
X69822542Y-71526623D02*
X71482541Y-71526623D01*
X77964165Y-101525000D02*
X77964165Y-101570000D01*
D44*
X78551816Y-78512349D02*
X78496488Y-78567677D01*
D43*
X71257516Y-72476623D02*
X70356652Y-73377487D01*
X69519165Y-71830000D02*
X69822542Y-71526623D01*
D44*
X69889165Y-75400000D02*
X69864165Y-75425000D01*
D43*
X76134165Y-69230000D02*
X75936219Y-69230000D01*
X76714165Y-70007946D02*
X76714165Y-70475000D01*
X70669165Y-98075000D02*
X69164165Y-98075000D01*
X70356652Y-73707513D02*
X70089164Y-73975000D01*
X80770000Y-66850000D02*
X83195000Y-64425000D01*
D44*
X78551816Y-78481587D02*
X78551816Y-78512349D01*
D43*
X76035192Y-69328973D02*
X76714165Y-70007946D01*
X83195000Y-64425000D02*
X83195000Y-64150000D01*
X71914165Y-70007946D02*
X72692111Y-69230000D01*
X77964165Y-101570000D02*
X77994165Y-101600000D01*
X71661665Y-72402500D02*
X71587540Y-72476623D01*
X76376665Y-68987500D02*
X78514165Y-66850000D01*
%TO.N,vsys*%
X80244165Y-93625000D02*
X80244165Y-94150000D01*
X82420125Y-74575000D02*
X82467145Y-74622020D01*
X71942737Y-77200000D02*
X71942737Y-77850000D01*
X82024736Y-89610050D02*
X82149736Y-89735051D01*
X81789165Y-92019974D02*
X81789165Y-92175000D01*
X74139165Y-74650000D02*
X75989165Y-74650000D01*
X82135329Y-87889407D02*
X82024736Y-88000000D01*
X82024736Y-88000000D02*
X82024736Y-89610050D01*
X80289165Y-111425000D02*
X80289165Y-112350000D01*
X79087697Y-75904716D02*
X78782981Y-75600000D01*
X71942737Y-77200000D02*
X71942737Y-76146428D01*
X78726666Y-75600000D02*
X78701666Y-75575000D01*
X79744165Y-98175000D02*
X79494165Y-98425000D01*
X83195000Y-67425000D02*
X83195000Y-67150000D01*
X78782981Y-75600000D02*
X78726666Y-75600000D01*
X82260329Y-86694661D02*
X82135329Y-86819661D01*
X73364165Y-75425000D02*
X74139165Y-74650000D01*
X82135329Y-86819661D02*
X82135329Y-87889407D01*
X81789165Y-92175000D02*
X81914165Y-92300000D01*
X80244165Y-94150000D02*
X79819165Y-94575000D01*
X72664165Y-75425000D02*
X73364165Y-75425000D01*
X75989165Y-74650000D02*
X76914165Y-75575000D01*
X79494165Y-98425000D02*
X79494165Y-100625000D01*
X76914165Y-75575000D02*
X79014165Y-75575000D01*
X82149736Y-89735051D02*
X82149736Y-91659404D01*
X81789165Y-68350000D02*
X82270000Y-68350000D01*
X71942737Y-76146428D02*
X72664165Y-75425000D01*
X82149736Y-91659404D02*
X81789165Y-92019974D01*
X82270000Y-68350000D02*
X83195000Y-67425000D01*
X81126666Y-74575000D02*
X82420125Y-74575000D01*
%TO.N,usbD+*%
X73564165Y-70475000D02*
X73564165Y-69855001D01*
X73564165Y-70475000D02*
X73564165Y-72025000D01*
X73564165Y-69855001D02*
X73839166Y-69580000D01*
X73839166Y-69580000D02*
X74286219Y-69580000D01*
X74286219Y-69580000D02*
X74564165Y-69857946D01*
X74564165Y-69857946D02*
X74564165Y-70475000D01*
%TO.N,Net-(U3-L2)*%
X77089165Y-74250000D02*
X77264164Y-74075001D01*
X77264164Y-74075001D02*
X78939165Y-74075001D01*
%TO.N,Net-(U3-L1)*%
X77414164Y-75074999D02*
X78939165Y-75074999D01*
X77089165Y-74750000D02*
X77414164Y-75074999D01*
%TO.N,3v3En*%
X81733811Y-94285354D02*
X81733811Y-95070455D01*
X81720000Y-75755835D02*
X81720000Y-76599339D01*
X81539165Y-75575000D02*
X81720000Y-75755835D01*
X80960329Y-87835593D02*
X80974736Y-87850000D01*
X81126666Y-75575000D02*
X81539165Y-75575000D01*
X80664165Y-112850000D02*
X80289165Y-112850000D01*
X80974736Y-87850000D02*
X80974736Y-90289429D01*
X80764165Y-112750000D02*
X80664165Y-112850000D01*
X81792959Y-94226206D02*
X81733811Y-94285354D01*
X80289165Y-112850000D02*
X80289165Y-114400000D01*
X80960329Y-86951742D02*
X80960329Y-87835593D01*
X81733811Y-95070455D02*
X81464165Y-95340101D01*
%TO.N,Net-(C10-Pad2)*%
X70364165Y-103450000D02*
X71189165Y-103450000D01*
X71414165Y-103225000D02*
X71439165Y-103200000D01*
X71189165Y-103450000D02*
X71439165Y-103200000D01*
X75539165Y-103200000D02*
X72639165Y-103200000D01*
%TO.N,Net-(J2-Pin_2)*%
X79714165Y-101525000D02*
X79264165Y-101975000D01*
X80239165Y-101525000D02*
X79714165Y-101525000D01*
%TO.N,Net-(U4-PROG)*%
X76739165Y-102800000D02*
X77339165Y-102800000D01*
X77339165Y-102800000D02*
X77964165Y-103425000D01*
%TO.N,Net-(Q1-D)*%
X68804165Y-89625000D02*
X68529165Y-89900000D01*
X69389165Y-89625000D02*
X68804165Y-89625000D01*
D44*
X68529165Y-89900000D02*
X68529165Y-89886778D01*
D43*
X71442737Y-77200000D02*
X71202465Y-77200000D01*
X71202465Y-77200000D02*
X69098315Y-79304150D01*
X69389165Y-90325000D02*
X69364165Y-90350000D01*
X69389165Y-89625000D02*
X69389165Y-90325000D01*
D44*
X68529165Y-89900000D02*
X68529165Y-89915000D01*
X68529165Y-89886778D02*
X68740942Y-89675001D01*
%TO.N,Net-(D2-K)*%
D43*
X75684164Y-107475000D02*
X76109165Y-107900001D01*
X76109165Y-107900001D02*
X76109165Y-108100000D01*
X75439165Y-107475000D02*
X75684164Y-107475000D01*
%TO.N,usbD-*%
X74064165Y-71092054D02*
X74997111Y-72025000D01*
X75064165Y-72025000D02*
X75064165Y-70475000D01*
X74064165Y-70475000D02*
X74064165Y-71092054D01*
X74997111Y-72025000D02*
X75064165Y-72025000D01*
%TO.N,Net-(J1-CC1)*%
D44*
X75664165Y-72025000D02*
X75564165Y-71925000D01*
X75564165Y-71925000D02*
X75564165Y-70475000D01*
%TO.N,Net-(D1-A)*%
D43*
X77490942Y-77048223D02*
X77709840Y-77048223D01*
X77709840Y-77048223D02*
X78162891Y-77501274D01*
%TO.N,Net-(J1-CC2)*%
X69964165Y-73275000D02*
X71237542Y-72001623D01*
X71237542Y-72001623D02*
X71390788Y-72001623D01*
X72589165Y-70500000D02*
X72564165Y-70475000D01*
X72589165Y-71400000D02*
X72589165Y-70500000D01*
%TD*%
M02*
